<svg width="569" height="84" viewBox="0 0 569 84" fill="none" xmlns="http://www.w3.org/2000/svg">
<path d="M11.4258 33.5664C14.3086 30.0273 18.0586 28.2578 22.6758 28.2578C30.7148 28.2578 34.7695 32.793 34.8398 41.8633V67H28.3359V41.8281C28.3125 39.0859 27.6797 37.0586 26.4375 35.7461C25.2188 34.4336 23.3086 33.7773 20.707 33.7773C18.5977 33.7773 16.7461 34.3398 15.1523 35.4648C13.5586 36.5898 12.3164 38.0664 11.4258 39.8945V67H4.92188V13H11.4258V33.5664ZM68.0625 67C67.6875 66.25 67.3828 64.9141 67.1484 62.9922C64.125 66.1328 60.5156 67.7031 56.3203 67.7031C52.5703 67.7031 49.4883 66.6484 47.0742 64.5391C44.6836 62.4062 43.4883 59.7109 43.4883 56.4531C43.4883 52.4922 44.9883 49.4219 47.9883 47.2422C51.0117 45.0391 55.2539 43.9375 60.7148 43.9375H67.043V40.9492C67.043 38.6758 66.3633 36.8711 65.0039 35.5352C63.6445 34.1758 61.6406 33.4961 58.9922 33.4961C56.6719 33.4961 54.7266 34.082 53.1562 35.2539C51.5859 36.4258 50.8008 37.8438 50.8008 39.5078H44.2617C44.2617 37.6094 44.9297 35.7812 46.2656 34.0234C47.625 32.2422 49.4531 30.8359 51.75 29.8047C54.0703 28.7734 56.6133 28.2578 59.3789 28.2578C63.7617 28.2578 67.1953 29.3594 69.6797 31.5625C72.1641 33.7422 73.4531 36.7539 73.5469 40.5977V58.1055C73.5469 61.5977 73.9922 64.375 74.8828 66.4375V67H68.0625ZM57.2695 62.043C59.3086 62.043 61.2422 61.5156 63.0703 60.4609C64.8984 59.4062 66.2227 58.0352 67.043 56.3477V48.543H61.9453C53.9766 48.543 49.9922 50.875 49.9922 55.5391C49.9922 57.5781 50.6719 59.1719 52.0312 60.3203C53.3906 61.4688 55.1367 62.043 57.2695 62.043ZM95.7305 58.1758L105.152 28.9609H111.797L98.1562 67H93.1992L79.418 28.9609H86.0625L95.7305 58.1758ZM133.348 67.7031C128.191 67.7031 123.996 66.0156 120.762 62.6406C117.527 59.2422 115.91 54.707 115.91 49.0352V47.8398C115.91 44.0664 116.625 40.7031 118.055 37.75C119.508 34.7734 121.523 32.4531 124.102 30.7891C126.703 29.1016 129.516 28.2578 132.539 28.2578C137.484 28.2578 141.328 29.8867 144.07 33.1445C146.812 36.4023 148.184 41.0664 148.184 47.1367V49.8438H122.414C122.508 53.5938 123.598 56.6289 125.684 58.9492C127.793 61.2461 130.465 62.3945 133.699 62.3945C135.996 62.3945 137.941 61.9258 139.535 60.9883C141.129 60.0508 142.523 58.8086 143.719 57.2617L147.691 60.3555C144.504 65.2539 139.723 67.7031 133.348 67.7031ZM132.539 33.6016C129.914 33.6016 127.711 34.5625 125.93 36.4844C124.148 38.3828 123.047 41.0547 122.625 44.5H141.68V44.0078C141.492 40.7031 140.602 38.1484 139.008 36.3438C137.414 34.5156 135.258 33.6016 132.539 33.6016ZM197.086 67C196.711 66.25 196.406 64.9141 196.172 62.9922C193.148 66.1328 189.539 67.7031 185.344 67.7031C181.594 67.7031 178.512 66.6484 176.098 64.5391C173.707 62.4062 172.512 59.7109 172.512 56.4531C172.512 52.4922 174.012 49.4219 177.012 47.2422C180.035 45.0391 184.277 43.9375 189.738 43.9375H196.066V40.9492C196.066 38.6758 195.387 36.8711 194.027 35.5352C192.668 34.1758 190.664 33.4961 188.016 33.4961C185.695 33.4961 183.75 34.082 182.18 35.2539C180.609 36.4258 179.824 37.8438 179.824 39.5078H173.285C173.285 37.6094 173.953 35.7812 175.289 34.0234C176.648 32.2422 178.477 30.8359 180.773 29.8047C183.094 28.7734 185.637 28.2578 188.402 28.2578C192.785 28.2578 196.219 29.3594 198.703 31.5625C201.188 33.7422 202.477 36.7539 202.57 40.5977V58.1055C202.57 61.5977 203.016 64.375 203.906 66.4375V67H197.086ZM186.293 62.043C188.332 62.043 190.266 61.5156 192.094 60.4609C193.922 59.4062 195.246 58.0352 196.066 56.3477V48.543H190.969C183 48.543 179.016 50.875 179.016 55.5391C179.016 57.5781 179.695 59.1719 181.055 60.3203C182.414 61.4688 184.16 62.043 186.293 62.043ZM229.078 47.6641C229.078 41.7344 230.449 37.0234 233.191 33.5312C235.934 30.0156 239.566 28.2578 244.09 28.2578C248.73 28.2578 252.352 29.8984 254.953 33.1797L255.27 28.9609H261.211V66.0859C261.211 71.0078 259.746 74.8867 256.816 77.7227C253.91 80.5586 249.996 81.9766 245.074 81.9766C242.332 81.9766 239.648 81.3906 237.023 80.2188C234.398 79.0469 232.395 77.4414 231.012 75.4023L234.387 71.5C237.176 74.9453 240.586 76.668 244.617 76.668C247.781 76.668 250.242 75.7773 252 73.9961C253.781 72.2148 254.672 69.707 254.672 66.4727V63.2031C252.07 66.2031 248.52 67.7031 244.02 67.7031C239.566 67.7031 235.957 65.9102 233.191 62.3242C230.449 58.7383 229.078 53.8516 229.078 47.6641ZM235.617 48.4023C235.617 52.6914 236.496 56.0664 238.254 58.5273C240.012 60.9648 242.473 62.1836 245.637 62.1836C249.738 62.1836 252.75 60.3203 254.672 56.5938V39.2266C252.68 35.5938 249.691 33.7773 245.707 33.7773C242.543 33.7773 240.07 35.0078 238.289 37.4688C236.508 39.9297 235.617 43.5742 235.617 48.4023ZM269.332 47.6289C269.332 43.9023 270.059 40.5508 271.512 37.5742C272.988 34.5977 275.027 32.3008 277.629 30.6836C280.254 29.0664 283.242 28.2578 286.594 28.2578C291.773 28.2578 295.957 30.0508 299.145 33.6367C302.355 37.2227 303.961 41.9922 303.961 47.9453V48.4023C303.961 52.1055 303.246 55.4336 301.816 58.3867C300.41 61.3164 298.383 63.6016 295.734 65.2422C293.109 66.8828 290.086 67.7031 286.664 67.7031C281.508 67.7031 277.324 65.9102 274.113 62.3242C270.926 58.7383 269.332 53.9922 269.332 48.0859V47.6289ZM275.871 48.4023C275.871 52.6211 276.844 56.0078 278.789 58.5625C280.758 61.1172 283.383 62.3945 286.664 62.3945C289.969 62.3945 292.594 61.1055 294.539 58.5273C296.484 55.9258 297.457 52.293 297.457 47.6289C297.457 43.457 296.461 40.082 294.469 37.5039C292.5 34.9023 289.875 33.6016 286.594 33.6016C283.383 33.6016 280.793 34.8789 278.824 37.4336C276.855 39.9883 275.871 43.6445 275.871 48.4023ZM310.395 47.6289C310.395 43.9023 311.121 40.5508 312.574 37.5742C314.051 34.5977 316.09 32.3008 318.691 30.6836C321.316 29.0664 324.305 28.2578 327.656 28.2578C332.836 28.2578 337.02 30.0508 340.207 33.6367C343.418 37.2227 345.023 41.9922 345.023 47.9453V48.4023C345.023 52.1055 344.309 55.4336 342.879 58.3867C341.473 61.3164 339.445 63.6016 336.797 65.2422C334.172 66.8828 331.148 67.7031 327.727 67.7031C322.57 67.7031 318.387 65.9102 315.176 62.3242C311.988 58.7383 310.395 53.9922 310.395 48.0859V47.6289ZM316.934 48.4023C316.934 52.6211 317.906 56.0078 319.852 58.5625C321.82 61.1172 324.445 62.3945 327.727 62.3945C331.031 62.3945 333.656 61.1055 335.602 58.5273C337.547 55.9258 338.52 52.293 338.52 47.6289C338.52 43.457 337.523 40.082 335.531 37.5039C333.562 34.9023 330.938 33.6016 327.656 33.6016C324.445 33.6016 321.855 34.8789 319.887 37.4336C317.918 39.9883 316.934 43.6445 316.934 48.4023ZM351.598 47.6641C351.598 41.8281 352.98 37.1406 355.746 33.6016C358.512 30.0391 362.133 28.2578 366.609 28.2578C371.062 28.2578 374.59 29.7812 377.191 32.8281V13H383.695V67H377.719L377.402 62.9219C374.801 66.1094 371.18 67.7031 366.539 67.7031C362.133 67.7031 358.535 65.8984 355.746 62.2891C352.98 58.6797 351.598 53.9688 351.598 48.1562V47.6641ZM358.102 48.4023C358.102 52.7148 358.992 56.0898 360.773 58.5273C362.555 60.9648 365.016 62.1836 368.156 62.1836C372.281 62.1836 375.293 60.332 377.191 56.6289V39.1562C375.246 35.5703 372.258 33.7773 368.227 33.7773C365.039 33.7773 362.555 35.0078 360.773 37.4688C358.992 39.9297 358.102 43.5742 358.102 48.4023ZM420.504 19.75V28.9609H427.605V33.9883H420.504V57.5781C420.504 59.1016 420.82 60.25 421.453 61.0234C422.086 61.7734 423.164 62.1484 424.688 62.1484C425.438 62.1484 426.469 62.0078 427.781 61.7266V67C426.07 67.4688 424.406 67.7031 422.789 67.7031C419.883 67.7031 417.691 66.8242 416.215 65.0664C414.738 63.3086 414 60.8125 414 57.5781V33.9883H407.074V28.9609H414V19.75H420.504ZM442.301 67H435.797V28.9609H442.301V67ZM435.27 18.8711C435.27 17.8164 435.586 16.9258 436.219 16.1992C436.875 15.4727 437.836 15.1094 439.102 15.1094C440.367 15.1094 441.328 15.4727 441.984 16.1992C442.641 16.9258 442.969 17.8164 442.969 18.8711C442.969 19.9258 442.641 20.8047 441.984 21.5078C441.328 22.2109 440.367 22.5625 439.102 22.5625C437.836 22.5625 436.875 22.2109 436.219 21.5078C435.586 20.8047 435.27 19.9258 435.27 18.8711ZM458.859 28.9609L459.035 33.1797C461.824 29.8984 465.586 28.2578 470.32 28.2578C475.641 28.2578 479.262 30.2969 481.184 34.375C482.449 32.5469 484.09 31.0703 486.105 29.9453C488.145 28.8203 490.547 28.2578 493.312 28.2578C501.656 28.2578 505.898 32.6758 506.039 41.5117V67H499.535V41.8984C499.535 39.1797 498.914 37.1523 497.672 35.8164C496.43 34.457 494.344 33.7773 491.414 33.7773C489 33.7773 486.996 34.5039 485.402 35.957C483.809 37.3867 482.883 39.3203 482.625 41.7578V67H476.086V42.0742C476.086 36.543 473.379 33.7773 467.965 33.7773C463.699 33.7773 460.781 35.5938 459.211 39.2266V67H452.707V28.9609H458.859ZM531.668 67.7031C526.512 67.7031 522.316 66.0156 519.082 62.6406C515.848 59.2422 514.23 54.707 514.23 49.0352V47.8398C514.23 44.0664 514.945 40.7031 516.375 37.75C517.828 34.7734 519.844 32.4531 522.422 30.7891C525.023 29.1016 527.836 28.2578 530.859 28.2578C535.805 28.2578 539.648 29.8867 542.391 33.1445C545.133 36.4023 546.504 41.0664 546.504 47.1367V49.8438H520.734C520.828 53.5938 521.918 56.6289 524.004 58.9492C526.113 61.2461 528.785 62.3945 532.02 62.3945C534.316 62.3945 536.262 61.9258 537.855 60.9883C539.449 60.0508 540.844 58.8086 542.039 57.2617L546.012 60.3555C542.824 65.2539 538.043 67.7031 531.668 67.7031ZM530.859 33.6016C528.234 33.6016 526.031 34.5625 524.25 36.4844C522.469 38.3828 521.367 41.0547 520.945 44.5H540V44.0078C539.812 40.7031 538.922 38.1484 537.328 36.3438C535.734 34.5156 533.578 33.6016 530.859 33.6016ZM554.203 63.5898C554.203 62.4648 554.531 61.5273 555.188 60.7773C555.867 60.0273 556.875 59.6523 558.211 59.6523C559.547 59.6523 560.555 60.0273 561.234 60.7773C561.938 61.5273 562.289 62.4648 562.289 63.5898C562.289 64.668 561.938 65.5703 561.234 66.2969C560.555 67.0234 559.547 67.3867 558.211 67.3867C556.875 67.3867 555.867 67.0234 555.188 66.2969C554.531 65.5703 554.203 64.668 554.203 63.5898Z" fill="black"/>
<path d="M11.4258 33.5664H10.4258V36.3774L12.2011 34.198L11.4258 33.5664ZM34.8398 41.8633L35.8399 41.8633L35.8398 41.8555L34.8398 41.8633ZM34.8398 67V68H35.8398V67H34.8398ZM28.3359 67H27.3359V68H28.3359V67ZM28.3359 41.8281L29.336 41.8281L29.3359 41.8196L28.3359 41.8281ZM26.4375 35.7461L25.7047 36.4266L25.7112 36.4335L26.4375 35.7461ZM11.4258 39.8945L10.5268 39.4566L10.4258 39.6639V39.8945H11.4258ZM11.4258 67V68H12.4258V67H11.4258ZM4.92188 67H3.92188V68H4.92188V67ZM4.92188 13V12H3.92188V13H4.92188ZM11.4258 13H12.4258V12H11.4258V13ZM12.2011 34.198C14.8915 30.8951 18.3553 29.2578 22.6758 29.2578V27.2578C17.7619 27.2578 13.7257 29.1595 10.6505 32.9348L12.2011 34.198ZM22.6758 29.2578C26.5072 29.2578 29.219 30.333 31.0006 32.3257C32.8023 34.3409 33.8057 37.463 33.8399 41.871L35.8398 41.8555C35.8037 37.1933 34.7446 33.5126 32.4916 30.9927C30.2185 28.4502 26.8834 27.2578 22.6758 27.2578V29.2578ZM33.8398 41.8633V67H35.8398V41.8633H33.8398ZM34.8398 66H28.3359V68H34.8398V66ZM29.3359 67V41.8281H27.3359V67H29.3359ZM29.3359 41.8196C29.3114 38.9519 28.6509 36.63 27.1638 35.0587L25.7112 36.4335C26.7085 37.4872 27.3136 39.2199 27.336 41.8367L29.3359 41.8196ZM27.1703 35.0656C25.6903 33.4718 23.4593 32.7773 20.707 32.7773V34.7773C23.1579 34.7773 24.7472 35.3954 25.7047 36.4265L27.1703 35.0656ZM20.707 32.7773C18.4088 32.7773 16.352 33.394 14.5757 34.6479L15.729 36.2818C17.1402 35.2857 18.7865 34.7773 20.707 34.7773V32.7773ZM14.5757 34.6479C12.8383 35.8742 11.488 37.4836 10.5268 39.4566L12.3248 40.3325C13.1449 38.6492 14.2789 37.3055 15.729 36.2818L14.5757 34.6479ZM10.4258 39.8945V67H12.4258V39.8945H10.4258ZM11.4258 66H4.92188V68H11.4258V66ZM5.92188 67V13H3.92188V67H5.92188ZM4.92188 14H11.4258V12H4.92188V14ZM10.4258 13V33.5664H12.4258V13H10.4258ZM68.0625 67L67.1681 67.4472L67.4445 68H68.0625V67ZM67.1484 62.9922L68.1411 62.8711L67.8865 60.7836L66.428 62.2986L67.1484 62.9922ZM47.0742 64.5391L46.4085 65.2853L46.4162 65.2921L47.0742 64.5391ZM47.9883 47.2422L48.5761 48.0512L48.5772 48.0504L47.9883 47.2422ZM67.043 43.9375V44.9375H68.043V43.9375H67.043ZM65.0039 35.5352L64.2968 36.2423L64.303 36.2484L65.0039 35.5352ZM50.8008 39.5078V40.5078H51.8008V39.5078H50.8008ZM44.2617 39.5078H43.2617V40.5078H44.2617V39.5078ZM46.2656 34.0234L45.4707 33.4168L45.4695 33.4184L46.2656 34.0234ZM51.75 29.8047L51.3439 28.8909L51.3404 28.8924L51.75 29.8047ZM69.6797 31.5625L69.0162 32.3107L69.0202 32.3142L69.6797 31.5625ZM73.5469 40.5977H74.5469V40.5855L74.5466 40.5733L73.5469 40.5977ZM74.8828 66.4375H75.8828V66.2308L75.8009 66.0411L74.8828 66.4375ZM74.8828 67V68H75.8828V67H74.8828ZM67.043 56.3477L67.9423 56.7848L68.043 56.5778V56.3477H67.043ZM67.043 48.543H68.043V47.543H67.043V48.543ZM68.9569 66.5528C68.6662 65.9713 68.375 64.7892 68.1411 62.8711L66.1558 63.1132C66.3906 65.0389 66.7088 66.5287 67.1681 67.4472L68.9569 66.5528ZM66.428 62.2986C63.5848 65.2521 60.2321 66.7031 56.3203 66.7031V68.7031C60.7991 68.7031 64.6652 67.0136 67.8689 63.6857L66.428 62.2986ZM56.3203 66.7031C52.7689 66.7031 49.9338 65.7098 47.7322 63.786L46.4162 65.2921C49.0428 67.5871 52.3718 68.7031 56.3203 68.7031V66.7031ZM47.7399 63.7929C45.5661 61.8534 44.4883 59.4314 44.4883 56.4531H42.4883C42.4883 59.9904 43.8011 62.9591 46.4085 65.2853L47.7399 63.7929ZM44.4883 56.4531C44.4883 52.7868 45.855 50.0282 48.5761 48.0512L47.4005 46.4332C44.1215 48.8155 42.4883 52.1976 42.4883 56.4531H44.4883ZM48.5772 48.0504C51.3671 46.0174 55.3724 44.9375 60.7148 44.9375V42.9375C55.1354 42.9375 50.6563 44.0607 47.3994 46.434L48.5772 48.0504ZM60.7148 44.9375H67.043V42.9375H60.7148V44.9375ZM68.043 43.9375V40.9492H66.043V43.9375H68.043ZM68.043 40.9492C68.043 38.4632 67.2918 36.3816 65.7048 34.8219L64.303 36.2484C65.4347 37.3606 66.043 38.8884 66.043 40.9492H68.043ZM65.711 34.828C64.1024 33.2195 61.8036 32.4961 58.9922 32.4961V34.4961C61.4777 34.4961 63.1866 35.1321 64.2968 36.2423L65.711 34.828ZM58.9922 32.4961C56.4973 32.4961 54.3314 33.1292 52.5582 34.4525L53.7543 36.0553C55.1217 35.0349 56.8464 34.4961 58.9922 34.4961V32.4961ZM52.5582 34.4525C50.7857 35.7752 49.8008 37.4697 49.8008 39.5078H51.8008C51.8008 38.2178 52.3861 37.0764 53.7543 36.0553L52.5582 34.4525ZM50.8008 38.5078H44.2617V40.5078H50.8008V38.5078ZM45.2617 39.5078C45.2617 37.8623 45.8357 36.2418 47.0618 34.6285L45.4695 33.4184C44.0237 35.3207 43.2617 37.3565 43.2617 39.5078H45.2617ZM47.0606 34.6301C48.307 32.9969 49.9955 31.6886 52.1596 30.717L51.3404 28.8924C48.9107 29.9833 46.943 31.4875 45.4707 33.4168L47.0606 34.6301ZM52.1561 30.7185C54.3375 29.749 56.7406 29.2578 59.3789 29.2578V27.2578C56.486 27.2578 53.8031 27.7979 51.3439 28.8909L52.1561 30.7185ZM59.3789 29.2578C63.5969 29.2578 66.7667 30.3158 69.0162 32.3107L70.3432 30.8143C67.6239 28.4029 63.9266 27.2578 59.3789 27.2578V29.2578ZM69.0202 32.3142C71.2597 34.2791 72.459 37.0076 72.5472 40.622L74.5466 40.5733C74.4472 36.5002 73.0684 33.2053 70.3392 30.8108L69.0202 32.3142ZM72.5469 40.5977V58.1055H74.5469V40.5977H72.5469ZM72.5469 58.1055C72.5469 61.6664 72.9985 64.5963 73.9648 66.8339L75.8009 66.0411C74.9859 64.1537 74.5469 61.5289 74.5469 58.1055H72.5469ZM73.8828 66.4375V67H75.8828V66.4375H73.8828ZM74.8828 66H68.0625V68H74.8828V66ZM57.2695 63.043C59.4903 63.043 61.5955 62.4663 63.57 61.3271L62.5706 59.5948C60.8889 60.565 59.1269 61.043 57.2695 61.043V63.043ZM63.57 61.3271C65.5488 60.1855 67.024 58.674 67.9423 56.7848L66.1436 55.9105C65.4213 57.3963 64.248 58.627 62.5706 59.5948L63.57 61.3271ZM68.043 56.3477V48.543H66.043V56.3477H68.043ZM67.043 47.543H61.9453V49.543H67.043V47.543ZM61.9453 47.543C57.8961 47.543 54.6952 48.1297 52.4753 49.429C50.1728 50.7766 48.9922 52.8564 48.9922 55.5391H50.9922C50.9922 53.5577 51.8038 52.1394 53.4856 51.155C55.2501 50.1223 58.0257 49.543 61.9453 49.543V47.543ZM48.9922 55.5391C48.9922 57.8246 49.7674 59.7169 51.3859 61.0842L52.6766 59.5564C51.5763 58.6269 50.9922 57.3316 50.9922 55.5391H48.9922ZM51.3859 61.0842C52.9599 62.414 54.9495 63.043 57.2695 63.043V61.043C55.324 61.043 53.8213 60.5235 52.6766 59.5564L51.3859 61.0842ZM95.7305 58.1758L94.7811 58.49L95.7427 61.3958L96.6822 58.4827L95.7305 58.1758ZM105.152 28.9609V27.9609H104.424L104.201 28.654L105.152 28.9609ZM111.797 28.9609L112.738 29.2985L113.218 27.9609H111.797V28.9609ZM98.1562 67V68H98.86L99.0976 67.3375L98.1562 67ZM93.1992 67L92.259 67.3406L92.4979 68H93.1992V67ZM79.418 28.9609V27.9609H77.9921L78.4778 29.3016L79.418 28.9609ZM86.0625 28.9609L87.0119 28.6468L86.7849 27.9609H86.0625V28.9609ZM96.6822 58.4827L106.104 29.2679L104.201 28.654L94.7787 57.8688L96.6822 58.4827ZM105.152 29.9609H111.797V27.9609H105.152V29.9609ZM110.856 28.6234L97.2149 66.6625L99.0976 67.3375L112.738 29.2985L110.856 28.6234ZM98.1562 66H93.1992V68H98.1562V66ZM94.1394 66.6594L80.3582 28.6203L78.4778 29.3016L92.259 67.3406L94.1394 66.6594ZM79.418 29.9609H86.0625V27.9609H79.418V29.9609ZM85.1131 29.2751L94.7811 58.49L96.6798 57.8616L87.0119 28.6468L85.1131 29.2751ZM120.762 62.6406L120.037 63.33L120.04 63.3325L120.762 62.6406ZM118.055 37.75L117.156 37.3113L117.155 37.3143L118.055 37.75ZM124.102 30.7891L124.644 31.6292L124.646 31.628L124.102 30.7891ZM148.184 49.8438V50.8438H149.184V49.8438H148.184ZM122.414 49.8438V48.8438H121.389L121.414 49.8687L122.414 49.8438ZM125.684 58.9492L124.94 59.6178L124.947 59.6256L125.684 58.9492ZM143.719 57.2617L144.333 56.4727L143.541 55.856L142.927 56.6503L143.719 57.2617ZM147.691 60.3555L148.53 60.9009L149.031 60.1309L148.306 59.5665L147.691 60.3555ZM125.93 36.4844L126.659 37.1686L126.663 37.1641L125.93 36.4844ZM122.625 44.5L121.632 44.3785L121.495 45.5H122.625V44.5ZM141.68 44.5V45.5H142.68V44.5H141.68ZM141.68 44.0078H142.68V43.9795L142.678 43.9512L141.68 44.0078ZM139.008 36.3438L138.254 37.0009L138.258 37.0057L139.008 36.3438ZM133.348 66.7031C128.433 66.7031 124.509 65.1056 121.484 61.9487L120.04 63.3325C123.483 66.9257 127.95 68.7031 133.348 68.7031V66.7031ZM121.486 61.9512C118.464 58.7761 116.91 54.5072 116.91 49.0352H114.91C114.91 54.9069 116.59 59.7082 120.037 63.33L121.486 61.9512ZM116.91 49.0352V47.8398H114.91V49.0352H116.91ZM116.91 47.8398C116.91 44.1947 117.6 40.984 118.955 38.1857L117.155 37.3143C115.65 40.4222 114.91 43.9381 114.91 47.8398H116.91ZM118.953 38.1887C120.333 35.3624 122.231 33.1866 124.644 31.6292L123.559 29.9489C120.816 31.7196 118.683 34.1844 117.156 37.3113L118.953 38.1887ZM124.646 31.628C127.09 30.0428 129.714 29.2578 132.539 29.2578V27.2578C129.317 27.2578 126.317 28.1603 123.557 29.9501L124.646 31.628ZM132.539 29.2578C137.242 29.2578 140.785 30.794 143.305 33.7885L144.835 32.5006C141.872 28.9794 137.726 27.2578 132.539 27.2578V29.2578ZM143.305 33.7885C145.842 36.8028 147.184 41.2034 147.184 47.1367H149.184C149.184 40.9294 147.783 36.0019 144.835 32.5006L143.305 33.7885ZM147.184 47.1367V49.8438H149.184V47.1367H147.184ZM148.184 48.8438H122.414V50.8438H148.184V48.8438ZM121.414 49.8687C121.513 53.8066 122.664 57.0861 124.94 59.6178L126.427 58.2807C124.531 56.1717 123.503 53.3809 123.414 49.8188L121.414 49.8687ZM124.947 59.6256C127.254 62.1372 130.197 63.3945 133.699 63.3945V61.3945C130.733 61.3945 128.332 60.355 126.42 58.2728L124.947 59.6256ZM133.699 63.3945C136.132 63.3945 138.262 62.8976 140.042 61.8502L139.028 60.1263C137.621 60.954 135.861 61.3945 133.699 61.3945V63.3945ZM140.042 61.8502C141.752 60.8445 143.241 59.515 144.51 57.8732L142.927 56.6503C141.806 58.1021 140.506 59.2571 139.028 60.1263L140.042 61.8502ZM143.104 58.0507L147.077 61.1444L148.306 59.5665L144.333 56.4727L143.104 58.0507ZM146.853 59.8101C143.869 64.3957 139.421 66.7031 133.348 66.7031V68.7031C140.024 68.7031 145.139 66.1122 148.53 60.9009L146.853 59.8101ZM132.539 32.6016C129.636 32.6016 127.167 33.6781 125.196 35.8046L126.663 37.1641C128.255 35.4469 130.192 34.6016 132.539 34.6016V32.6016ZM125.2 35.8001C123.232 37.8977 122.072 40.7919 121.632 44.3785L123.618 44.6215C124.022 41.3174 125.065 38.8679 126.659 37.1686L125.2 35.8001ZM122.625 45.5H141.68V43.5H122.625V45.5ZM142.68 44.5V44.0078H140.68V44.5H142.68ZM142.678 43.9512C142.483 40.5054 141.547 37.7078 139.757 35.6818L138.258 37.0057C139.657 38.5891 140.502 40.9008 140.681 44.0645L142.678 43.9512ZM139.762 35.6866C137.954 33.6128 135.508 32.6016 132.539 32.6016V34.6016C135.008 34.6016 136.874 35.4184 138.254 37.0009L139.762 35.6866ZM197.086 67L196.192 67.4472L196.468 68H197.086V67ZM196.172 62.9922L197.165 62.8711L196.91 60.7836L195.451 62.2986L196.172 62.9922ZM176.098 64.5391L175.432 65.2853L175.44 65.2921L176.098 64.5391ZM177.012 47.2422L177.6 48.0512L177.601 48.0504L177.012 47.2422ZM196.066 43.9375V44.9375H197.066V43.9375H196.066ZM194.027 35.5352L193.32 36.2423L193.326 36.2484L194.027 35.5352ZM179.824 39.5078V40.5078H180.824V39.5078H179.824ZM173.285 39.5078H172.285V40.5078H173.285V39.5078ZM175.289 34.0234L174.494 33.4168L174.493 33.4184L175.289 34.0234ZM180.773 29.8047L180.367 28.8909L180.364 28.8924L180.773 29.8047ZM198.703 31.5625L198.04 32.3107L198.044 32.3142L198.703 31.5625ZM202.57 40.5977H203.57V40.5855L203.57 40.5733L202.57 40.5977ZM203.906 66.4375H204.906V66.2308L204.824 66.0411L203.906 66.4375ZM203.906 67V68H204.906V67H203.906ZM196.066 56.3477L196.966 56.7848L197.066 56.5778V56.3477H196.066ZM196.066 48.543H197.066V47.543H196.066V48.543ZM197.98 66.5528C197.69 65.9713 197.398 64.7892 197.165 62.8711L195.179 63.1132C195.414 65.0389 195.732 66.5287 196.192 67.4472L197.98 66.5528ZM195.451 62.2986C192.608 65.2521 189.256 66.7031 185.344 66.7031V68.7031C189.823 68.7031 193.689 67.0136 196.892 63.6857L195.451 62.2986ZM185.344 66.7031C181.792 66.7031 178.957 65.7098 176.756 63.786L175.44 65.2921C178.066 67.5871 181.395 68.7031 185.344 68.7031V66.7031ZM176.763 63.7929C174.589 61.8534 173.512 59.4314 173.512 56.4531H171.512C171.512 59.9904 172.825 62.9591 175.432 65.2853L176.763 63.7929ZM173.512 56.4531C173.512 52.7868 174.878 50.0282 177.6 48.0512L176.424 46.4332C173.145 48.8155 171.512 52.1976 171.512 56.4531H173.512ZM177.601 48.0504C180.391 46.0174 184.396 44.9375 189.738 44.9375V42.9375C184.159 42.9375 179.68 44.0607 176.423 46.434L177.601 48.0504ZM189.738 44.9375H196.066V42.9375H189.738V44.9375ZM197.066 43.9375V40.9492H195.066V43.9375H197.066ZM197.066 40.9492C197.066 38.4632 196.315 36.3816 194.728 34.8219L193.326 36.2484C194.458 37.3606 195.066 38.8884 195.066 40.9492H197.066ZM194.734 34.828C193.126 33.2195 190.827 32.4961 188.016 32.4961V34.4961C190.501 34.4961 192.21 35.1321 193.32 36.2423L194.734 34.828ZM188.016 32.4961C185.521 32.4961 183.355 33.1292 181.582 34.4525L182.778 36.0553C184.145 35.0349 185.87 34.4961 188.016 34.4961V32.4961ZM181.582 34.4525C179.809 35.7752 178.824 37.4697 178.824 39.5078H180.824C180.824 38.2178 181.41 37.0764 182.778 36.0553L181.582 34.4525ZM179.824 38.5078H173.285V40.5078H179.824V38.5078ZM174.285 39.5078C174.285 37.8623 174.859 36.2418 176.085 34.6285L174.493 33.4184C173.047 35.3207 172.285 37.3565 172.285 39.5078H174.285ZM176.084 34.6301C177.33 32.9969 179.019 31.6886 181.183 30.717L180.364 28.8924C177.934 29.9833 175.966 31.4875 174.494 33.4168L176.084 34.6301ZM181.18 30.7185C183.361 29.749 185.764 29.2578 188.402 29.2578V27.2578C185.509 27.2578 182.827 27.7979 180.367 28.8909L181.18 30.7185ZM188.402 29.2578C192.62 29.2578 195.79 30.3158 198.04 32.3107L199.367 30.8143C196.647 28.4029 192.95 27.2578 188.402 27.2578V29.2578ZM198.044 32.3142C200.283 34.2791 201.482 37.0076 201.571 40.622L203.57 40.5733C203.471 36.5002 202.092 33.2053 199.363 30.8108L198.044 32.3142ZM201.57 40.5977V58.1055H203.57V40.5977H201.57ZM201.57 58.1055C201.57 61.6664 202.022 64.5963 202.988 66.8339L204.824 66.0411C204.009 64.1537 203.57 61.5289 203.57 58.1055H201.57ZM202.906 66.4375V67H204.906V66.4375H202.906ZM203.906 66H197.086V68H203.906V66ZM186.293 63.043C188.514 63.043 190.619 62.4663 192.593 61.3271L191.594 59.5948C189.912 60.565 188.15 61.043 186.293 61.043V63.043ZM192.593 61.3271C194.572 60.1855 196.047 58.674 196.966 56.7848L195.167 55.9105C194.445 57.3963 193.271 58.627 191.594 59.5948L192.593 61.3271ZM197.066 56.3477V48.543H195.066V56.3477H197.066ZM196.066 47.543H190.969V49.543H196.066V47.543ZM190.969 47.543C186.92 47.543 183.719 48.1297 181.499 49.429C179.196 50.7766 178.016 52.8564 178.016 55.5391H180.016C180.016 53.5577 180.827 52.1394 182.509 51.155C184.274 50.1223 187.049 49.543 190.969 49.543V47.543ZM178.016 55.5391C178.016 57.8246 178.791 59.7169 180.409 61.0842L181.7 59.5564C180.6 58.6269 180.016 57.3316 180.016 55.5391H178.016ZM180.409 61.0842C181.983 62.414 183.973 63.043 186.293 63.043V61.043C184.347 61.043 182.845 60.5235 181.7 59.5564L180.409 61.0842ZM233.191 33.5312L233.978 34.1488L233.98 34.1463L233.191 33.5312ZM254.953 33.1797L254.17 33.801L255.759 35.8057L255.95 33.2545L254.953 33.1797ZM255.27 28.9609V27.9609H254.342L254.272 28.8861L255.27 28.9609ZM261.211 28.9609H262.211V27.9609H261.211V28.9609ZM256.816 77.7227L256.121 77.0041L256.118 77.0069L256.816 77.7227ZM231.012 75.4023L230.255 74.7482L229.753 75.3286L230.184 75.9636L231.012 75.4023ZM234.387 71.5L235.164 70.8708L234.412 69.942L233.63 70.8458L234.387 71.5ZM252 73.9961L251.293 73.289L251.288 73.2937L252 73.9961ZM254.672 63.2031H255.672V60.5236L253.916 62.548L254.672 63.2031ZM233.191 62.3242L232.397 62.9317L232.4 62.9349L233.191 62.3242ZM238.254 58.5273L237.44 59.1086L237.443 59.1123L238.254 58.5273ZM254.672 56.5938L255.561 57.0521L255.672 56.8364V56.5938H254.672ZM254.672 39.2266H255.672V38.9704L255.549 38.7457L254.672 39.2266ZM230.078 47.6641C230.078 41.8833 231.414 37.4138 233.978 34.1488L232.405 32.9137C229.484 36.6331 228.078 41.5854 228.078 47.6641H230.078ZM233.98 34.1463C236.529 30.8777 239.869 29.2578 244.09 29.2578V27.2578C239.264 27.2578 235.338 29.1535 232.403 32.9162L233.98 34.1463ZM244.09 29.2578C248.463 29.2578 251.78 30.787 254.17 33.801L255.737 32.5584C252.923 29.0099 248.998 27.2578 244.09 27.2578V29.2578ZM255.95 33.2545L256.267 29.0357L254.272 28.8861L253.956 33.1049L255.95 33.2545ZM255.27 29.9609H261.211V27.9609H255.27V29.9609ZM260.211 28.9609V66.0859H262.211V28.9609H260.211ZM260.211 66.0859C260.211 70.7972 258.817 74.3947 256.121 77.0041L257.512 78.4412C260.676 75.3787 262.211 71.2184 262.211 66.0859H260.211ZM256.118 77.0069C253.437 79.6233 249.794 80.9766 245.074 80.9766V82.9766C250.198 82.9766 254.384 81.4939 257.515 78.4384L256.118 77.0069ZM245.074 80.9766C242.479 80.9766 239.934 80.423 237.431 79.3056L236.616 81.1319C239.363 82.3582 242.185 82.9766 245.074 82.9766V80.9766ZM237.431 79.3056C234.947 78.1968 233.101 76.7018 231.839 74.8411L230.184 75.9636C231.688 78.181 233.85 79.897 236.616 81.1319L237.431 79.3056ZM231.768 76.0565L235.143 72.1542L233.63 70.8458L230.255 74.7482L231.768 76.0565ZM233.609 72.1292C236.567 75.7825 240.252 77.668 244.617 77.668V75.668C240.92 75.668 237.785 74.1082 235.164 70.8708L233.609 72.1292ZM244.617 77.668C247.974 77.668 250.719 76.7174 252.712 74.6985L251.288 73.2937C249.765 74.8373 247.588 75.668 244.617 75.668V77.668ZM252.707 74.7032C254.725 72.6852 255.672 69.8934 255.672 66.4727H253.672C253.672 69.5206 252.837 71.7445 251.293 73.289L252.707 74.7032ZM255.672 66.4727V63.2031H253.672V66.4727H255.672ZM253.916 62.548C251.531 65.2984 248.273 66.7031 244.02 66.7031V68.7031C248.766 68.7031 252.609 67.1079 255.427 63.8583L253.916 62.548ZM244.02 66.7031C239.883 66.7031 236.563 65.0588 233.983 61.7135L232.4 62.9349C235.351 66.7615 239.25 68.7031 244.02 68.7031V66.7031ZM233.986 61.7168C231.419 58.3597 230.078 53.7122 230.078 47.6641H228.078C228.078 53.9909 229.48 59.1168 232.397 62.9317L233.986 61.7168ZM234.617 48.4023C234.617 52.8157 235.52 56.4204 237.44 59.1086L239.068 57.9461C237.472 55.7124 236.617 52.5672 236.617 48.4023H234.617ZM237.443 59.1123C239.4 61.8262 242.171 63.1836 245.637 63.1836V61.1836C242.774 61.1836 240.623 60.1035 239.065 57.9424L237.443 59.1123ZM245.637 63.1836C247.843 63.1836 249.81 62.6806 251.498 61.6365C253.184 60.5932 254.532 59.0466 255.561 57.0521L253.783 56.1354C252.89 57.8674 251.771 59.1157 250.446 59.9357C249.121 60.7549 247.532 61.1836 245.637 61.1836V63.1836ZM255.672 56.5938V39.2266H253.672V56.5938H255.672ZM255.549 38.7457C254.484 36.8041 253.125 35.2999 251.456 34.2851C249.784 33.2691 247.856 32.7773 245.707 32.7773V34.7773C247.542 34.7773 249.1 35.1938 250.417 35.9942C251.736 36.7958 252.868 38.0162 253.795 39.7074L255.549 38.7457ZM245.707 32.7773C242.238 32.7773 239.457 34.1492 237.479 36.8824L239.099 38.0551C240.683 35.8664 242.848 34.7773 245.707 34.7773V32.7773ZM237.479 36.8824C235.521 39.5879 234.617 43.4784 234.617 48.4023H236.617C236.617 43.67 237.495 40.2715 239.099 38.0551L237.479 36.8824ZM271.512 37.5742L270.616 37.1298L270.613 37.1355L271.512 37.5742ZM277.629 30.6836L277.104 29.8322L277.101 29.8343L277.629 30.6836ZM299.145 33.6367L298.397 34.3011L298.4 34.3038L299.145 33.6367ZM301.816 58.3867L300.916 57.951L300.915 57.954L301.816 58.3867ZM295.734 65.2422L295.208 64.3921L295.204 64.3942L295.734 65.2422ZM274.113 62.3242L273.366 62.9886L273.368 62.9913L274.113 62.3242ZM278.789 58.5625L277.993 59.1683L277.997 59.1729L278.789 58.5625ZM294.539 58.5273L295.337 59.1297L295.34 59.1262L294.539 58.5273ZM294.469 37.5039L293.671 38.1074L293.677 38.1154L294.469 37.5039ZM270.332 47.6289C270.332 44.0352 271.032 40.8366 272.41 38.0129L270.613 37.1355C269.085 40.2649 268.332 43.7695 268.332 47.6289H270.332ZM272.408 38.0186C273.809 35.1939 275.726 33.0436 278.157 31.5329L277.101 29.8343C274.328 31.5579 272.168 34.0014 270.616 37.1298L272.408 38.0186ZM278.153 31.535C280.607 30.0234 283.411 29.2578 286.594 29.2578V27.2578C283.074 27.2578 279.901 28.1094 277.104 29.8322L278.153 31.535ZM286.594 29.2578C291.513 29.2578 295.416 30.947 298.397 34.3011L299.892 32.9724C296.498 29.1545 292.033 27.2578 286.594 27.2578V29.2578ZM298.4 34.3038C301.41 37.6656 302.961 42.1776 302.961 47.9453H304.961C304.961 41.8068 303.301 36.7797 299.89 32.9696L298.4 34.3038ZM302.961 47.9453V48.4023H304.961V47.9453H302.961ZM302.961 48.4023C302.961 51.9741 302.272 55.1502 300.916 57.951L302.716 58.8225C304.22 55.7169 304.961 52.2369 304.961 48.4023H302.961ZM300.915 57.954C299.587 60.7194 297.687 62.8564 295.208 64.3921L296.261 66.0923C299.079 64.3467 301.233 61.9134 302.718 58.8194L300.915 57.954ZM295.204 64.3942C292.755 65.9252 289.919 66.7031 286.664 66.7031V68.7031C290.253 68.7031 293.464 67.8404 296.264 66.0902L295.204 64.3942ZM286.664 66.7031C281.769 66.7031 277.865 65.0148 274.858 61.6571L273.368 62.9913C276.784 66.8055 281.246 68.7031 286.664 68.7031V66.7031ZM274.861 61.6599C271.871 58.2967 270.332 53.8063 270.332 48.0859H268.332C268.332 54.1781 269.98 59.1798 273.366 62.9886L274.861 61.6599ZM270.332 48.0859V47.6289H268.332V48.0859H270.332ZM274.871 48.4023C274.871 52.7713 275.879 56.3918 277.993 59.1683L279.585 57.9567C277.808 55.6238 276.871 52.4709 276.871 48.4023H274.871ZM277.997 59.1729C280.159 61.9782 283.079 63.3945 286.664 63.3945V61.3945C283.687 61.3945 281.357 60.2561 279.581 57.9521L277.997 59.1729ZM286.664 63.3945C290.274 63.3945 293.198 61.965 295.337 59.1297L293.741 57.925C291.99 60.2459 289.664 61.3945 286.664 61.3945V63.3945ZM295.34 59.1262C297.46 56.2909 298.457 52.4179 298.457 47.6289H296.457C296.457 52.168 295.509 55.5607 293.738 57.9285L295.34 59.1262ZM298.457 47.6289C298.457 43.2985 297.421 39.6896 295.26 36.8925L293.677 38.1154C295.5 40.4745 296.457 43.6156 296.457 47.6289H298.457ZM295.266 36.9005C293.107 34.0474 290.186 32.6016 286.594 32.6016V34.6016C289.564 34.6016 291.893 35.7573 293.671 38.1073L295.266 36.9005ZM286.594 32.6016C283.071 32.6016 280.189 34.0241 278.032 36.8232L279.616 38.044C281.397 35.7337 283.695 34.6016 286.594 34.6016V32.6016ZM278.032 36.8232C275.878 39.6186 274.871 43.5244 274.871 48.4023H276.871C276.871 43.7647 277.833 40.3579 279.616 38.044L278.032 36.8232ZM312.574 37.5742L311.678 37.1298L311.676 37.1355L312.574 37.5742ZM318.691 30.6836L318.167 29.8322L318.163 29.8343L318.691 30.6836ZM340.207 33.6367L339.46 34.3011L339.462 34.3038L340.207 33.6367ZM342.879 58.3867L341.979 57.951L341.977 57.954L342.879 58.3867ZM336.797 65.2422L336.27 64.3921L336.267 64.3942L336.797 65.2422ZM315.176 62.3242L314.428 62.9886L314.431 62.9913L315.176 62.3242ZM319.852 58.5625L319.056 59.1683L319.059 59.1729L319.852 58.5625ZM335.602 58.5273L336.4 59.1297L336.402 59.1262L335.602 58.5273ZM335.531 37.5039L334.734 38.1074L334.74 38.1154L335.531 37.5039ZM311.395 47.6289C311.395 44.0352 312.094 40.8366 313.473 38.0129L311.676 37.1355C310.148 40.2649 309.395 43.7695 309.395 47.6289H311.395ZM313.47 38.0186C314.871 35.1939 316.789 33.0436 319.219 31.5329L318.163 29.8343C315.391 31.5579 313.23 34.0014 311.678 37.1298L313.47 38.0186ZM319.216 31.535C321.67 30.0234 324.473 29.2578 327.656 29.2578V27.2578C324.136 27.2578 320.963 28.1094 318.167 29.8322L319.216 31.535ZM327.656 29.2578C332.576 29.2578 336.478 30.947 339.46 34.3011L340.954 32.9724C337.561 29.1545 333.096 27.2578 327.656 27.2578V29.2578ZM339.462 34.3038C342.472 37.6656 344.023 42.1776 344.023 47.9453H346.023C346.023 41.8068 344.364 36.7797 340.952 32.9696L339.462 34.3038ZM344.023 47.9453V48.4023H346.023V47.9453H344.023ZM344.023 48.4023C344.023 51.9741 343.335 55.1502 341.979 57.951L343.779 58.8225C345.282 55.7169 346.023 52.2369 346.023 48.4023H344.023ZM341.977 57.954C340.65 60.7194 338.749 62.8564 336.27 64.3921L337.323 66.0923C340.141 64.3467 342.295 61.9134 343.78 58.8194L341.977 57.954ZM336.267 64.3942C333.817 65.9252 330.981 66.7031 327.727 66.7031V68.7031C331.315 68.7031 334.526 67.8404 337.327 66.0902L336.267 64.3942ZM327.727 66.7031C322.832 66.7031 318.927 65.0148 315.921 61.6571L314.431 62.9913C317.846 66.8055 322.309 68.7031 327.727 68.7031V66.7031ZM315.923 61.6599C312.934 58.2967 311.395 53.8063 311.395 48.0859H309.395C309.395 54.1781 311.043 59.1798 314.428 62.9886L315.923 61.6599ZM311.395 48.0859V47.6289H309.395V48.0859H311.395ZM315.934 48.4023C315.934 52.7713 316.942 56.3918 319.056 59.1683L320.647 57.9567C318.871 55.6238 317.934 52.4709 317.934 48.4023H315.934ZM319.059 59.1729C321.221 61.9782 324.141 63.3945 327.727 63.3945V61.3945C324.749 61.3945 322.419 60.2561 320.644 57.9521L319.059 59.1729ZM327.727 63.3945C331.336 63.3945 334.26 61.965 336.4 59.1297L334.803 57.925C333.052 60.2459 330.726 61.3945 327.727 61.3945V63.3945ZM336.402 59.1262C338.523 56.2909 339.52 52.4179 339.52 47.6289H337.52C337.52 52.168 336.571 55.5607 334.801 57.9285L336.402 59.1262ZM339.52 47.6289C339.52 43.2985 338.484 39.6896 336.323 36.8925L334.74 38.1154C336.563 40.4745 337.52 43.6156 337.52 47.6289H339.52ZM336.329 36.9005C334.17 34.0474 331.249 32.6016 327.656 32.6016V34.6016C330.626 34.6016 332.955 35.7573 334.734 38.1073L336.329 36.9005ZM327.656 32.6016C324.134 32.6016 321.252 34.0241 319.095 36.8232L320.679 38.044C322.459 35.7337 324.757 34.6016 327.656 34.6016V32.6016ZM319.095 36.8232C316.94 39.6186 315.934 43.5244 315.934 48.4023H317.934C317.934 43.7647 318.896 40.3579 320.679 38.044L319.095 36.8232ZM355.746 33.6016L356.534 34.2173L356.536 34.2148L355.746 33.6016ZM377.191 32.8281L376.431 33.4775L378.191 35.5393V32.8281H377.191ZM377.191 13V12H376.191V13H377.191ZM383.695 13H384.695V12H383.695V13ZM383.695 67V68H384.695V67H383.695ZM377.719 67L376.722 67.0774L376.793 68H377.719V67ZM377.402 62.9219L378.399 62.8445L378.206 60.3554L376.628 62.2896L377.402 62.9219ZM355.746 62.2891L354.952 62.8973L354.955 62.9005L355.746 62.2891ZM377.191 56.6289L378.081 57.0851L378.191 56.8703V56.6289H377.191ZM377.191 39.1562H378.191V38.9025L378.07 38.6794L377.191 39.1562ZM352.598 47.6641C352.598 41.984 353.942 37.534 356.534 34.2173L354.958 32.9858C352.019 36.7472 350.598 41.6722 350.598 47.6641H352.598ZM356.536 34.2148C359.114 30.8942 362.444 29.2578 366.609 29.2578V27.2578C361.821 27.2578 357.91 29.184 354.956 32.9883L356.536 34.2148ZM366.609 29.2578C370.807 29.2578 374.042 30.6796 376.431 33.4775L377.952 32.1788C375.138 28.8829 371.318 27.2578 366.609 27.2578V29.2578ZM378.191 32.8281V13H376.191V32.8281H378.191ZM377.191 14H383.695V12H377.191V14ZM382.695 13V67H384.695V13H382.695ZM383.695 66H377.719V68H383.695V66ZM378.716 66.9226L378.399 62.8445L376.405 62.9992L376.722 67.0774L378.716 66.9226ZM376.628 62.2896C374.242 65.2128 370.923 66.7031 366.539 66.7031V68.7031C371.437 68.7031 375.36 67.006 378.177 63.5542L376.628 62.2896ZM366.539 66.7031C362.455 66.7031 359.145 65.052 356.537 61.6776L354.955 62.9005C357.925 66.7449 361.811 68.7031 366.539 68.7031V66.7031ZM356.54 61.6808C353.941 58.2894 352.598 53.8107 352.598 48.1562H350.598C350.598 54.1268 352.02 59.0699 354.952 62.8973L356.54 61.6808ZM352.598 48.1562V47.6641H350.598V48.1562H352.598ZM357.102 48.4023C357.102 52.8392 358.016 56.4492 359.966 59.1174L361.581 57.9373C359.968 55.7305 359.102 52.5905 359.102 48.4023H357.102ZM359.966 59.1174C361.944 61.8245 364.712 63.1836 368.156 63.1836V61.1836C365.32 61.1836 363.165 60.1052 361.581 57.9373L359.966 59.1174ZM368.156 63.1836C370.372 63.1836 372.344 62.6846 374.033 61.6468C375.72 60.6093 377.063 59.0704 378.081 57.0851L376.302 56.1727C375.421 57.8905 374.309 59.129 372.985 59.943C371.661 60.7568 370.065 61.1836 368.156 61.1836V63.1836ZM378.191 56.6289V39.1562H376.191V56.6289H378.191ZM378.07 38.6794C377.027 36.7564 375.678 35.2677 374.006 34.2646C372.333 33.261 370.395 32.7773 368.227 32.7773V34.7773C370.09 34.7773 371.661 35.1901 372.977 35.9796C374.293 36.7694 375.41 37.9702 376.312 39.6331L378.07 38.6794ZM368.227 32.7773C364.737 32.7773 361.943 34.147 359.963 36.8824L361.584 38.0551C363.166 35.8687 365.341 34.7773 368.227 34.7773V32.7773ZM359.963 36.8824C358.005 39.5879 357.102 43.4784 357.102 48.4023H359.102C359.102 43.67 359.979 40.2715 361.584 38.0551L359.963 36.8824ZM420.504 19.75H421.504V18.75H420.504V19.75ZM420.504 28.9609H419.504V29.9609H420.504V28.9609ZM427.605 28.9609H428.605V27.9609H427.605V28.9609ZM427.605 33.9883V34.9883H428.605V33.9883H427.605ZM420.504 33.9883V32.9883H419.504V33.9883H420.504ZM421.453 61.0234L420.679 61.6567L420.684 61.6625L420.689 61.6683L421.453 61.0234ZM427.781 61.7266H428.781V60.4896L427.572 60.7488L427.781 61.7266ZM427.781 67L428.045 67.9645L428.781 67.7629V67H427.781ZM414 33.9883H415V32.9883H414V33.9883ZM407.074 33.9883H406.074V34.9883H407.074V33.9883ZM407.074 28.9609V27.9609H406.074V28.9609H407.074ZM414 28.9609V29.9609H415V28.9609H414ZM414 19.75V18.75H413V19.75H414ZM419.504 19.75V28.9609H421.504V19.75H419.504ZM420.504 29.9609H427.605V27.9609H420.504V29.9609ZM426.605 28.9609V33.9883H428.605V28.9609H426.605ZM427.605 32.9883H420.504V34.9883H427.605V32.9883ZM419.504 33.9883V57.5781H421.504V33.9883H419.504ZM419.504 57.5781C419.504 59.2168 419.841 60.6319 420.679 61.6567L422.227 60.3902C421.8 59.8681 421.504 58.9863 421.504 57.5781H419.504ZM420.689 61.6683C421.596 62.7438 423.032 63.1484 424.688 63.1484V61.1484C423.296 61.1484 422.576 60.8031 422.217 60.3786L420.689 61.6683ZM424.688 63.1484C425.542 63.1484 426.654 62.9908 427.991 62.7044L427.572 60.7488C426.283 61.0249 425.333 61.1484 424.688 61.1484V63.1484ZM426.781 61.7266V67H428.781V61.7266H426.781ZM427.517 66.0355C425.884 66.483 424.309 66.7031 422.789 66.7031V68.7031C424.504 68.7031 426.257 68.4545 428.045 67.9645L427.517 66.0355ZM422.789 66.7031C420.093 66.7031 418.218 65.8969 416.981 64.4232L415.449 65.7096C417.164 67.7515 419.672 68.7031 422.789 68.7031V66.7031ZM416.981 64.4232C415.707 62.9069 415 60.6722 415 57.5781H413C413 60.9528 413.77 63.7103 415.449 65.7096L416.981 64.4232ZM415 57.5781V33.9883H413V57.5781H415ZM414 32.9883H407.074V34.9883H414V32.9883ZM408.074 33.9883V28.9609H406.074V33.9883H408.074ZM407.074 29.9609H414V27.9609H407.074V29.9609ZM415 28.9609V19.75H413V28.9609H415ZM414 20.75H420.504V18.75H414V20.75ZM442.301 67V68H443.301V67H442.301ZM435.797 67H434.797V68H435.797V67ZM435.797 28.9609V27.9609H434.797V28.9609H435.797ZM442.301 28.9609H443.301V27.9609H442.301V28.9609ZM436.219 16.1992L435.477 15.5289L435.471 15.5356L435.465 15.5424L436.219 16.1992ZM436.219 21.5078L435.475 22.1768L435.482 22.1835L435.488 22.1901L436.219 21.5078ZM442.301 66H435.797V68H442.301V66ZM436.797 67V28.9609H434.797V67H436.797ZM435.797 29.9609H442.301V27.9609H435.797V29.9609ZM441.301 28.9609V67H443.301V28.9609H441.301ZM436.27 18.8711C436.27 18.0332 436.514 17.3828 436.973 16.856L435.465 15.5424C434.658 16.4688 434.27 17.5996 434.27 18.8711H436.27ZM436.961 16.8695C437.376 16.4103 438.031 16.1094 439.102 16.1094V14.1094C437.641 14.1094 436.374 14.535 435.477 15.5289L436.961 16.8695ZM439.102 16.1094C440.172 16.1094 440.827 16.4103 441.242 16.8695L442.726 15.5289C441.829 14.535 440.562 14.1094 439.102 14.1094V16.1094ZM441.242 16.8695C441.719 17.3974 441.969 18.0432 441.969 18.8711H443.969C443.969 17.5896 443.562 16.4542 442.726 15.5289L441.242 16.8695ZM441.969 18.8711C441.969 19.6991 441.719 20.3261 441.253 20.8255L442.715 22.1901C443.562 21.2833 443.969 20.1525 443.969 18.8711H441.969ZM441.253 20.8255C440.841 21.2674 440.182 21.5625 439.102 21.5625V23.5625C440.552 23.5625 441.815 23.1545 442.715 22.1901L441.253 20.8255ZM439.102 21.5625C438.021 21.5625 437.362 21.2674 436.95 20.8255L435.488 22.1901C436.388 23.1545 437.651 23.5625 439.102 23.5625V21.5625ZM436.962 20.8388C436.514 20.3409 436.27 19.7093 436.27 18.8711H434.27C434.27 20.1422 434.658 21.2685 435.475 22.1768L436.962 20.8388ZM458.859 28.9609L459.859 28.9193L459.819 27.9609H458.859V28.9609ZM459.035 33.1797L458.036 33.2213L458.142 35.7741L459.797 33.8273L459.035 33.1797ZM481.184 34.375L480.279 34.8013L481.018 36.3704L482.006 34.9442L481.184 34.375ZM486.105 29.9453L485.622 29.0697L485.618 29.0721L486.105 29.9453ZM506.039 41.5117H507.039V41.5038L507.039 41.4958L506.039 41.5117ZM506.039 67V68H507.039V67H506.039ZM499.535 67H498.535V68H499.535V67ZM497.672 35.8164L496.934 36.491L496.94 36.4973L497.672 35.8164ZM485.402 35.957L486.07 36.7014L486.076 36.696L485.402 35.957ZM482.625 41.7578L481.631 41.6526L481.625 41.7051V41.7578H482.625ZM482.625 67V68H483.625V67H482.625ZM476.086 67H475.086V68H476.086V67ZM459.211 39.2266L458.293 38.8298L458.211 39.0197V39.2266H459.211ZM459.211 67V68H460.211V67H459.211ZM452.707 67H451.707V68H452.707V67ZM452.707 28.9609V27.9609H451.707V28.9609H452.707ZM457.86 29.0026L458.036 33.2213L460.034 33.1381L459.859 28.9193L457.86 29.0026ZM459.797 33.8273C462.376 30.7935 465.846 29.2578 470.32 29.2578V27.2578C465.325 27.2578 461.273 29.0033 458.273 32.532L459.797 33.8273ZM470.32 29.2578C472.856 29.2578 474.911 29.7437 476.536 30.6585C478.15 31.5674 479.399 32.9332 480.279 34.8013L482.088 33.9487C481.047 31.7387 479.524 30.0458 477.517 28.9158C475.52 27.7914 473.105 27.2578 470.32 27.2578V29.2578ZM482.006 34.9442C483.181 33.2465 484.705 31.872 486.593 30.8185L485.618 29.0721C483.474 30.2686 481.717 31.8473 480.361 33.8058L482.006 34.9442ZM486.589 30.8209C488.454 29.7916 490.684 29.2578 493.312 29.2578V27.2578C490.41 27.2578 487.835 27.8491 485.622 29.0697L486.589 30.8209ZM493.312 29.2578C497.314 29.2578 500.159 30.3143 502.031 32.2639C503.913 34.2238 504.971 37.2513 505.039 41.5276L507.039 41.4958C506.966 36.9362 505.834 33.3367 503.473 30.8787C501.103 28.4104 497.655 27.2578 493.312 27.2578V29.2578ZM505.039 41.5117V67H507.039V41.5117H505.039ZM506.039 66H499.535V68H506.039V66ZM500.535 67V41.8984H498.535V67H500.535ZM500.535 41.8984C500.535 39.0485 499.886 36.7294 498.404 35.1355L496.94 36.4973C497.942 37.5753 498.535 39.3109 498.535 41.8984H500.535ZM498.41 35.1418C496.891 33.4798 494.462 32.7773 491.414 32.7773V34.7773C494.225 34.7773 495.968 35.4343 496.934 36.491L498.41 35.1418ZM491.414 32.7773C488.783 32.7773 486.529 33.5766 484.729 35.2181L486.076 36.696C487.463 35.4312 489.217 34.7773 491.414 34.7773V32.7773ZM484.735 35.2126C482.93 36.8315 481.91 39.0071 481.631 41.6526L483.619 41.863C483.855 39.6335 484.687 37.9419 486.07 36.7014L484.735 35.2126ZM481.625 41.7578V67H483.625V41.7578H481.625ZM482.625 66H476.086V68H482.625V66ZM477.086 67V42.0742H475.086V67H477.086ZM477.086 42.0742C477.086 39.1598 476.373 36.7892 474.77 35.1521C473.164 33.5109 470.832 32.7773 467.965 32.7773V34.7773C470.512 34.7773 472.24 35.4266 473.341 36.5511C474.446 37.6795 475.086 39.4574 475.086 42.0742H477.086ZM467.965 32.7773C465.69 32.7773 463.7 33.2625 462.049 34.2907C460.392 35.3221 459.146 36.8557 458.293 38.8298L460.129 39.6233C460.846 37.9646 461.845 36.7736 463.106 35.9886C464.372 35.2004 465.974 34.7773 467.965 34.7773V32.7773ZM458.211 39.2266V67H460.211V39.2266H458.211ZM459.211 66H452.707V68H459.211V66ZM453.707 67V28.9609H451.707V67H453.707ZM452.707 29.9609H458.859V27.9609H452.707V29.9609ZM519.082 62.6406L518.358 63.33L518.36 63.3325L519.082 62.6406ZM516.375 37.75L515.476 37.3113L515.475 37.3143L516.375 37.75ZM522.422 30.7891L522.964 31.6292L522.966 31.628L522.422 30.7891ZM546.504 49.8438V50.8438H547.504V49.8438H546.504ZM520.734 49.8438V48.8438H519.709L519.735 49.8687L520.734 49.8438ZM524.004 58.9492L523.26 59.6178L523.267 59.6256L524.004 58.9492ZM542.039 57.2617L542.653 56.4727L541.862 55.856L541.248 56.6503L542.039 57.2617ZM546.012 60.3555L546.85 60.9009L547.351 60.1309L546.626 59.5665L546.012 60.3555ZM524.25 36.4844L524.979 37.1686L524.983 37.1641L524.25 36.4844ZM520.945 44.5L519.953 44.3785L519.815 45.5H520.945V44.5ZM540 44.5V45.5H541V44.5H540ZM540 44.0078H541V43.9795L540.998 43.9512L540 44.0078ZM537.328 36.3438L536.574 37.0009L536.579 37.0057L537.328 36.3438ZM531.668 66.7031C526.753 66.7031 522.829 65.1056 519.804 61.9487L518.36 63.3325C521.803 66.9257 526.27 68.7031 531.668 68.7031V66.7031ZM519.806 61.9512C516.785 58.7761 515.23 54.5072 515.23 49.0352H513.23C513.23 54.9069 514.911 59.7082 518.358 63.33L519.806 61.9512ZM515.23 49.0352V47.8398H513.23V49.0352H515.23ZM515.23 47.8398C515.23 44.1947 515.92 40.984 517.275 38.1857L515.475 37.3143C513.97 40.4222 513.23 43.9381 513.23 47.8398H515.23ZM517.274 38.1887C518.653 35.3624 520.551 33.1866 522.964 31.6292L521.88 29.9489C519.136 31.7196 517.003 34.1844 515.476 37.3113L517.274 38.1887ZM522.966 31.628C525.41 30.0428 528.034 29.2578 530.859 29.2578V27.2578C527.638 27.2578 524.637 28.1603 521.878 29.9501L522.966 31.628ZM530.859 29.2578C535.563 29.2578 539.105 30.794 541.626 33.7885L543.156 32.5006C540.192 28.9794 536.047 27.2578 530.859 27.2578V29.2578ZM541.626 33.7885C544.163 36.8028 545.504 41.2034 545.504 47.1367H547.504C547.504 40.9294 546.103 36.0019 543.156 32.5006L541.626 33.7885ZM545.504 47.1367V49.8438H547.504V47.1367H545.504ZM546.504 48.8438H520.734V50.8438H546.504V48.8438ZM519.735 49.8687C519.833 53.8066 520.984 57.0861 523.26 59.6178L524.748 58.2807C522.852 56.1717 521.823 53.3809 521.734 49.8188L519.735 49.8687ZM523.267 59.6256C525.574 62.1372 528.517 63.3945 532.02 63.3945V61.3945C529.053 61.3945 526.653 60.355 524.74 58.2728L523.267 59.6256ZM532.02 63.3945C534.452 63.3945 536.582 62.8976 538.362 61.8502L537.348 60.1263C535.942 60.954 534.181 61.3945 532.02 61.3945V63.3945ZM538.362 61.8502C540.072 60.8445 541.562 59.515 542.83 57.8732L541.248 56.6503C540.126 58.1021 538.826 59.2571 537.348 60.1263L538.362 61.8502ZM541.425 58.0507L545.397 61.1444L546.626 59.5665L542.653 56.4727L541.425 58.0507ZM545.174 59.8101C542.19 64.3957 537.741 66.7031 531.668 66.7031V68.7031C538.345 68.7031 543.459 66.1122 546.85 60.9009L545.174 59.8101ZM530.859 32.6016C527.957 32.6016 525.487 33.6781 523.517 35.8046L524.983 37.1641C526.575 35.4469 528.512 34.6016 530.859 34.6016V32.6016ZM523.521 35.8001C521.553 37.8977 520.392 40.7919 519.953 44.3785L521.938 44.6215C522.342 41.3174 523.385 38.8679 524.979 37.1686L523.521 35.8001ZM520.945 45.5H540V43.5H520.945V45.5ZM541 44.5V44.0078H539V44.5H541ZM540.998 43.9512C540.803 40.5054 539.867 37.7078 538.078 35.6818L536.579 37.0057C537.977 38.5891 538.822 40.9008 539.002 44.0645L540.998 43.9512ZM538.082 35.6866C536.274 33.6128 533.828 32.6016 530.859 32.6016V34.6016C533.328 34.6016 535.195 35.4184 536.574 37.0009L538.082 35.6866ZM555.188 60.7773L554.447 60.1058L554.441 60.1123L554.435 60.1188L555.188 60.7773ZM561.234 60.7773L560.493 61.4489L560.499 61.4551L560.505 61.4613L561.234 60.7773ZM561.234 66.2969L560.516 65.6015L560.51 65.6075L560.504 65.6137L561.234 66.2969ZM555.188 66.2969L554.445 66.9672L554.451 66.9736L554.457 66.98L555.188 66.2969ZM555.203 63.5898C555.203 62.6737 555.464 61.9799 555.94 61.4358L554.435 60.1188C553.598 61.0748 553.203 62.256 553.203 63.5898H555.203ZM555.928 61.4489C556.363 60.9694 557.062 60.6523 558.211 60.6523V58.6523C556.688 58.6523 555.371 59.0853 554.447 60.1058L555.928 61.4489ZM558.211 60.6523C559.36 60.6523 560.059 60.9694 560.493 61.4489L561.975 60.1058C561.05 59.0853 559.734 58.6523 558.211 58.6523V60.6523ZM560.505 61.4613C561.017 62.0077 561.289 62.6928 561.289 63.5898H563.289C563.289 62.2369 562.858 61.047 561.964 60.0934L560.505 61.4613ZM561.289 63.5898C561.289 64.4274 561.026 65.0746 560.516 65.6015L561.953 66.9923C562.849 66.066 563.289 64.9085 563.289 63.5898H561.289ZM560.504 65.6137C560.072 66.0758 559.369 66.3867 558.211 66.3867V68.3867C559.725 68.3867 561.038 67.971 561.965 66.98L560.504 65.6137ZM558.211 66.3867C557.053 66.3867 556.35 66.0758 555.918 65.6137L554.457 66.98C555.384 67.971 556.697 68.3867 558.211 68.3867V66.3867ZM555.93 65.6266C555.457 65.103 555.203 64.4474 555.203 63.5898H553.203C553.203 64.8885 553.606 66.0376 554.445 66.9672L555.93 65.6266Z" fill="#111111"/>
</svg>
