<svg width="1600" height="2658" viewBox="0 0 1600 2658" fill="none" xmlns="http://www.w3.org/2000/svg">
<mask id="mask0" mask-type="alpha" maskUnits="userSpaceOnUse" x="0" y="1457" width="1600" height="1201">
<rect y="1457" width="1600" height="1201" fill="#C4C4C4"/>
</mask>
<g mask="url(#mask0)">
<g clip-path="url(#clip0)">
<rect y="1457" width="1600" height="1200" fill="#8991DC"/>
<mask id="mask1" mask-type="alpha" maskUnits="userSpaceOnUse" x="0" y="1457" width="1600" height="1200">
<rect y="1457" width="1600" height="1200" fill="#FBF4E2"/>
</mask>
<g mask="url(#mask1)">
<path fill-rule="evenodd" clip-rule="evenodd" d="M1508.4 1955.63C1497.02 1955.63 1487.78 1946.39 1487.78 1935C1487.78 1923.61 1497.02 1914.37 1508.4 1914.37C1519.79 1914.37 1529.02 1923.61 1529.02 1935C1529.02 1946.39 1519.79 1955.63 1508.4 1955.63Z" fill="#463C74"/>
<path fill-rule="evenodd" clip-rule="evenodd" d="M243.938 2636.96C243.938 2625.57 253.171 2616.33 264.56 2616.33H388.296C399.685 2616.33 408.919 2625.57 408.919 2636.96C408.919 2648.35 399.685 2657.59 388.296 2657.59H264.56C253.171 2657.59 243.938 2648.35 243.938 2636.96Z" fill="#FFC735"/>
<path d="M448.164 2122.13C448.164 2162.86 415.203 2195.87 374.548 2195.87V2199.87C417.418 2199.87 452.164 2165.06 452.164 2122.13H448.164ZM374.548 2195.87H237.063V2199.87H374.548V2195.87ZM237.063 2195.87C196.409 2195.87 163.447 2162.86 163.447 2122.13H159.447C159.447 2165.06 194.193 2199.87 237.063 2199.87V2195.87ZM163.447 2122.13C163.447 2081.4 196.409 2048.39 237.063 2048.39V2044.39C194.193 2044.39 159.447 2079.2 159.447 2122.13H163.447ZM237.063 2048.39H374.548V2044.39H237.063V2048.39ZM374.548 2048.39C415.203 2048.39 448.164 2081.4 448.164 2122.13H452.164C452.164 2079.2 417.418 2044.39 374.548 2044.39V2048.39ZM374.548 2158.56C394.638 2158.56 410.919 2142.24 410.919 2122.13H406.919C406.919 2140.04 392.423 2154.56 374.548 2154.56V2158.56ZM410.919 2122.13C410.919 2102.02 394.638 2085.7 374.548 2085.7V2089.7C392.423 2089.7 406.919 2104.22 406.919 2122.13H410.919ZM374.548 2085.7H237.063V2089.7H374.548V2085.7ZM237.063 2085.7C216.973 2085.7 200.692 2102.02 200.692 2122.13H204.692C204.692 2104.22 219.188 2089.7 237.063 2089.7V2085.7ZM200.692 2122.13C200.692 2142.24 216.973 2158.56 237.063 2158.56V2154.56C219.188 2154.56 204.692 2140.04 204.692 2122.13H200.692ZM237.063 2158.56H374.548V2154.56H237.063V2158.56Z" fill="#E53855"/>
<path fill-rule="evenodd" clip-rule="evenodd" d="M83.6699 2548.55C83.6699 2559.95 92.9057 2569.18 104.299 2569.18H168.248C189.922 2569.18 209.467 2560.07 223.258 2545.46C237.049 2560.07 256.594 2569.18 278.268 2569.18H341.529C383.304 2569.18 417.168 2535.32 417.168 2493.54C417.168 2482.15 407.932 2472.92 396.539 2472.92C385.147 2472.92 375.911 2482.15 375.911 2493.54C375.911 2512.53 360.517 2527.93 341.529 2527.93H278.268C259.28 2527.93 243.887 2512.53 243.887 2493.54V2354.64C243.887 2313.63 210.637 2280.38 169.623 2280.38V2321.64C187.852 2321.64 202.629 2336.42 202.629 2354.64V2493.54C202.629 2512.53 187.236 2527.93 168.248 2527.93H104.299C92.9057 2527.93 83.6699 2537.16 83.6699 2548.55Z" fill="#E53855"/>
<path d="M351.47 2382.29C370.477 2382.29 385.886 2366.88 385.886 2347.87C385.886 2328.85 370.477 2313.44 351.47 2313.44C332.463 2313.44 317.054 2328.85 317.054 2347.87C317.054 2359.27 307.809 2368.52 296.405 2368.52C285.001 2368.52 275.755 2359.27 275.755 2347.87C275.755 2306.04 309.654 2272.13 351.47 2272.13C393.287 2272.13 427.185 2306.04 427.185 2347.87C427.185 2389.69 393.287 2423.6 351.47 2423.6C340.066 2423.6 330.821 2414.35 330.821 2402.95C330.821 2391.54 340.066 2382.29 351.47 2382.29Z" fill="#E5E0D5"/>
<path d="M302.921 2101.8C328.306 2101.8 348.716 2081.39 348.716 2056.41C348.716 2031.44 328.306 2011.03 302.921 2011.03C288.897 2011.03 276.384 2017.25 267.964 2027.09C260.552 2035.76 247.503 2036.79 238.818 2029.39C230.133 2022 229.1 2008.98 236.513 2000.31C252.478 1981.64 276.326 1969.77 302.921 1969.77C350.957 1969.77 390.064 2008.47 390.064 2056.41C390.064 2104.35 350.957 2143.05 302.921 2143.05C291.504 2143.05 282.247 2133.82 282.247 2122.42C282.247 2111.03 291.504 2101.8 302.921 2101.8Z" fill="#E5E0D5"/>
<path fill-rule="evenodd" clip-rule="evenodd" d="M169.696 2321.64C158.307 2321.64 149.073 2312.4 149.073 2301.01C149.073 2289.62 158.307 2280.38 169.696 2280.38C181.085 2280.38 190.319 2289.62 190.319 2301.01C190.319 2312.4 181.085 2321.64 169.696 2321.64Z" stroke="#257AD6" stroke-width="5" stroke-linecap="round"/>
<path fill-rule="evenodd" clip-rule="evenodd" d="M110.72 2387.94C110.72 2368.93 95.3118 2353.52 76.3045 2353.52C57.2973 2353.52 41.8888 2368.93 41.8888 2387.94C41.8888 2406.96 57.2973 2422.37 76.3045 2422.37C95.3118 2422.37 110.72 2406.96 110.72 2387.94ZM76.3045 2312.21C118.121 2312.21 152.019 2346.12 152.019 2387.94C152.019 2429.77 118.121 2463.68 76.3045 2463.68C34.4884 2463.68 0.589842 2429.77 0.589844 2387.94C0.589846 2346.12 34.4884 2312.21 76.3045 2312.21Z" fill="#FFC735"/>
<path d="M139.646 2210.29C116.162 2210.29 97.1253 2229.39 97.1253 2252.96V2332.81C97.1253 2344.22 87.9139 2353.46 76.5509 2353.46C65.188 2353.46 55.9766 2344.22 55.9766 2332.81V2252.96C55.9766 2206.58 93.4365 2168.98 139.646 2168.98V2210.29Z" fill="#E5E0D5"/>
<path fill-rule="evenodd" clip-rule="evenodd" d="M76.5992 2353.46C65.2096 2353.46 55.9766 2344.23 55.9766 2332.84C55.9766 2321.44 65.2096 2312.21 76.5992 2312.21C87.9889 2312.21 97.2219 2321.44 97.2219 2332.84C97.2219 2344.23 87.9889 2353.46 76.5992 2353.46Z" stroke="#257AD6" stroke-width="5" stroke-linecap="round"/>
<path fill-rule="evenodd" clip-rule="evenodd" d="M76.0099 2408.28C64.6203 2408.28 55.3872 2399.04 55.3872 2387.65C55.3872 2376.26 64.6203 2367.02 76.0099 2367.02C87.3995 2367.02 96.6326 2376.26 96.6326 2387.65C96.6326 2399.04 87.3995 2408.28 76.0099 2408.28Z" stroke="#257AD6" stroke-width="5" stroke-linecap="round"/>
<path fill-rule="evenodd" clip-rule="evenodd" d="M80.1784 1996.24C99.2118 1995.99 114.441 1980.38 114.193 1961.37C113.946 1942.36 98.3153 1927.15 79.282 1927.39C67.8619 1927.54 58.4838 1918.42 58.3353 1907.01C58.1867 1895.6 67.324 1886.23 78.744 1886.08C120.617 1885.54 155.004 1919.01 155.548 1960.83C156.093 2002.66 122.59 2037.01 80.7163 2037.55C69.2963 2037.7 59.9181 2028.57 59.7695 2017.16C59.621 2005.76 68.7583 1996.39 80.1784 1996.24Z" fill="#FFC735"/>
<path fill-rule="evenodd" clip-rule="evenodd" d="M180.639 2144.26C161.621 2144.26 146.204 2159.66 146.204 2178.67C146.204 2197.67 161.621 2213.07 180.639 2213.07C255.949 2213.07 317.001 2274.07 317.001 2349.32C317.001 2360.72 307.75 2369.97 296.34 2369.97C284.93 2369.97 275.679 2360.72 275.679 2349.32C275.679 2296.88 233.128 2254.36 180.639 2254.36C138.799 2254.36 104.882 2220.47 104.882 2178.67C104.882 2136.86 138.799 2102.97 180.639 2102.97C192.049 2102.97 201.3 2112.22 201.3 2123.62C201.3 2135.02 192.049 2144.26 180.639 2144.26Z" fill="#FFC735"/>
<path fill-rule="evenodd" clip-rule="evenodd" d="M486.053 2493.78C486.053 2474.83 470.644 2459.47 451.637 2459.47C432.63 2459.47 417.221 2474.83 417.221 2493.78C417.221 2505.15 407.976 2514.37 396.572 2514.37C385.168 2514.37 375.922 2505.15 375.922 2493.78C375.922 2452.09 409.821 2418.3 451.637 2418.3C493.454 2418.3 527.352 2452.09 527.352 2493.78C527.352 2505.15 518.106 2514.37 506.702 2514.37C495.298 2514.37 486.053 2505.15 486.053 2493.78Z" fill="#463C74"/>
<path d="M450.164 2126.55C450.164 2178.96 492.636 2221.44 545.029 2221.44C556.418 2221.44 565.651 2230.68 565.651 2242.07C565.651 2253.46 556.418 2262.7 545.029 2262.7C469.858 2262.7 408.919 2201.74 408.919 2126.55C408.919 2115.16 418.152 2105.92 429.542 2105.92C440.931 2105.92 450.164 2115.16 450.164 2126.55Z" fill="#E5E0D5"/>
<path fill-rule="evenodd" clip-rule="evenodd" d="M1067.03 1636.74C1067.03 1566.79 1010.34 1510.09 940.416 1510.09C929.015 1510.09 919.772 1500.84 919.772 1489.44C919.772 1478.03 929.015 1468.79 940.416 1468.79C1033.15 1468.79 1108.32 1543.99 1108.32 1636.74C1108.32 1648.15 1099.08 1657.39 1087.68 1657.39C1076.28 1657.39 1067.03 1648.15 1067.03 1636.74Z" fill="#E53855"/>
<path fill-rule="evenodd" clip-rule="evenodd" d="M423.06 2028.71C423.06 1974.02 378.742 1929.69 324.071 1929.69C312.682 1929.69 303.449 1920.46 303.449 1909.06C303.449 1897.67 312.682 1888.44 324.071 1888.44C401.521 1888.44 464.306 1951.24 464.306 2028.71C464.306 2040.1 455.072 2049.34 443.683 2049.34C432.294 2049.34 423.06 2040.1 423.06 2028.71Z" fill="#FFC735"/>
<path fill-rule="evenodd" clip-rule="evenodd" d="M59.5135 2017.19C59.3654 2005.8 68.4776 1996.44 79.8662 1996.29C91.2549 1996.15 100.607 2005.26 100.755 2016.65C100.903 2028.05 91.7912 2037.4 80.4026 2037.55C69.0141 2037.7 59.6617 2028.58 59.5135 2017.19Z" stroke="#257AD6" stroke-width="5" stroke-linecap="round"/>
<path fill-rule="evenodd" clip-rule="evenodd" d="M296.378 2369.97C284.989 2369.97 275.755 2360.73 275.755 2349.34C275.755 2337.95 284.989 2328.71 296.378 2328.71C307.767 2328.71 317.001 2337.95 317.001 2349.34C317.001 2360.73 307.767 2369.97 296.378 2369.97Z" stroke="#257AD6" stroke-width="5" stroke-linecap="round"/>
<path fill-rule="evenodd" clip-rule="evenodd" d="M396.545 2514.37C385.156 2514.37 375.922 2505.13 375.922 2493.74C375.922 2482.35 385.156 2473.11 396.545 2473.11C407.934 2473.11 417.168 2482.35 417.168 2493.74C417.168 2505.13 407.934 2514.37 396.545 2514.37Z" stroke="#257AD6" stroke-width="5" stroke-linecap="round"/>
<path fill-rule="evenodd" clip-rule="evenodd" d="M103.703 2569.18C92.3136 2569.18 83.0806 2559.95 83.0806 2548.55C83.0806 2537.16 92.3136 2527.92 103.703 2527.92C115.093 2527.92 124.326 2537.16 124.326 2548.55C124.326 2559.95 115.093 2569.18 103.703 2569.18Z" stroke="#257AD6" stroke-width="5" stroke-linecap="round"/>
<path fill-rule="evenodd" clip-rule="evenodd" d="M296.378 2424.78C284.989 2424.78 275.755 2415.54 275.755 2404.15C275.755 2392.76 284.989 2383.52 296.378 2383.52C307.767 2383.52 317.001 2392.76 317.001 2404.15C317.001 2415.54 307.767 2424.78 296.378 2424.78Z" fill="#463C74"/>
<path fill-rule="evenodd" clip-rule="evenodd" d="M296.378 2480.18C284.989 2480.18 275.755 2470.95 275.755 2459.55C275.755 2448.16 284.989 2438.93 296.378 2438.93C307.767 2438.93 317.001 2448.16 317.001 2459.55C317.001 2470.95 307.767 2480.18 296.378 2480.18Z" fill="#463C74"/>
<path fill-rule="evenodd" clip-rule="evenodd" d="M451.932 2521.44C440.543 2521.44 431.309 2512.2 431.309 2500.81C431.309 2489.42 440.543 2480.18 451.932 2480.18C463.321 2480.18 472.554 2489.42 472.554 2500.81C472.554 2512.2 463.321 2521.44 451.932 2521.44Z" stroke="#257AD6" stroke-width="5" stroke-linecap="round"/>
<path fill-rule="evenodd" clip-rule="evenodd" d="M451.932 2576.25C440.543 2576.25 431.309 2567.02 431.309 2555.63C431.309 2544.23 440.543 2535 451.932 2535C463.321 2535 472.554 2544.23 472.554 2555.63C472.554 2567.02 463.321 2576.25 451.932 2576.25Z" stroke="#257AD6" stroke-width="5" stroke-linecap="round"/>
<path fill-rule="evenodd" clip-rule="evenodd" d="M429.542 2147.18C418.152 2147.18 408.919 2137.94 408.919 2126.55C408.919 2115.16 418.152 2105.92 429.542 2105.92C440.931 2105.92 450.164 2115.16 450.164 2126.55C450.164 2137.94 440.931 2147.18 429.542 2147.18Z" stroke="#257AD6" stroke-width="5" stroke-linecap="round"/>
<path fill-rule="evenodd" clip-rule="evenodd" d="M182.069 2144.23C170.68 2144.23 161.447 2134.99 161.447 2123.6C161.447 2112.21 170.68 2102.97 182.069 2102.97C193.459 2102.97 202.692 2112.21 202.692 2123.6C202.692 2134.99 193.459 2144.23 182.069 2144.23Z" stroke="#257AD6" stroke-width="5" stroke-linecap="round"/>
<path fill-rule="evenodd" clip-rule="evenodd" d="M578.561 2119.77C578.561 2100.76 563.152 2085.35 544.145 2085.35C525.136 2085.35 509.729 2100.76 509.729 2119.77C509.729 2138.78 525.136 2154.2 544.145 2154.2C563.152 2154.2 578.561 2138.78 578.561 2119.77ZM544.145 2044.04C585.96 2044.04 619.86 2077.94 619.86 2119.77C619.86 2161.6 585.96 2195.51 544.145 2195.51C502.328 2195.51 468.43 2161.6 468.43 2119.77C468.43 2077.94 502.328 2044.04 544.145 2044.04Z" fill="#FFC735"/>
<path d="M677.603 1954.58C677.603 1943.18 668.358 1933.94 656.954 1933.94C637.947 1933.94 622.539 1918.54 622.539 1899.54V1761.95C622.539 1742.95 637.947 1727.55 656.954 1727.55C668.358 1727.55 677.603 1718.31 677.603 1706.91C677.603 1695.51 668.358 1686.27 656.954 1686.27C615.139 1686.27 581.242 1720.15 581.242 1761.95V1899.54C581.242 1901.24 581.297 1902.92 581.407 1904.58C547.041 1915.1 522.049 1947.05 522.049 1984.85V2064.65C522.049 2076.05 531.294 2085.29 542.698 2085.29C554.101 2085.29 563.346 2076.05 563.346 2064.65V1984.85C563.346 1964.98 576.944 1948.28 595.346 1943.54C609.082 1962.72 631.557 1975.22 656.954 1975.22C668.358 1975.22 677.603 1965.98 677.603 1954.58Z" fill="#E5E0D5"/>
<path fill-rule="evenodd" clip-rule="evenodd" d="M656.685 1975.13C637.677 1975.13 622.27 1990.54 622.27 2009.56C622.27 2028.57 637.677 2043.98 656.685 2043.98C675.693 2043.98 691.101 2028.57 691.101 2009.56C691.101 1998.15 700.345 1988.9 711.751 1988.9C723.155 1988.9 732.4 1998.15 732.4 2009.56C732.4 2051.38 698.501 2085.29 656.685 2085.29C614.869 2085.29 580.971 2051.38 580.971 2009.56C580.971 1967.73 614.869 1933.82 656.685 1933.82C668.089 1933.82 677.335 1943.07 677.335 1954.47C677.335 1965.88 668.089 1975.13 656.685 1975.13Z" fill="#463C74"/>
<path d="M1153.75 2113.88C1153.75 2094.86 1169.15 2079.45 1188.16 2079.45C1207.17 2079.45 1222.58 2094.86 1222.58 2113.88C1222.58 2132.89 1207.17 2148.3 1188.16 2148.3C1176.76 2148.3 1167.51 2157.55 1167.51 2168.96C1167.51 2180.37 1176.76 2189.61 1188.16 2189.61C1229.98 2189.61 1263.88 2155.71 1263.88 2113.88C1263.88 2072.05 1229.98 2038.14 1188.16 2038.14C1146.34 2038.14 1112.45 2072.05 1112.45 2113.88C1112.45 2125.28 1121.69 2134.53 1133.1 2134.53C1144.5 2134.53 1153.75 2125.28 1153.75 2113.88Z" fill="#E5E0D5"/>
<path fill-rule="evenodd" clip-rule="evenodd" d="M656.98 1975.08C645.59 1975.08 636.357 1965.84 636.357 1954.45C636.357 1943.05 645.59 1933.82 656.98 1933.82C668.369 1933.82 677.603 1943.05 677.603 1954.45C677.603 1965.84 668.369 1975.08 656.98 1975.08Z" stroke="#257AD6" stroke-width="5" stroke-linecap="round"/>
<path fill-rule="evenodd" clip-rule="evenodd" d="M656.98 1727.53C645.59 1727.53 636.357 1718.29 636.357 1706.9C636.357 1695.51 645.59 1686.27 656.98 1686.27C668.369 1686.27 677.603 1695.51 677.603 1706.9C677.603 1718.29 668.369 1727.53 656.98 1727.53Z" stroke="#257AD6" stroke-width="5" stroke-linecap="round"/>
<path fill-rule="evenodd" clip-rule="evenodd" d="M542.672 2085.29C531.282 2085.29 522.049 2076.06 522.049 2064.66C522.049 2053.27 531.282 2044.04 542.672 2044.04C554.061 2044.04 563.294 2053.27 563.294 2064.66C563.294 2076.06 554.061 2085.29 542.672 2085.29Z" stroke="#257AD6" stroke-width="5" stroke-linecap="round"/>
<path fill-rule="evenodd" clip-rule="evenodd" d="M543.85 2140.11C532.461 2140.11 523.228 2130.87 523.228 2119.48C523.228 2108.08 532.461 2098.85 543.85 2098.85C555.239 2098.85 564.473 2108.08 564.473 2119.48C564.473 2130.87 555.239 2140.11 543.85 2140.11Z" fill="#463C74"/>
<path fill-rule="evenodd" clip-rule="evenodd" d="M1409.83 1936.52C1409.83 1978.32 1375.93 2012.21 1334.1 2012.21H1196.42C1154.6 2012.21 1120.7 1978.32 1120.7 1936.52C1120.7 1894.72 1154.6 1860.83 1196.42 1860.83H1240.48V1817.48C1240.48 1775.68 1274.38 1741.79 1316.21 1741.79H1453.89C1472.9 1741.79 1488.31 1726.39 1488.31 1707.39V1644.09C1488.31 1625.08 1472.9 1609.68 1453.89 1609.68C1442.49 1609.68 1433.24 1600.44 1433.24 1589.04C1433.24 1577.64 1442.49 1568.4 1453.89 1568.4C1495.72 1568.4 1529.61 1602.28 1529.61 1644.09V1707.39C1529.61 1729.08 1520.49 1748.64 1505.86 1762.43C1520.49 1776.24 1529.61 1795.79 1529.61 1817.48V1879.41C1529.61 1890.81 1520.36 1900.05 1508.96 1900.05C1497.56 1900.05 1488.31 1890.81 1488.31 1879.41V1817.48C1488.31 1798.48 1472.9 1783.08 1453.89 1783.08H1316.21C1297.2 1783.08 1281.78 1798.48 1281.78 1817.48V1860.83H1334.1C1375.93 1860.83 1409.83 1894.72 1409.83 1936.52ZM1196.42 1902.12C1177.41 1902.12 1162 1917.52 1162 1936.52C1162 1955.52 1177.41 1970.92 1196.42 1970.92H1334.1C1353.11 1970.92 1368.53 1955.52 1368.53 1936.52C1368.53 1917.52 1353.11 1902.12 1334.1 1902.12H1196.42Z" fill="#E53855"/>
<path fill-rule="evenodd" clip-rule="evenodd" d="M1100.75 1738.29C1124.24 1747.84 1150.84 1736.63 1160.28 1713.53C1169.71 1690.42 1158.54 1663.85 1135.05 1654.3C1122.08 1649.02 1108.15 1650.06 1096.64 1656.01C1086.51 1661.24 1074.04 1657.28 1068.8 1647.17C1063.56 1637.05 1067.53 1624.62 1077.66 1619.39C1099.49 1608.12 1126.04 1606.11 1150.65 1616.12C1195.09 1634.19 1216.65 1684.72 1198.53 1729.08C1180.41 1773.45 1129.61 1794.54 1085.16 1776.47C1074.6 1772.17 1069.52 1760.14 1073.83 1749.6C1078.13 1739.05 1090.19 1733.99 1100.75 1738.29Z" fill="#FFC735"/>
<path fill-rule="evenodd" clip-rule="evenodd" d="M1409.41 1940.89C1409.41 1993.3 1451.88 2035.78 1504.28 2035.78C1515.66 2035.78 1524.9 2045.02 1524.9 2056.41C1524.9 2067.8 1515.66 2077.04 1504.28 2077.04C1429.1 2077.04 1368.17 2016.08 1368.17 1940.89C1368.17 1929.5 1377.41 1920.26 1388.79 1920.26C1400.17 1920.26 1409.41 1929.5 1409.41 1940.89Z" fill="#FFC735"/>
<path fill-rule="evenodd" clip-rule="evenodd" d="M1388.79 1960.34C1377.41 1960.34 1368.17 1951.11 1368.17 1939.71C1368.17 1928.32 1377.41 1919.08 1388.79 1919.08C1400.17 1919.08 1409.41 1928.32 1409.41 1939.71C1409.41 1951.11 1400.17 1960.34 1388.79 1960.34Z" stroke="#257AD6" stroke-width="5" stroke-linecap="round"/>
<path fill-rule="evenodd" clip-rule="evenodd" d="M636.304 1857.83C636.304 1838.88 620.895 1823.52 601.888 1823.52C582.88 1823.52 567.472 1838.88 567.472 1857.83C567.472 1869.2 558.227 1878.41 546.823 1878.41C535.417 1878.41 526.173 1869.2 526.173 1857.83C526.173 1816.14 560.071 1782.34 601.888 1782.34C643.703 1782.34 677.603 1816.14 677.603 1857.83C677.603 1869.2 668.357 1878.41 656.953 1878.41C645.548 1878.41 636.304 1869.2 636.304 1857.83Z" fill="#FFC735"/>
<path fill-rule="evenodd" clip-rule="evenodd" d="M975.105 1900.86C975.105 1881.91 959.696 1866.54 940.689 1866.54C921.682 1866.54 906.274 1881.91 906.274 1900.86C906.274 1912.22 897.028 1921.44 885.624 1921.44C874.22 1921.44 864.975 1912.22 864.975 1900.86C864.975 1859.17 898.873 1825.37 940.689 1825.37C982.506 1825.37 1016.4 1859.17 1016.4 1900.86C1016.4 1912.22 1007.16 1921.44 995.755 1921.44C984.351 1921.44 975.105 1912.22 975.105 1900.86Z" fill="#463C74"/>
<path d="M456.056 2615.15C508.449 2615.15 550.921 2572.67 550.921 2520.26C550.921 2508.87 560.154 2499.63 571.543 2499.63C582.932 2499.63 592.166 2508.87 592.166 2520.26C592.166 2595.46 531.227 2656.41 456.056 2656.41C444.667 2656.41 435.434 2647.18 435.434 2635.78C435.434 2624.39 444.667 2615.15 456.056 2615.15Z" fill="#E5E0D5"/>
<path fill-rule="evenodd" clip-rule="evenodd" d="M665.253 2127.68C726.067 2127.68 775.366 2078.37 775.366 2017.54C775.366 2006.13 784.61 1996.88 796.012 1996.88C807.414 1996.88 816.658 2006.13 816.658 2017.54C816.658 2101.18 748.871 2168.98 665.253 2168.98C653.85 2168.98 644.606 2159.74 644.606 2148.33C644.606 2136.93 653.85 2127.68 665.253 2127.68Z" fill="#E53855"/>
<path fill-rule="evenodd" clip-rule="evenodd" d="M801.339 1748.16C789.95 1748.16 780.716 1738.92 780.716 1727.53C780.716 1716.14 789.95 1706.9 801.339 1706.9C812.728 1706.9 821.962 1716.14 821.962 1727.53C821.962 1738.92 812.728 1748.16 801.339 1748.16Z" stroke="#257AD6" stroke-width="5" stroke-linecap="round"/>
<path fill-rule="evenodd" clip-rule="evenodd" d="M1114.8 2170.16C1114.8 2181.56 1124.04 2190.79 1135.43 2190.79C1146.82 2190.79 1156.05 2181.56 1156.05 2170.16C1156.05 2158.77 1146.82 2149.54 1135.43 2149.54C1124.04 2149.54 1114.8 2158.77 1114.8 2170.16Z" stroke="#257AD6" stroke-width="5" stroke-linecap="round"/>
<path fill-rule="evenodd" clip-rule="evenodd" d="M1060.01 2170.16C1060.01 2181.56 1069.24 2190.79 1080.63 2190.79C1092.02 2190.79 1101.25 2181.56 1101.25 2170.16C1101.25 2158.77 1092.02 2149.54 1080.63 2149.54C1069.24 2149.54 1060.01 2158.77 1060.01 2170.16Z" stroke="#257AD6" stroke-width="5" stroke-linecap="round"/>
<path d="M1485.54 2388.27C1485.54 2346.55 1519.49 2312.74 1561.37 2312.74C1572.79 2312.74 1582.06 2303.51 1582.06 2292.14C1582.06 2280.76 1572.79 2271.54 1561.37 2271.54C1496.65 2271.54 1444.18 2323.8 1444.18 2388.27C1444.18 2399.64 1453.44 2408.87 1464.86 2408.87C1476.28 2408.87 1485.54 2399.64 1485.54 2388.27Z" fill="#E5E0D5"/>
<path fill-rule="evenodd" clip-rule="evenodd" d="M1485.42 2388.24C1485.42 2376.84 1476.18 2367.61 1464.8 2367.61C1453.42 2367.61 1444.18 2376.84 1444.18 2388.24C1444.18 2399.63 1453.42 2408.87 1464.8 2408.87C1476.18 2408.87 1485.42 2399.63 1485.42 2388.24Z" stroke="#257AD6" stroke-width="5" stroke-linecap="round"/>
<path fill-rule="evenodd" clip-rule="evenodd" d="M1280.08 2546.25C1261.07 2546.25 1245.66 2561.66 1245.66 2580.67C1245.66 2599.69 1261.07 2615.1 1280.08 2615.1C1299.09 2615.1 1314.5 2599.69 1314.5 2580.67C1314.5 2561.66 1299.09 2546.25 1280.08 2546.25ZM1204.37 2580.67C1204.37 2538.85 1238.26 2504.94 1280.08 2504.94C1321.9 2504.94 1355.79 2538.85 1355.79 2580.67C1355.79 2622.5 1321.9 2656.41 1280.08 2656.41C1238.26 2656.41 1204.37 2622.5 1204.37 2580.67Z" fill="#FFC735"/>
<path d="M867.342 2447.18C878.737 2447.18 887.975 2456.44 887.975 2467.86C887.975 2486.9 903.371 2502.33 922.363 2502.33H1059.91C1078.91 2502.33 1094.3 2486.9 1094.3 2467.86C1094.3 2456.44 1103.54 2447.18 1114.94 2447.18C1126.33 2447.18 1135.57 2456.44 1135.57 2467.86C1135.57 2493.24 1123.13 2515.71 1104.02 2529.48C1108.87 2547.27 1125.2 2560.24 1145.2 2560.24H1224.98C1236.37 2560.24 1245.61 2569.5 1245.61 2580.92C1245.61 2592.34 1236.37 2601.6 1224.98 2601.6H1145.2C1107.88 2601.6 1075.82 2577.62 1065.1 2543.52C1063.39 2543.63 1061.66 2543.69 1059.91 2543.69H922.363C880.58 2543.69 846.709 2509.74 846.709 2467.86C846.709 2456.44 855.947 2447.18 867.342 2447.18Z" fill="#E5E0D5"/>
<path fill-rule="evenodd" clip-rule="evenodd" d="M697.931 2200.81C739.748 2200.81 773.646 2234.68 773.646 2276.45V2413.98C773.646 2455.75 739.748 2489.61 697.931 2489.61C656.114 2489.61 622.216 2455.75 622.216 2413.98V2276.45C622.216 2234.68 656.114 2200.81 697.931 2200.81ZM732.347 2276.45C732.347 2257.46 716.938 2242.07 697.931 2242.07C678.924 2242.07 663.515 2257.46 663.515 2276.45V2413.98C663.515 2432.96 678.924 2448.36 697.931 2448.36C716.938 2448.36 732.347 2432.96 732.347 2413.98V2276.45Z" fill="#E53855"/>
<path fill-rule="evenodd" clip-rule="evenodd" d="M867.332 2488.44C878.721 2488.44 887.954 2479.19 887.954 2467.78C887.954 2448.76 903.343 2433.35 922.325 2433.35V2433.35H1059.81C1078.79 2433.35 1094.18 2448.76 1094.18 2467.78C1094.18 2479.19 1103.41 2488.44 1114.8 2488.44C1126.19 2488.44 1135.43 2479.19 1135.43 2467.78C1135.43 2446.07 1126.31 2426.5 1111.71 2412.69C1126.31 2398.88 1135.43 2379.3 1135.43 2357.6V2294.24C1135.43 2252.41 1101.57 2218.49 1059.81 2218.49C1048.42 2218.49 1039.19 2227.74 1039.19 2239.15C1039.19 2250.56 1048.42 2259.81 1059.81 2259.81C1078.79 2259.81 1094.18 2275.23 1094.18 2294.24V2357.6C1094.18 2376.61 1078.79 2392.03 1059.81 2392.03H922.327C922.325 2392.03 922.327 2392.03 922.327 2392.03C880.565 2392.03 846.709 2425.94 846.709 2467.78C846.709 2479.19 855.942 2488.44 867.332 2488.44Z" stroke="#E53855" stroke-width="3" stroke-linecap="round"/>
<path fill-rule="evenodd" clip-rule="evenodd" d="M1135.48 2467.51C1135.48 2486.52 1150.89 2501.94 1169.9 2501.94C1188.9 2501.94 1204.31 2486.52 1204.31 2467.51C1204.31 2448.5 1188.9 2433.09 1169.9 2433.09C1158.49 2433.09 1149.25 2423.84 1149.25 2412.43C1149.25 2401.02 1158.49 2391.78 1169.9 2391.78C1211.71 2391.78 1245.61 2425.68 1245.61 2467.51C1245.61 2509.34 1211.71 2543.25 1169.9 2543.25C1128.08 2543.25 1094.18 2509.34 1094.18 2467.51C1094.18 2456.1 1103.43 2446.86 1114.83 2446.86C1126.23 2446.86 1135.48 2456.1 1135.48 2467.51Z" fill="#463C74"/>
<path fill-rule="evenodd" clip-rule="evenodd" d="M959.785 2298.36C959.785 2279.34 944.377 2263.93 925.369 2263.93C906.362 2263.93 890.954 2279.34 890.954 2298.36C890.954 2317.37 906.362 2332.78 925.369 2332.78C936.773 2332.78 946.019 2342.03 946.019 2353.44C946.019 2364.84 936.773 2374.09 925.369 2374.09C883.553 2374.09 849.655 2340.18 849.655 2298.36C849.655 2256.53 883.553 2222.62 925.369 2222.62C967.186 2222.62 1001.08 2256.53 1001.08 2298.36C1001.08 2309.76 991.839 2319.01 980.435 2319.01C969.031 2319.01 959.785 2309.76 959.785 2298.36Z" fill="#463C74"/>
<path fill-rule="evenodd" clip-rule="evenodd" d="M677.603 2409.98C677.603 2384.59 657.199 2364.18 632.233 2364.18C607.267 2364.18 586.863 2384.59 586.863 2409.98C586.863 2424.01 593.08 2436.53 602.921 2444.95C611.585 2452.37 612.615 2465.42 605.221 2474.11C597.827 2482.79 584.81 2483.83 576.147 2476.41C557.485 2460.44 545.618 2436.59 545.618 2409.98C545.618 2361.93 584.304 2322.82 632.233 2322.82C680.161 2322.82 718.848 2361.93 718.848 2409.98C718.848 2421.41 709.615 2430.66 698.225 2430.66C686.836 2430.66 677.603 2421.41 677.603 2409.98Z" stroke="#257AD6" stroke-width="5" stroke-linecap="round"/>
<path fill-rule="evenodd" clip-rule="evenodd" d="M1135.43 2467.22C1135.43 2478.61 1126.19 2487.85 1114.8 2487.85C1103.41 2487.85 1094.18 2478.61 1094.18 2467.22C1094.18 2455.82 1103.41 2446.59 1114.8 2446.59C1126.19 2446.59 1135.43 2455.82 1135.43 2467.22Z" stroke="#257AD6" stroke-width="5" stroke-linecap="round"/>
<path fill-rule="evenodd" clip-rule="evenodd" d="M887.954 2467.81C887.954 2479.2 878.721 2488.44 867.332 2488.44C855.942 2488.44 846.709 2479.2 846.709 2467.81C846.709 2456.41 855.942 2447.18 867.332 2447.18C878.721 2447.18 887.954 2456.41 887.954 2467.81Z" stroke="#257AD6" stroke-width="5" stroke-linecap="round"/>
<path fill-rule="evenodd" clip-rule="evenodd" d="M1245.61 2580.97C1245.61 2592.36 1236.38 2601.6 1224.99 2601.6C1213.6 2601.6 1204.37 2592.36 1204.37 2580.97C1204.37 2569.58 1213.6 2560.34 1224.99 2560.34C1236.38 2560.34 1245.61 2569.58 1245.61 2580.97Z" stroke="#257AD6" stroke-width="5" stroke-linecap="round"/>
<path fill-rule="evenodd" clip-rule="evenodd" d="M1301 2580.38C1301 2591.77 1291.76 2601.01 1280.37 2601.01C1268.98 2601.01 1259.75 2591.77 1259.75 2580.38C1259.75 2568.99 1268.98 2559.75 1280.37 2559.75C1291.76 2559.75 1301 2568.99 1301 2580.38Z" stroke="#257AD6" stroke-width="5" stroke-linecap="round"/>
<path fill-rule="evenodd" clip-rule="evenodd" d="M1018.8 2488.49C999.859 2488.49 984.502 2503.9 984.502 2522.91C984.502 2541.93 999.859 2557.34 1018.8 2557.34C1030.17 2557.34 1039.38 2566.59 1039.38 2578C1039.38 2589.4 1030.17 2598.65 1018.8 2598.65C977.126 2598.65 943.341 2564.74 943.341 2522.91C943.341 2481.09 977.126 2447.18 1018.8 2447.18C1030.17 2447.18 1039.38 2456.43 1039.38 2467.83C1039.38 2479.24 1030.17 2488.49 1018.8 2488.49Z" fill="#FFC735"/>
<path fill-rule="evenodd" clip-rule="evenodd" d="M1061.15 2119.48C1034.91 2119.48 1012.94 2141.25 1012.94 2168.98C1012.94 2196.72 1034.91 2218.49 1061.15 2218.49C1072.56 2218.49 1081.81 2227.73 1081.81 2239.12C1081.81 2250.52 1072.56 2259.75 1061.15 2259.75C1011.32 2259.75 971.623 2218.73 971.623 2168.98C971.623 2119.24 1011.32 2078.22 1061.15 2078.22C1072.56 2078.22 1081.81 2087.45 1081.81 2098.85C1081.81 2110.24 1072.56 2119.48 1061.15 2119.48Z" fill="#FFC735"/>
<path fill-rule="evenodd" clip-rule="evenodd" d="M925.06 2374.17C872.629 2374.17 830.126 2416.73 830.126 2469.24C830.126 2511.09 796.246 2545.02 754.453 2545.02C712.66 2545.02 678.781 2511.09 678.781 2469.24C678.781 2457.82 688.022 2448.57 699.419 2448.57C710.817 2448.57 720.057 2457.82 720.057 2469.24C720.057 2488.26 735.457 2503.68 754.453 2503.68C773.45 2503.68 788.85 2488.26 788.85 2469.24C788.85 2393.91 849.833 2332.84 925.06 2332.84C936.457 2332.84 945.698 2342.09 945.698 2353.5C945.698 2364.92 936.457 2374.17 925.06 2374.17Z" fill="#FFC735"/>
<path d="M702.35 2200.81C788.91 2200.81 859.083 2130.62 859.083 2044.03C859.083 2032.64 868.316 2023.41 879.705 2023.41C891.094 2023.41 900.328 2032.64 900.328 2044.03C900.328 2153.41 811.69 2242.07 702.35 2242.07C690.961 2242.07 681.728 2232.83 681.728 2221.44C681.728 2210.05 690.961 2200.81 702.35 2200.81Z" fill="#E5E0D5"/>
<path fill-rule="evenodd" clip-rule="evenodd" d="M1274.48 2452.48C1274.48 2400.07 1232.01 2357.59 1179.62 2357.59C1168.23 2357.59 1159 2348.35 1159 2336.96C1159 2325.57 1168.23 2316.33 1179.62 2316.33C1254.79 2316.33 1315.73 2377.29 1315.73 2452.48C1315.73 2463.87 1306.49 2473.11 1295.1 2473.11C1283.72 2473.11 1274.48 2463.87 1274.48 2452.48Z" stroke="#257AD6" stroke-width="5" stroke-linecap="round"/>
<path fill-rule="evenodd" clip-rule="evenodd" d="M43.0134 2520.26C43.0134 2572.67 85.4854 2615.15 137.878 2615.15C149.267 2615.15 158.5 2624.39 158.5 2635.78C158.5 2647.18 149.267 2656.41 137.878 2656.41C62.7064 2656.41 1.76806 2595.46 1.76807 2520.26C1.76807 2508.87 11.0011 2499.63 22.3907 2499.63C33.7802 2499.63 43.0134 2508.87 43.0134 2520.26Z" fill="#E53855"/>
<path fill-rule="evenodd" clip-rule="evenodd" d="M586.895 2310.96C552.022 2310.96 523.752 2339.24 523.752 2374.13C523.752 2385.5 514.533 2394.72 503.162 2394.72C491.79 2394.72 482.571 2385.5 482.571 2374.13C482.571 2316.49 529.278 2269.77 586.895 2269.77C598.267 2269.77 607.486 2278.99 607.486 2290.37C607.486 2301.74 598.267 2310.96 586.895 2310.96Z" fill="#FFC735"/>
<path fill-rule="evenodd" clip-rule="evenodd" d="M1039.38 2467.81C1039.38 2479.2 1030.15 2488.44 1018.76 2488.44C1007.37 2488.44 998.138 2479.2 998.138 2467.81C998.138 2456.41 1007.37 2447.18 1018.76 2447.18C1030.15 2447.18 1039.38 2456.41 1039.38 2467.81Z" stroke="#257AD6" stroke-width="5" stroke-linecap="round"/>
<path fill-rule="evenodd" clip-rule="evenodd" d="M946.287 2353.46C946.287 2364.86 937.053 2374.09 925.664 2374.09C914.275 2374.09 905.042 2364.86 905.042 2353.46C905.042 2342.07 914.275 2332.84 925.664 2332.84C937.053 2332.84 946.287 2342.07 946.287 2353.46Z" stroke="#257AD6" stroke-width="5" stroke-linecap="round"/>
<path fill-rule="evenodd" clip-rule="evenodd" d="M945.698 2184.31C945.698 2195.7 936.464 2204.94 925.075 2204.94C913.686 2204.94 904.452 2195.7 904.452 2184.31C904.452 2172.92 913.686 2163.68 925.075 2163.68C936.464 2163.68 945.698 2172.92 945.698 2184.31Z" stroke="#257AD6" stroke-width="5" stroke-linecap="round"/>
<path fill-rule="evenodd" clip-rule="evenodd" d="M945.698 2128.91C945.698 2140.3 936.464 2149.53 925.075 2149.53C913.686 2149.53 904.452 2140.3 904.452 2128.91C904.452 2117.51 913.686 2108.28 925.075 2108.28C936.464 2108.28 945.698 2117.51 945.698 2128.91Z" stroke="#257AD6" stroke-width="5" stroke-linecap="round"/>
<path fill-rule="evenodd" clip-rule="evenodd" d="M906.22 1901.4C906.22 1912.79 896.987 1922.03 885.597 1922.03C874.208 1922.03 864.975 1912.79 864.975 1901.4C864.975 1890.01 874.208 1880.77 885.597 1880.77C896.987 1880.77 906.22 1890.01 906.22 1901.4Z" stroke="#257AD6" stroke-width="5" stroke-linecap="round"/>
<path fill-rule="evenodd" clip-rule="evenodd" d="M1081.81 2239.12C1081.81 2250.52 1072.57 2259.75 1061.18 2259.75C1049.8 2259.75 1040.56 2250.52 1040.56 2239.12C1040.56 2227.73 1049.8 2218.49 1061.18 2218.49C1072.57 2218.49 1081.81 2227.73 1081.81 2239.12Z" stroke="#257AD6" stroke-width="5" stroke-linecap="round"/>
<path fill-rule="evenodd" clip-rule="evenodd" d="M289.361 1660.05C289.361 1641.03 304.77 1625.62 323.777 1625.62C342.784 1625.62 358.192 1641.03 358.192 1660.05C358.192 1679.06 342.784 1694.47 323.777 1694.47C312.373 1694.47 303.127 1703.72 303.127 1715.13C303.127 1726.53 312.373 1735.78 323.777 1735.78C365.593 1735.78 399.491 1701.87 399.491 1660.05C399.491 1618.22 365.593 1584.31 323.777 1584.31C281.96 1584.31 248.062 1618.22 248.062 1660.05C248.062 1671.45 257.307 1680.7 268.711 1680.7C280.115 1680.7 289.361 1671.45 289.361 1660.05Z" fill="#463C74"/>
<path fill-rule="evenodd" clip-rule="evenodd" d="M268.685 1840.11C268.685 1828.71 259.451 1819.48 248.062 1819.48C236.673 1819.48 227.439 1828.71 227.439 1840.11C227.439 1851.5 236.673 1860.73 248.062 1860.73C259.451 1860.73 268.685 1851.5 268.685 1840.11Z" fill="#463C74"/>
<path fill-rule="evenodd" clip-rule="evenodd" d="M447.807 1863.68C447.807 1852.29 438.574 1843.05 427.185 1843.05C415.795 1843.05 406.562 1852.29 406.562 1863.68C406.562 1875.07 415.795 1884.31 427.185 1884.31C438.574 1884.31 447.807 1875.07 447.807 1863.68Z" fill="#463C74"/>
<path fill-rule="evenodd" clip-rule="evenodd" d="M504.372 1860.73C504.372 1849.34 495.139 1840.11 483.75 1840.11C472.36 1840.11 463.127 1849.34 463.127 1860.73C463.127 1872.13 472.36 1881.36 483.75 1881.36C495.139 1881.36 504.372 1872.13 504.372 1860.73Z" fill="#463C74"/>
<path fill-rule="evenodd" clip-rule="evenodd" d="M504.372 1918.49C504.372 1907.1 495.139 1897.87 483.75 1897.87C472.36 1897.87 463.127 1907.1 463.127 1918.49C463.127 1929.89 472.36 1939.12 483.75 1939.12C495.139 1939.12 504.372 1929.89 504.372 1918.49Z" fill="#463C74"/>
<path fill-rule="evenodd" clip-rule="evenodd" d="M223.315 2636.96C223.315 2625.57 214.081 2616.33 202.692 2616.33C191.303 2616.33 182.069 2625.57 182.069 2636.96C182.069 2648.35 191.303 2657.59 202.692 2657.59C214.081 2657.59 223.315 2648.35 223.315 2636.96Z" fill="#463C74"/>
<path fill-rule="evenodd" clip-rule="evenodd" d="M285.183 2636.96C285.183 2625.57 275.949 2616.33 264.56 2616.33C253.171 2616.33 243.938 2625.57 243.938 2636.96C243.938 2648.35 253.171 2657.59 264.56 2657.59C275.949 2657.59 285.183 2648.35 285.183 2636.96Z" stroke="#257AD6" stroke-width="5" stroke-linecap="round"/>
<path fill-rule="evenodd" clip-rule="evenodd" d="M471.376 2635.78C471.376 2624.39 462.143 2615.15 450.754 2615.15C439.364 2615.15 430.131 2624.39 430.131 2635.78C430.131 2647.18 439.364 2656.41 450.754 2656.41C462.143 2656.41 471.376 2647.18 471.376 2635.78Z" fill="#463C74"/>
<path fill-rule="evenodd" clip-rule="evenodd" d="M399.491 1547.18C399.491 1535.78 390.258 1526.55 378.869 1526.55C367.48 1526.55 358.246 1535.78 358.246 1547.18C358.246 1558.57 367.48 1567.81 378.869 1567.81C390.258 1567.81 399.491 1558.57 399.491 1547.18Z" stroke="#F6AE9F" stroke-width="5" stroke-linecap="round"/>
<path fill-rule="evenodd" clip-rule="evenodd" d="M199.788 1639.07C180.844 1639.07 165.487 1623.66 165.487 1604.64C165.487 1585.63 180.844 1570.22 199.788 1570.22C211.154 1570.22 220.368 1560.97 220.368 1549.56C220.368 1538.15 211.154 1528.91 199.788 1528.91C158.111 1528.91 124.326 1562.81 124.326 1604.64C124.326 1646.47 158.111 1680.38 199.788 1680.38C211.154 1680.38 220.368 1671.13 220.368 1659.72C220.368 1648.32 211.154 1639.07 199.788 1639.07Z" fill="#FFC735"/>
<path fill-rule="evenodd" clip-rule="evenodd" d="M97.2218 1847.18C149.614 1847.18 192.086 1889.66 192.086 1942.07C192.086 1953.46 201.32 1962.7 212.709 1962.7C224.098 1962.7 233.331 1953.46 233.331 1942.07C233.331 1866.88 172.393 1805.92 97.2218 1805.92C85.8322 1805.92 76.5991 1815.16 76.5991 1826.55C76.5991 1837.94 85.8322 1847.18 97.2218 1847.18Z" stroke="#257AD6" stroke-width="5" stroke-linecap="round"/>
<path fill-rule="evenodd" clip-rule="evenodd" d="M100.757 1962.7C100.757 1951.31 91.524 1942.07 80.1344 1942.07C68.7448 1942.07 59.5117 1951.31 59.5117 1962.7C59.5117 1974.09 68.7448 1983.33 80.1344 1983.33C91.524 1983.33 100.757 1974.09 100.757 1962.7Z" stroke="#F6AE9F" stroke-width="5" stroke-linecap="round"/>
<path fill-rule="evenodd" clip-rule="evenodd" d="M1001.08 2353.46C1001.08 2364.86 991.851 2374.09 980.462 2374.09C969.072 2374.09 959.839 2364.86 959.839 2353.46C959.839 2342.07 969.072 2332.84 980.462 2332.84C991.851 2332.84 1001.08 2342.07 1001.08 2353.46Z" fill="#463C74"/>
<path fill-rule="evenodd" clip-rule="evenodd" d="M1055.88 2353.46C1055.88 2364.86 1046.65 2374.09 1035.26 2374.09C1023.87 2374.09 1014.64 2364.86 1014.64 2353.46C1014.64 2342.07 1023.87 2332.84 1035.26 2332.84C1046.65 2332.84 1055.88 2342.07 1055.88 2353.46Z" fill="#463C74"/>
<path fill-rule="evenodd" clip-rule="evenodd" d="M718.848 2221.44C718.848 2232.83 709.615 2242.07 698.226 2242.07C686.836 2242.07 677.603 2232.83 677.603 2221.44C677.603 2210.05 686.836 2200.81 698.226 2200.81C709.615 2200.81 718.848 2210.05 718.848 2221.44Z" stroke="#257AD6" stroke-width="5" stroke-linecap="round"/>
<path fill-rule="evenodd" clip-rule="evenodd" d="M720.027 2468.99C720.027 2480.38 710.793 2489.61 699.404 2489.61C688.015 2489.61 678.781 2480.38 678.781 2468.99C678.781 2457.59 688.015 2448.36 699.404 2448.36C710.793 2448.36 720.027 2457.59 720.027 2468.99Z" stroke="#257AD6" stroke-width="5" stroke-linecap="round"/>
<path fill-rule="evenodd" clip-rule="evenodd" d="M949.891 1654.45C926.584 1654.45 907.467 1673.47 907.467 1697.21C907.467 1720.96 926.584 1739.98 949.891 1739.98C1034.58 1739.98 1103.02 1808.94 1103.02 1893.74C1103.02 1905.13 1093.77 1914.37 1082.36 1914.37C1070.95 1914.37 1061.71 1905.13 1061.71 1893.74C1061.71 1831.48 1011.52 1781.24 949.891 1781.24C903.521 1781.24 866.153 1743.5 866.153 1697.21C866.153 1650.93 903.521 1613.19 949.891 1613.19C961.3 1613.19 970.547 1622.43 970.547 1633.82C970.547 1645.21 961.3 1654.45 949.891 1654.45Z" fill="#F6AE9F"/>
<path fill-rule="evenodd" clip-rule="evenodd" d="M1061.18 1893.79C1061.18 1956.41 1011.13 2006.81 949.822 2006.81C938.433 2006.81 929.2 2016.07 929.2 2027.49C929.2 2038.9 938.433 2048.16 949.822 2048.16C1034.31 2048.16 1102.43 1978.84 1102.43 1893.79C1102.43 1882.37 1093.2 1873.11 1081.81 1873.11C1070.42 1873.11 1061.18 1882.37 1061.18 1893.79Z" stroke="#F6AE9F" stroke-width="5" stroke-linecap="round"/>
<path fill-rule="evenodd" clip-rule="evenodd" d="M1081.81 1914.37C1070.42 1914.37 1061.18 1905.13 1061.18 1893.74C1061.18 1882.35 1070.42 1873.11 1081.81 1873.11C1093.2 1873.11 1102.43 1882.35 1102.43 1893.74C1102.43 1905.13 1093.2 1914.37 1081.81 1914.37Z" fill="#463C74"/>
<path fill-rule="evenodd" clip-rule="evenodd" d="M801.339 1768.79C812.728 1768.79 821.962 1778.04 821.962 1789.45V1878.97C821.962 1890.38 812.728 1899.63 801.339 1899.63C789.95 1899.63 780.716 1890.38 780.716 1878.97V1789.45C780.716 1778.04 789.95 1768.79 801.339 1768.79Z" fill="#E53855"/>
<path fill-rule="evenodd" clip-rule="evenodd" d="M463.087 1652.7C463.087 1729.49 400.857 1791.74 324.092 1791.74C312.691 1791.74 303.449 1800.98 303.449 1812.38C303.449 1823.79 312.691 1833.03 324.092 1833.03C423.658 1833.03 504.373 1752.29 504.373 1652.7C504.373 1641.3 495.13 1632.05 483.73 1632.05C472.329 1632.05 463.087 1641.3 463.087 1652.7Z" fill="#F6AE9F"/>
<path d="M1142.5 1696.88C1142.5 1708.28 1133.25 1717.51 1121.84 1717.51H946.914C935.504 1717.51 926.253 1708.28 926.253 1696.88C926.253 1685.49 935.504 1676.25 946.914 1676.25H1121.84C1133.25 1676.25 1142.5 1685.49 1142.5 1696.88Z" fill="#E5E0D5"/>
<path fill-rule="evenodd" clip-rule="evenodd" d="M1101.1 1652.53C1093.05 1660.59 1079.99 1660.59 1071.94 1652.53C1063.88 1644.47 1063.88 1631.41 1071.94 1623.36C1079.99 1615.3 1093.05 1615.3 1101.1 1623.36C1109.16 1631.41 1109.16 1644.47 1101.1 1652.53Z" fill="#463C74"/>
<path fill-rule="evenodd" clip-rule="evenodd" d="M960.869 1590.64C952.815 1598.7 939.757 1598.7 931.704 1590.64C923.651 1582.59 923.651 1569.53 931.704 1561.47C939.757 1553.42 952.815 1553.42 960.869 1561.47C968.923 1569.53 968.923 1582.59 960.869 1590.64Z" fill="#463C74"/>
<path fill-rule="evenodd" clip-rule="evenodd" d="M0.589844 2098.85C0.589844 2087.45 9.82293 2078.22 21.2125 2078.22H87.2051C98.5947 2078.22 107.828 2087.45 107.828 2098.85C107.828 2110.24 98.5947 2119.48 87.2051 2119.48H21.2125C9.82293 2119.48 0.589844 2110.24 0.589844 2098.85Z" fill="#463C74"/>
<path fill-rule="evenodd" clip-rule="evenodd" d="M656.98 2653.46C645.591 2653.46 636.357 2644.25 636.357 2632.88V2573.86C636.357 2562.49 645.591 2553.27 656.98 2553.27C668.369 2553.27 677.603 2562.49 677.603 2573.86V2632.88C677.603 2644.25 668.369 2653.46 656.98 2653.46Z" fill="#E53855"/>
<path fill-rule="evenodd" clip-rule="evenodd" d="M755.969 2636.96C755.969 2625.57 765.212 2616.33 776.612 2616.33H940.375C951.775 2616.33 961.018 2625.57 961.018 2636.96C961.018 2648.35 951.775 2657.59 940.375 2657.59H776.612C765.212 2657.59 755.969 2648.35 755.969 2636.96Z" fill="#FFC735"/>
<path fill-rule="evenodd" clip-rule="evenodd" d="M945.698 2657.59C934.309 2657.59 925.075 2648.35 925.075 2636.96C925.075 2625.57 934.309 2616.33 945.698 2616.33C957.087 2616.33 966.321 2625.57 966.321 2636.96C966.321 2648.35 957.087 2657.59 945.698 2657.59Z" stroke="#257AD6" stroke-width="5" stroke-linecap="round"/>
<path fill-rule="evenodd" clip-rule="evenodd" d="M787.346 1648.11C795.399 1640.06 808.457 1640.06 816.511 1648.11C824.564 1656.17 824.564 1669.23 816.511 1677.29C808.457 1685.34 795.399 1685.34 787.346 1677.29C779.292 1669.23 779.292 1656.17 787.346 1648.11Z" fill="#463C74"/>
<path fill-rule="evenodd" clip-rule="evenodd" d="M1196.12 2251.5C1269.01 2251.5 1328.1 2192.39 1328.1 2119.48C1328.1 2108.08 1337.33 2098.85 1348.72 2098.85C1360.11 2098.85 1369.35 2108.08 1369.35 2119.48C1369.35 2215.18 1291.79 2292.76 1196.12 2292.76C1184.73 2292.76 1175.49 2283.52 1175.49 2272.13C1175.49 2260.74 1184.73 2251.5 1196.12 2251.5Z" fill="#E53855"/>
<path fill-rule="evenodd" clip-rule="evenodd" d="M1363.31 2134.06C1355.25 2142.12 1342.19 2142.12 1334.14 2134.06C1326.09 2126.01 1326.09 2112.94 1334.14 2104.89C1342.19 2096.83 1355.25 2096.83 1363.31 2104.89C1371.36 2112.94 1371.36 2126.01 1363.31 2134.06Z" fill="#463C74"/>
<path fill-rule="evenodd" clip-rule="evenodd" d="M1421.64 2134.06C1413.58 2142.12 1400.52 2142.12 1392.48 2134.06C1384.42 2126.01 1384.42 2112.94 1392.48 2104.89C1400.52 2096.83 1413.58 2096.83 1421.64 2104.89C1429.69 2112.94 1429.69 2126.01 1421.64 2134.06Z" fill="#463C74"/>
<path fill-rule="evenodd" clip-rule="evenodd" d="M1559.63 2211.49C1460.76 2211.49 1380.61 2291.66 1380.61 2390.56C1380.61 2401.97 1371.36 2411.22 1359.95 2411.22C1348.54 2411.22 1339.3 2401.97 1339.3 2390.56C1339.3 2268.84 1437.94 2170.16 1559.63 2170.16C1571.03 2170.16 1580.29 2179.42 1580.29 2190.83C1580.29 2202.24 1571.03 2211.49 1559.63 2211.49Z" fill="#FFC735"/>
<path fill-rule="evenodd" clip-rule="evenodd" d="M1142.5 1696.78C1142.55 1708.17 1133.37 1717.45 1121.98 1717.51C1110.59 1717.57 1101.31 1708.38 1101.25 1696.99C1101.19 1685.59 1110.38 1676.31 1121.77 1676.25C1133.16 1676.2 1142.44 1685.39 1142.5 1696.78Z" stroke="#257AD6" stroke-width="5" stroke-linecap="round"/>
<path d="M1549.04 2140.11H1467.17C1455.78 2140.11 1446.53 2130.87 1446.53 2119.48C1446.53 2108.08 1455.78 2098.85 1467.17 2098.85H1549.04C1560.43 2098.85 1569.68 2108.08 1569.68 2119.48C1569.68 2130.87 1560.43 2140.11 1549.04 2140.11Z" fill="#E5E0D5"/>
<path fill-rule="evenodd" clip-rule="evenodd" d="M1580.29 2190.79C1580.29 2202.19 1571.05 2211.42 1559.66 2211.42C1548.28 2211.42 1539.04 2202.19 1539.04 2190.79C1539.04 2179.4 1548.28 2170.16 1559.66 2170.16C1571.05 2170.16 1580.29 2179.4 1580.29 2190.79Z" stroke="#257AD6" stroke-width="5" stroke-linecap="round"/>
<path d="M1450.7 1499.49C1431.75 1499.49 1416.4 1514.9 1416.4 1533.92C1416.4 1552.93 1431.75 1568.34 1450.7 1568.34C1462.06 1568.34 1471.28 1577.59 1471.28 1589C1471.28 1600.41 1462.06 1609.65 1450.7 1609.65C1409.02 1609.65 1375.24 1575.74 1375.24 1533.92C1375.24 1492.09 1409.02 1458.18 1450.7 1458.18C1462.06 1458.18 1471.28 1467.43 1471.28 1478.84C1471.28 1490.24 1462.06 1499.49 1450.7 1499.49Z" fill="#E5E0D5"/>
<path fill-rule="evenodd" clip-rule="evenodd" d="M1472.46 1589.03C1472.46 1600.42 1463.22 1609.65 1451.84 1609.65C1440.45 1609.65 1431.21 1600.42 1431.21 1589.03C1431.21 1577.63 1440.45 1568.4 1451.84 1568.4C1463.22 1568.4 1472.46 1577.63 1472.46 1589.03Z" fill="#463C74"/>
<path fill-rule="evenodd" clip-rule="evenodd" d="M1387.61 1696.88C1387.61 1708.28 1378.37 1717.51 1366.99 1717.51C1355.6 1717.51 1346.37 1708.28 1346.37 1696.88C1346.37 1685.49 1355.6 1676.25 1366.99 1676.25C1378.37 1676.25 1387.61 1685.49 1387.61 1696.88Z" fill="#463C74"/>
<path fill-rule="evenodd" clip-rule="evenodd" d="M1442.41 1696.88C1442.41 1708.28 1433.17 1717.51 1421.79 1717.51C1410.4 1717.51 1401.16 1708.28 1401.16 1696.88C1401.16 1685.49 1410.4 1676.25 1421.79 1676.25C1433.17 1676.25 1442.41 1685.49 1442.41 1696.88Z" fill="#463C74"/>
<path fill-rule="evenodd" clip-rule="evenodd" d="M1508.99 1900.81C1497.61 1900.81 1488.37 1891.58 1488.37 1880.18C1488.37 1868.79 1497.61 1859.55 1508.99 1859.55C1520.38 1859.55 1529.61 1868.79 1529.61 1880.18C1529.61 1891.58 1520.38 1900.81 1508.99 1900.81Z" fill="#463C74"/>
</g>
<path d="M137.462 1498.31C118.514 1498.31 103.161 1513.72 103.161 1532.74C103.161 1551.75 118.514 1567.16 137.462 1567.16C148.823 1567.16 158.043 1576.41 158.043 1587.82C158.043 1599.23 148.823 1608.47 137.462 1608.47C95.7796 1608.47 62 1574.57 62 1532.74C62 1490.91 95.7796 1457 137.462 1457C148.823 1457 158.043 1466.25 158.043 1477.66C158.043 1489.06 148.823 1498.31 137.462 1498.31Z" fill="#E5E0D5"/>
<path d="M1541.51 2534.26H1459.64C1448.25 2534.26 1439 2525.02 1439 2513.63C1439 2502.24 1448.25 2493 1459.64 2493H1541.51C1552.9 2493 1562.15 2502.24 1562.15 2513.63C1562.15 2525.02 1552.9 2534.26 1541.51 2534.26Z" fill="#E5E0D5"/>
<path d="M1480.51 2581.26H1398.64C1387.25 2581.26 1378 2572.02 1378 2560.63C1378 2549.24 1387.25 2540 1398.64 2540H1480.51C1491.9 2540 1501.15 2549.24 1501.15 2560.63C1501.15 2572.02 1491.9 2581.26 1480.51 2581.26Z" fill="#E5E0D5"/>
<path fill-rule="evenodd" clip-rule="evenodd" d="M1435.65 2605.8C1496.46 2605.8 1545.76 2556.48 1545.76 2495.65C1545.76 2484.25 1555 2475 1566.41 2475C1577.81 2475 1587.05 2484.25 1587.05 2495.65C1587.05 2579.3 1519.26 2647.1 1435.65 2647.1C1424.24 2647.1 1415 2637.86 1415 2626.45C1415 2615.04 1424.24 2605.8 1435.65 2605.8Z" fill="#E53855"/>
<path fill-rule="evenodd" clip-rule="evenodd" d="M881.278 1513.33C828.847 1513.33 786.344 1555.9 786.344 1608.4C786.344 1650.25 752.465 1684.18 710.672 1684.18C668.879 1684.18 635 1650.25 635 1608.4C635 1596.99 644.24 1587.73 655.638 1587.73C667.035 1587.73 676.276 1596.99 676.276 1608.4C676.276 1627.43 691.676 1642.85 710.672 1642.85C729.669 1642.85 745.069 1627.43 745.069 1608.4C745.069 1533.07 806.052 1472 881.278 1472C892.676 1472 901.916 1481.25 901.916 1492.67C901.916 1504.08 892.676 1513.33 881.278 1513.33Z" fill="#FFC735"/>
</g>
</g>
<ellipse cx="198" cy="275.812" rx="198" ry="177.878" fill="#8991DC"/>
<ellipse cx="524.5" cy="302.292" rx="191.5" ry="211.355" fill="#8991DC"/>
<ellipse cx="1402" cy="226.845" rx="198" ry="188.87" fill="#8991DC"/>
<ellipse cx="1055" cy="275.811" rx="215" ry="212.854" fill="#8991DC"/>
<ellipse cx="751" cy="203.36" rx="198" ry="203.36" fill="#8991DC"/>
<mask id="mask2" mask-type="alpha" maskUnits="userSpaceOnUse" x="0" y="256" width="1600" height="1202">
<rect y="256.824" width="1600" height="1200.18" fill="#C4C4C4"/>
</mask>
<g mask="url(#mask2)">
<g clip-path="url(#clip1)">
<rect y="257" width="1600" height="1200" fill="#8991DC"/>
<mask id="mask3" mask-type="alpha" maskUnits="userSpaceOnUse" x="0" y="257" width="1600" height="1200">
<rect y="257" width="1600" height="1200" fill="#FBF4E2"/>
</mask>
<g mask="url(#mask3)">
<path fill-rule="evenodd" clip-rule="evenodd" d="M1508.4 755.627C1497.02 755.627 1487.78 746.39 1487.78 734.998C1487.78 723.605 1497.02 714.369 1508.4 714.369C1519.79 714.369 1529.02 723.605 1529.02 734.998C1529.02 746.39 1519.79 755.627 1508.4 755.627Z" fill="#463C74"/>
<path fill-rule="evenodd" clip-rule="evenodd" d="M243.938 1436.96C243.938 1425.57 253.171 1416.33 264.56 1416.33H388.296C399.685 1416.33 408.919 1425.57 408.919 1436.96C408.919 1448.35 399.685 1457.59 388.296 1457.59H264.56C253.171 1457.59 243.938 1448.35 243.938 1436.96Z" fill="#FFC735"/>
<path d="M448.164 922.129C448.164 962.856 415.203 995.866 374.548 995.866V999.866C417.418 999.866 452.164 965.06 452.164 922.129H448.164ZM374.548 995.866H237.063V999.866H374.548V995.866ZM237.063 995.866C196.409 995.866 163.447 962.856 163.447 922.129H159.447C159.447 965.06 194.193 999.866 237.063 999.866V995.866ZM163.447 922.129C163.447 881.402 196.409 848.393 237.063 848.393V844.393C194.193 844.393 159.447 879.199 159.447 922.129H163.447ZM237.063 848.393H374.548V844.393H237.063V848.393ZM374.548 848.393C415.203 848.393 448.164 881.402 448.164 922.129H452.164C452.164 879.199 417.418 844.393 374.548 844.393V848.393ZM374.548 958.555C394.638 958.555 410.919 942.244 410.919 922.129H406.919C406.919 940.04 392.423 954.555 374.548 954.555V958.555ZM410.919 922.129C410.919 902.015 394.638 885.704 374.548 885.704V889.704C392.423 889.704 406.919 904.218 406.919 922.129H410.919ZM374.548 885.704H237.063V889.704H374.548V885.704ZM237.063 885.704C216.973 885.704 200.692 902.015 200.692 922.129H204.692C204.692 904.218 219.188 889.704 237.063 889.704V885.704ZM200.692 922.129C200.692 942.244 216.973 958.555 237.063 958.555V954.555C219.188 954.555 204.692 940.04 204.692 922.129H200.692ZM237.063 958.555H374.548V954.555H237.063V958.555Z" fill="#E53855"/>
<path fill-rule="evenodd" clip-rule="evenodd" d="M83.6699 1348.55C83.6699 1359.95 92.9057 1369.18 104.299 1369.18H168.248C189.922 1369.18 209.467 1360.07 223.258 1345.46C237.049 1360.07 256.594 1369.18 278.268 1369.18H341.529C383.304 1369.18 417.168 1335.32 417.168 1293.54C417.168 1282.15 407.932 1272.92 396.539 1272.92C385.147 1272.92 375.911 1282.15 375.911 1293.54C375.911 1312.53 360.517 1327.93 341.529 1327.93H278.268C259.28 1327.93 243.887 1312.53 243.887 1293.54V1154.64C243.887 1113.63 210.637 1080.38 169.623 1080.38V1121.64C187.852 1121.64 202.629 1136.42 202.629 1154.64V1293.54C202.629 1312.53 187.236 1327.93 168.248 1327.93H104.299C92.9057 1327.93 83.6699 1337.16 83.6699 1348.55Z" fill="#E53855"/>
<path d="M351.47 1182.29C370.477 1182.29 385.886 1166.88 385.886 1147.87C385.886 1128.85 370.477 1113.44 351.47 1113.44C332.463 1113.44 317.054 1128.85 317.054 1147.87C317.054 1159.27 307.809 1168.52 296.405 1168.52C285.001 1168.52 275.755 1159.27 275.755 1147.87C275.755 1106.04 309.654 1072.13 351.47 1072.13C393.287 1072.13 427.185 1106.04 427.185 1147.87C427.185 1189.69 393.287 1223.6 351.47 1223.6C340.066 1223.6 330.821 1214.35 330.821 1202.95C330.821 1191.54 340.066 1182.29 351.47 1182.29Z" fill="#E5E0D5"/>
<path d="M302.921 901.795C328.306 901.795 348.716 881.385 348.716 856.412C348.716 831.439 328.306 811.029 302.921 811.029C288.897 811.029 276.384 817.248 267.964 827.092C260.552 835.759 247.503 836.789 238.818 829.393C230.133 821.996 229.1 808.976 236.513 800.31C252.478 781.643 276.326 769.771 302.921 769.771C350.957 769.771 390.064 808.47 390.064 856.412C390.064 904.354 350.957 943.052 302.921 943.052C291.504 943.052 282.247 933.816 282.247 922.424C282.247 911.031 291.504 901.795 302.921 901.795Z" fill="#E5E0D5"/>
<path fill-rule="evenodd" clip-rule="evenodd" d="M169.696 1121.64C158.307 1121.64 149.073 1112.4 149.073 1101.01C149.073 1089.62 158.307 1080.38 169.696 1080.38C181.085 1080.38 190.319 1089.62 190.319 1101.01C190.319 1112.4 181.085 1121.64 169.696 1121.64Z" stroke="#257AD6" stroke-width="5" stroke-linecap="round"/>
<path fill-rule="evenodd" clip-rule="evenodd" d="M110.72 1187.94C110.72 1168.93 95.3118 1153.52 76.3045 1153.52C57.2973 1153.52 41.8888 1168.93 41.8888 1187.94C41.8888 1206.96 57.2973 1222.37 76.3045 1222.37C95.3118 1222.37 110.72 1206.96 110.72 1187.94ZM76.3045 1112.21C118.121 1112.21 152.019 1146.12 152.019 1187.94C152.019 1229.77 118.121 1263.68 76.3045 1263.68C34.4884 1263.68 0.589842 1229.77 0.589844 1187.94C0.589846 1146.12 34.4884 1112.21 76.3045 1112.21Z" fill="#FFC735"/>
<path d="M139.646 1010.29C116.162 1010.29 97.1253 1029.39 97.1253 1052.96V1132.81C97.1253 1144.22 87.9139 1153.46 76.5509 1153.46C65.188 1153.46 55.9766 1144.22 55.9766 1132.81V1052.96C55.9766 1006.58 93.4365 968.984 139.646 968.984V1010.29Z" fill="#E5E0D5"/>
<path fill-rule="evenodd" clip-rule="evenodd" d="M76.5992 1153.46C65.2096 1153.46 55.9766 1144.23 55.9766 1132.84C55.9766 1121.44 65.2096 1112.21 76.5992 1112.21C87.9889 1112.21 97.2219 1121.44 97.2219 1132.84C97.2219 1144.23 87.9889 1153.46 76.5992 1153.46Z" stroke="#257AD6" stroke-width="5" stroke-linecap="round"/>
<path fill-rule="evenodd" clip-rule="evenodd" d="M76.0099 1208.28C64.6203 1208.28 55.3872 1199.04 55.3872 1187.65C55.3872 1176.26 64.6203 1167.02 76.0099 1167.02C87.3995 1167.02 96.6326 1176.26 96.6326 1187.65C96.6326 1199.04 87.3995 1208.28 76.0099 1208.28Z" stroke="#257AD6" stroke-width="5" stroke-linecap="round"/>
<path fill-rule="evenodd" clip-rule="evenodd" d="M80.1784 796.242C99.2118 795.994 114.441 780.382 114.193 761.37C113.946 742.359 98.3153 727.146 79.282 727.394C67.8619 727.543 58.4838 718.415 58.3353 707.008C58.1867 695.602 67.324 686.233 78.744 686.085C120.617 685.541 155.004 719.006 155.548 760.833C156.093 802.659 122.59 837.006 80.7163 837.55C69.2963 837.699 59.9181 828.571 59.7695 817.164C59.621 805.757 68.7583 796.389 80.1784 796.242Z" fill="#FFC735"/>
<path fill-rule="evenodd" clip-rule="evenodd" d="M180.639 944.26C161.621 944.26 146.204 959.665 146.204 978.667C146.204 997.669 161.621 1013.07 180.639 1013.07C255.949 1013.07 317.001 1074.07 317.001 1149.32C317.001 1160.72 307.75 1169.97 296.34 1169.97C284.93 1169.97 275.679 1160.72 275.679 1149.32C275.679 1096.88 233.128 1054.36 180.639 1054.36C138.799 1054.36 104.882 1020.47 104.882 978.667C104.882 936.862 138.799 902.973 180.639 902.973C192.049 902.973 201.3 912.216 201.3 923.617C201.3 935.017 192.049 944.26 180.639 944.26Z" fill="#FFC735"/>
<path fill-rule="evenodd" clip-rule="evenodd" d="M486.053 1293.78C486.053 1274.83 470.644 1259.47 451.637 1259.47C432.63 1259.47 417.221 1274.83 417.221 1293.78C417.221 1305.15 407.976 1314.37 396.572 1314.37C385.168 1314.37 375.922 1305.15 375.922 1293.78C375.922 1252.09 409.821 1218.3 451.637 1218.3C493.454 1218.3 527.352 1252.09 527.352 1293.78C527.352 1305.15 518.106 1314.37 506.702 1314.37C495.298 1314.37 486.053 1305.15 486.053 1293.78Z" fill="#463C74"/>
<path d="M450.164 926.549C450.164 978.956 492.636 1021.44 545.029 1021.44C556.418 1021.44 565.651 1030.68 565.651 1042.07C565.651 1053.46 556.418 1062.7 545.029 1062.7C469.858 1062.7 408.919 1001.74 408.919 926.549C408.919 915.156 418.152 905.92 429.542 905.92C440.931 905.92 450.164 915.156 450.164 926.549Z" fill="#E5E0D5"/>
<path fill-rule="evenodd" clip-rule="evenodd" d="M1067.03 436.744C1067.03 366.795 1010.34 310.089 940.416 310.089C929.015 310.089 919.772 300.844 919.772 289.439C919.772 278.034 929.015 268.789 940.416 268.789C1033.15 268.789 1108.32 343.985 1108.32 436.744C1108.32 448.148 1099.08 457.394 1087.68 457.394C1076.28 457.394 1067.03 448.148 1067.03 436.744Z" fill="#E53855"/>
<path fill-rule="evenodd" clip-rule="evenodd" d="M423.06 828.711C423.06 774.024 378.742 729.693 324.071 729.693C312.682 729.693 303.449 720.457 303.449 709.064C303.449 697.672 312.682 688.436 324.071 688.436C401.521 688.436 464.306 751.239 464.306 828.711C464.306 840.103 455.072 849.339 443.683 849.339C432.294 849.339 423.06 840.103 423.06 828.711Z" fill="#FFC735"/>
<path fill-rule="evenodd" clip-rule="evenodd" d="M59.5135 817.191C59.3654 805.798 68.4776 796.442 79.8662 796.295C91.2549 796.146 100.607 805.261 100.755 816.653C100.903 828.045 91.7912 837.4 80.4026 837.549C69.0141 837.697 59.6617 828.582 59.5135 817.191Z" stroke="#257AD6" stroke-width="5" stroke-linecap="round"/>
<path fill-rule="evenodd" clip-rule="evenodd" d="M296.378 1169.97C284.989 1169.97 275.755 1160.73 275.755 1149.34C275.755 1137.95 284.989 1128.71 296.378 1128.71C307.767 1128.71 317.001 1137.95 317.001 1149.34C317.001 1160.73 307.767 1169.97 296.378 1169.97Z" stroke="#257AD6" stroke-width="5" stroke-linecap="round"/>
<path fill-rule="evenodd" clip-rule="evenodd" d="M396.545 1314.37C385.156 1314.37 375.922 1305.13 375.922 1293.74C375.922 1282.35 385.156 1273.11 396.545 1273.11C407.934 1273.11 417.168 1282.35 417.168 1293.74C417.168 1305.13 407.934 1314.37 396.545 1314.37Z" stroke="#257AD6" stroke-width="5" stroke-linecap="round"/>
<path fill-rule="evenodd" clip-rule="evenodd" d="M103.703 1369.18C92.3136 1369.18 83.0806 1359.95 83.0806 1348.55C83.0806 1337.16 92.3136 1327.92 103.703 1327.92C115.093 1327.92 124.326 1337.16 124.326 1348.55C124.326 1359.95 115.093 1369.18 103.703 1369.18Z" stroke="#257AD6" stroke-width="5" stroke-linecap="round"/>
<path fill-rule="evenodd" clip-rule="evenodd" d="M296.378 1224.78C284.989 1224.78 275.755 1215.54 275.755 1204.15C275.755 1192.76 284.989 1183.52 296.378 1183.52C307.767 1183.52 317.001 1192.76 317.001 1204.15C317.001 1215.54 307.767 1224.78 296.378 1224.78Z" fill="#463C74"/>
<path fill-rule="evenodd" clip-rule="evenodd" d="M296.378 1280.18C284.989 1280.18 275.755 1270.95 275.755 1259.55C275.755 1248.16 284.989 1238.93 296.378 1238.93C307.767 1238.93 317.001 1248.16 317.001 1259.55C317.001 1270.95 307.767 1280.18 296.378 1280.18Z" fill="#463C74"/>
<path fill-rule="evenodd" clip-rule="evenodd" d="M451.932 1321.44C440.543 1321.44 431.309 1312.2 431.309 1300.81C431.309 1289.42 440.543 1280.18 451.932 1280.18C463.321 1280.18 472.554 1289.42 472.554 1300.81C472.554 1312.2 463.321 1321.44 451.932 1321.44Z" stroke="#257AD6" stroke-width="5" stroke-linecap="round"/>
<path fill-rule="evenodd" clip-rule="evenodd" d="M451.932 1376.25C440.543 1376.25 431.309 1367.02 431.309 1355.62C431.309 1344.23 440.543 1335 451.932 1335C463.321 1335 472.554 1344.23 472.554 1355.62C472.554 1367.02 463.321 1376.25 451.932 1376.25Z" stroke="#257AD6" stroke-width="5" stroke-linecap="round"/>
<path fill-rule="evenodd" clip-rule="evenodd" d="M429.542 947.177C418.152 947.177 408.919 937.941 408.919 926.549C408.919 915.156 418.152 905.92 429.542 905.92C440.931 905.92 450.164 915.156 450.164 926.549C450.164 937.941 440.931 947.177 429.542 947.177Z" stroke="#257AD6" stroke-width="5" stroke-linecap="round"/>
<path fill-rule="evenodd" clip-rule="evenodd" d="M182.069 944.23C170.68 944.23 161.447 934.994 161.447 923.601C161.447 912.209 170.68 902.973 182.069 902.973C193.459 902.973 202.692 912.209 202.692 923.601C202.692 934.994 193.459 944.23 182.069 944.23Z" stroke="#257AD6" stroke-width="5" stroke-linecap="round"/>
<path fill-rule="evenodd" clip-rule="evenodd" d="M578.561 919.772C578.561 900.759 563.152 885.346 544.145 885.346C525.136 885.346 509.729 900.759 509.729 919.772C509.729 938.785 525.136 954.198 544.145 954.198C563.152 954.198 578.561 938.785 578.561 919.772ZM544.145 844.035C585.96 844.035 619.86 877.943 619.86 919.772C619.86 961.601 585.96 995.509 544.145 995.509C502.328 995.509 468.43 961.601 468.43 919.772C468.43 877.943 502.328 844.035 544.145 844.035Z" fill="#FFC735"/>
<path d="M677.603 754.578C677.603 743.18 668.358 733.94 656.954 733.94C637.947 733.94 622.539 718.539 622.539 699.542V561.949C622.539 542.952 637.947 527.551 656.954 527.551C668.358 527.551 677.603 518.31 677.603 506.912C677.603 495.514 668.358 486.273 656.954 486.273C615.139 486.273 581.242 520.154 581.242 561.949V699.542C581.242 701.235 581.297 702.915 581.407 704.58C547.041 715.096 522.049 747.055 522.049 784.849V864.652C522.049 876.05 531.294 885.291 542.698 885.291C554.101 885.291 563.346 876.05 563.346 864.652V784.849C563.346 764.976 576.944 748.277 595.346 743.541C609.082 762.718 631.557 775.217 656.954 775.217C668.358 775.217 677.603 765.977 677.603 754.578Z" fill="#E5E0D5"/>
<path fill-rule="evenodd" clip-rule="evenodd" d="M656.685 775.129C637.677 775.129 622.27 790.542 622.27 809.555C622.27 828.568 637.677 843.981 656.685 843.981C675.693 843.981 691.101 828.568 691.101 809.555C691.101 798.148 700.345 788.9 711.751 788.9C723.155 788.9 732.4 798.148 732.4 809.555C732.4 851.384 698.501 885.292 656.685 885.292C614.869 885.292 580.971 851.384 580.971 809.555C580.971 767.726 614.869 733.818 656.685 733.818C668.089 733.818 677.335 743.067 677.335 754.474C677.335 765.881 668.089 775.129 656.685 775.129Z" fill="#463C74"/>
<path d="M1153.75 913.877C1153.75 894.865 1169.15 879.452 1188.16 879.452C1207.17 879.452 1222.58 894.865 1222.58 913.877C1222.58 932.89 1207.17 948.303 1188.16 948.303C1176.76 948.303 1167.51 957.551 1167.51 968.959C1167.51 980.366 1176.76 989.614 1188.16 989.614C1229.98 989.614 1263.88 955.706 1263.88 913.877C1263.88 872.049 1229.98 838.141 1188.16 838.141C1146.34 838.141 1112.45 872.049 1112.45 913.877C1112.45 925.285 1121.69 934.533 1133.1 934.533C1144.5 934.533 1153.75 925.285 1153.75 913.877Z" fill="#E5E0D5"/>
<path fill-rule="evenodd" clip-rule="evenodd" d="M656.98 775.076C645.59 775.076 636.357 765.84 636.357 754.447C636.357 743.055 645.59 733.818 656.98 733.818C668.369 733.818 677.603 743.055 677.603 754.447C677.603 765.84 668.369 775.076 656.98 775.076Z" stroke="#257AD6" stroke-width="5" stroke-linecap="round"/>
<path fill-rule="evenodd" clip-rule="evenodd" d="M656.98 527.531C645.59 527.531 636.357 518.295 636.357 506.902C636.357 495.51 645.59 486.273 656.98 486.273C668.369 486.273 677.603 495.51 677.603 506.902C677.603 518.295 668.369 527.531 656.98 527.531Z" stroke="#257AD6" stroke-width="5" stroke-linecap="round"/>
<path fill-rule="evenodd" clip-rule="evenodd" d="M542.672 885.293C531.282 885.293 522.049 876.056 522.049 864.664C522.049 853.271 531.282 844.035 542.672 844.035C554.061 844.035 563.294 853.271 563.294 864.664C563.294 876.056 554.061 885.293 542.672 885.293Z" stroke="#257AD6" stroke-width="5" stroke-linecap="round"/>
<path fill-rule="evenodd" clip-rule="evenodd" d="M543.85 940.105C532.461 940.105 523.228 930.869 523.228 919.476C523.228 908.084 532.461 898.848 543.85 898.848C555.239 898.848 564.473 908.084 564.473 919.476C564.473 930.869 555.239 940.105 543.85 940.105Z" fill="#463C74"/>
<path fill-rule="evenodd" clip-rule="evenodd" d="M1409.83 736.519C1409.83 778.321 1375.93 812.208 1334.1 812.208H1196.42C1154.6 812.208 1120.7 778.321 1120.7 736.519C1120.7 694.717 1154.6 660.83 1196.42 660.83H1240.48V617.481C1240.48 575.68 1274.38 541.793 1316.21 541.793H1453.89C1472.9 541.793 1488.31 526.389 1488.31 507.389V444.085C1488.31 425.085 1472.9 409.681 1453.89 409.681C1442.49 409.681 1433.24 400.439 1433.24 389.039C1433.24 377.638 1442.49 368.396 1453.89 368.396C1495.72 368.396 1529.61 402.283 1529.61 444.085V507.389C1529.61 529.077 1520.49 548.636 1505.86 562.435C1520.49 576.235 1529.61 595.793 1529.61 617.481V679.409C1529.61 690.809 1520.36 700.051 1508.96 700.051C1497.56 700.051 1488.31 690.809 1488.31 679.409V617.481C1488.31 598.481 1472.9 583.077 1453.89 583.077H1316.21C1297.2 583.077 1281.78 598.481 1281.78 617.481V660.83H1334.1C1375.93 660.83 1409.83 694.717 1409.83 736.519ZM1196.42 702.115C1177.41 702.115 1162 717.518 1162 736.519C1162 755.52 1177.41 770.923 1196.42 770.923H1334.1C1353.11 770.923 1368.53 755.52 1368.53 736.519C1368.53 717.518 1353.11 702.115 1334.1 702.115H1196.42Z" fill="#E53855"/>
<path fill-rule="evenodd" clip-rule="evenodd" d="M1100.75 538.288C1124.24 547.84 1150.84 536.635 1160.28 513.525C1169.71 490.416 1158.54 463.848 1135.05 454.296C1122.08 449.019 1108.15 450.064 1096.64 456.005C1086.51 461.236 1074.04 457.278 1068.8 447.166C1063.56 437.054 1067.53 424.618 1077.66 419.387C1099.49 408.121 1126.04 406.109 1150.65 416.118C1195.09 434.193 1216.65 484.721 1198.53 529.084C1180.41 573.449 1129.61 594.542 1085.16 576.467C1074.6 572.17 1069.52 560.139 1073.83 549.598C1078.13 539.055 1090.19 533.992 1100.75 538.288Z" fill="#FFC735"/>
<path fill-rule="evenodd" clip-rule="evenodd" d="M1409.41 740.89C1409.41 793.298 1451.88 835.782 1504.28 835.782C1515.66 835.782 1524.9 845.018 1524.9 856.411C1524.9 867.804 1515.66 877.04 1504.28 877.04C1429.1 877.04 1368.17 816.083 1368.17 740.89C1368.17 729.498 1377.41 720.262 1388.79 720.262C1400.17 720.262 1409.41 729.498 1409.41 740.89Z" fill="#FFC735"/>
<path fill-rule="evenodd" clip-rule="evenodd" d="M1388.79 760.341C1377.41 760.341 1368.17 751.105 1368.17 739.713C1368.17 728.32 1377.41 719.084 1388.79 719.084C1400.17 719.084 1409.41 728.32 1409.41 739.713C1409.41 751.105 1400.17 760.341 1388.79 760.341Z" stroke="#257AD6" stroke-width="5" stroke-linecap="round"/>
<path fill-rule="evenodd" clip-rule="evenodd" d="M636.304 657.828C636.304 638.879 620.895 623.517 601.888 623.517C582.88 623.517 567.472 638.879 567.472 657.828C567.472 669.197 558.227 678.414 546.823 678.414C535.417 678.414 526.173 669.197 526.173 657.828C526.173 616.139 560.071 582.344 601.888 582.344C643.703 582.344 677.603 616.139 677.603 657.828C677.603 669.197 668.357 678.414 656.953 678.414C645.548 678.414 636.304 669.197 636.304 657.828Z" fill="#FFC735"/>
<path fill-rule="evenodd" clip-rule="evenodd" d="M975.105 700.855C975.105 681.906 959.696 666.544 940.689 666.544C921.682 666.544 906.274 681.906 906.274 700.855C906.274 712.225 897.028 721.442 885.624 721.442C874.22 721.442 864.975 712.225 864.975 700.855C864.975 659.166 898.873 625.371 940.689 625.371C982.506 625.371 1016.4 659.166 1016.4 700.855C1016.4 712.225 1007.16 721.442 995.755 721.442C984.351 721.442 975.105 712.225 975.105 700.855Z" fill="#463C74"/>
<path d="M456.056 1415.15C508.449 1415.15 550.921 1372.67 550.921 1320.26C550.921 1308.87 560.154 1299.63 571.543 1299.63C582.932 1299.63 592.166 1308.87 592.166 1320.26C592.166 1395.45 531.227 1456.41 456.056 1456.41C444.667 1456.41 435.434 1447.17 435.434 1435.78C435.434 1424.39 444.667 1415.15 456.056 1415.15Z" fill="#E5E0D5"/>
<path fill-rule="evenodd" clip-rule="evenodd" d="M665.253 927.68C726.067 927.68 775.366 878.367 775.366 817.535C775.366 806.13 784.61 796.883 796.012 796.883C807.414 796.883 816.658 806.13 816.658 817.535C816.658 901.178 748.871 968.985 665.253 968.985C653.85 968.985 644.606 959.738 644.606 948.333C644.606 936.927 653.85 927.68 665.253 927.68Z" fill="#E53855"/>
<path fill-rule="evenodd" clip-rule="evenodd" d="M801.339 548.16C789.95 548.16 780.716 538.924 780.716 527.531C780.716 516.138 789.95 506.902 801.339 506.902C812.728 506.902 821.962 516.138 821.962 527.531C821.962 538.924 812.728 548.16 801.339 548.16Z" stroke="#257AD6" stroke-width="5" stroke-linecap="round"/>
<path fill-rule="evenodd" clip-rule="evenodd" d="M1114.8 970.164C1114.8 981.556 1124.04 990.793 1135.43 990.793C1146.82 990.793 1156.05 981.556 1156.05 970.164C1156.05 958.771 1146.82 949.535 1135.43 949.535C1124.04 949.535 1114.8 958.771 1114.8 970.164Z" stroke="#257AD6" stroke-width="5" stroke-linecap="round"/>
<path fill-rule="evenodd" clip-rule="evenodd" d="M1060.01 970.164C1060.01 981.556 1069.24 990.793 1080.63 990.793C1092.02 990.793 1101.25 981.556 1101.25 970.164C1101.25 958.771 1092.02 949.535 1080.63 949.535C1069.24 949.535 1060.01 958.771 1060.01 970.164Z" stroke="#257AD6" stroke-width="5" stroke-linecap="round"/>
<path d="M1485.54 1188.27C1485.54 1146.55 1519.49 1112.74 1561.37 1112.74C1572.79 1112.74 1582.06 1103.51 1582.06 1092.14C1582.06 1080.76 1572.79 1071.54 1561.37 1071.54C1496.65 1071.54 1444.18 1123.8 1444.18 1188.27C1444.18 1199.64 1453.44 1208.87 1464.86 1208.87C1476.28 1208.87 1485.54 1199.64 1485.54 1188.27Z" fill="#E5E0D5"/>
<path fill-rule="evenodd" clip-rule="evenodd" d="M1485.42 1188.24C1485.42 1176.84 1476.18 1167.61 1464.8 1167.61C1453.42 1167.61 1444.18 1176.84 1444.18 1188.24C1444.18 1199.63 1453.42 1208.87 1464.8 1208.87C1476.18 1208.87 1485.42 1199.63 1485.42 1188.24Z" stroke="#257AD6" stroke-width="5" stroke-linecap="round"/>
<path fill-rule="evenodd" clip-rule="evenodd" d="M1280.08 1346.25C1261.07 1346.25 1245.66 1361.66 1245.66 1380.67C1245.66 1399.69 1261.07 1415.1 1280.08 1415.1C1299.09 1415.1 1314.5 1399.69 1314.5 1380.67C1314.5 1361.66 1299.09 1346.25 1280.08 1346.25ZM1204.37 1380.67C1204.37 1338.85 1238.26 1304.94 1280.08 1304.94C1321.9 1304.94 1355.79 1338.85 1355.79 1380.67C1355.79 1422.5 1321.9 1456.41 1280.08 1456.41C1238.26 1456.41 1204.37 1422.5 1204.37 1380.67Z" fill="#FFC735"/>
<path d="M867.342 1247.18C878.737 1247.18 887.975 1256.44 887.975 1267.86C887.975 1286.9 903.371 1302.33 922.363 1302.33H1059.91C1078.91 1302.33 1094.3 1286.9 1094.3 1267.86C1094.3 1256.44 1103.54 1247.18 1114.94 1247.18C1126.33 1247.18 1135.57 1256.44 1135.57 1267.86C1135.57 1293.24 1123.13 1315.71 1104.02 1329.48C1108.87 1347.27 1125.2 1360.24 1145.2 1360.24H1224.98C1236.37 1360.24 1245.61 1369.5 1245.61 1380.92C1245.61 1392.34 1236.37 1401.6 1224.98 1401.6H1145.2C1107.88 1401.6 1075.82 1377.62 1065.1 1343.52C1063.39 1343.63 1061.66 1343.69 1059.91 1343.69H922.363C880.58 1343.69 846.709 1309.74 846.709 1267.86C846.709 1256.44 855.947 1247.18 867.342 1247.18Z" fill="#E5E0D5"/>
<path fill-rule="evenodd" clip-rule="evenodd" d="M697.931 1000.81C739.748 1000.81 773.646 1034.68 773.646 1076.45V1213.98C773.646 1255.75 739.748 1289.61 697.931 1289.61C656.114 1289.61 622.216 1255.75 622.216 1213.98V1076.45C622.216 1034.68 656.114 1000.81 697.931 1000.81ZM732.347 1076.45C732.347 1057.46 716.938 1042.07 697.931 1042.07C678.924 1042.07 663.515 1057.46 663.515 1076.45V1213.98C663.515 1232.96 678.924 1248.36 697.931 1248.36C716.938 1248.36 732.347 1232.96 732.347 1213.98V1076.45Z" fill="#E53855"/>
<path fill-rule="evenodd" clip-rule="evenodd" d="M867.332 1288.44C878.721 1288.44 887.954 1279.19 887.954 1267.78C887.954 1248.76 903.343 1233.35 922.325 1233.35V1233.35H1059.81C1078.79 1233.35 1094.18 1248.76 1094.18 1267.78C1094.18 1279.19 1103.41 1288.44 1114.8 1288.44C1126.19 1288.44 1135.43 1279.19 1135.43 1267.78C1135.43 1246.07 1126.31 1226.5 1111.71 1212.69C1126.31 1198.88 1135.43 1179.3 1135.43 1157.6V1094.24C1135.43 1052.41 1101.57 1018.49 1059.81 1018.49C1048.42 1018.49 1039.19 1027.74 1039.19 1039.15C1039.19 1050.56 1048.42 1059.81 1059.81 1059.81C1078.79 1059.81 1094.18 1075.23 1094.18 1094.24V1157.6C1094.18 1176.61 1078.79 1192.03 1059.81 1192.03H922.327C922.325 1192.03 922.327 1192.03 922.327 1192.03C880.565 1192.03 846.709 1225.94 846.709 1267.78C846.709 1279.19 855.942 1288.44 867.332 1288.44Z" stroke="#E53855" stroke-width="3" stroke-linecap="round"/>
<path fill-rule="evenodd" clip-rule="evenodd" d="M1135.48 1267.51C1135.48 1286.52 1150.89 1301.94 1169.9 1301.94C1188.9 1301.94 1204.31 1286.52 1204.31 1267.51C1204.31 1248.5 1188.9 1233.09 1169.9 1233.09C1158.49 1233.09 1149.25 1223.84 1149.25 1212.43C1149.25 1201.02 1158.49 1191.78 1169.9 1191.78C1211.71 1191.78 1245.61 1225.68 1245.61 1267.51C1245.61 1309.34 1211.71 1343.25 1169.9 1343.25C1128.08 1343.25 1094.18 1309.34 1094.18 1267.51C1094.18 1256.1 1103.43 1246.86 1114.83 1246.86C1126.23 1246.86 1135.48 1256.1 1135.48 1267.51Z" fill="#463C74"/>
<path fill-rule="evenodd" clip-rule="evenodd" d="M959.785 1098.36C959.785 1079.34 944.377 1063.93 925.369 1063.93C906.362 1063.93 890.954 1079.34 890.954 1098.36C890.954 1117.37 906.362 1132.78 925.369 1132.78C936.773 1132.78 946.019 1142.03 946.019 1153.44C946.019 1164.84 936.773 1174.09 925.369 1174.09C883.553 1174.09 849.655 1140.18 849.655 1098.36C849.655 1056.53 883.553 1022.62 925.369 1022.62C967.186 1022.62 1001.08 1056.53 1001.08 1098.36C1001.08 1109.76 991.839 1119.01 980.435 1119.01C969.031 1119.01 959.785 1109.76 959.785 1098.36Z" fill="#463C74"/>
<path fill-rule="evenodd" clip-rule="evenodd" d="M677.603 1209.98C677.603 1184.59 657.199 1164.18 632.233 1164.18C607.267 1164.18 586.863 1184.59 586.863 1209.98C586.863 1224.01 593.08 1236.53 602.921 1244.95C611.585 1252.37 612.615 1265.42 605.221 1274.11C597.827 1282.79 584.81 1283.83 576.147 1276.41C557.485 1260.44 545.618 1236.59 545.618 1209.98C545.618 1161.93 584.304 1122.82 632.233 1122.82C680.161 1122.82 718.848 1161.93 718.848 1209.98C718.848 1221.41 709.615 1230.66 698.225 1230.66C686.836 1230.66 677.603 1221.41 677.603 1209.98Z" stroke="#257AD6" stroke-width="5" stroke-linecap="round"/>
<path fill-rule="evenodd" clip-rule="evenodd" d="M1135.43 1267.22C1135.43 1278.61 1126.19 1287.85 1114.8 1287.85C1103.41 1287.85 1094.18 1278.61 1094.18 1267.22C1094.18 1255.82 1103.41 1246.59 1114.8 1246.59C1126.19 1246.59 1135.43 1255.82 1135.43 1267.22Z" stroke="#257AD6" stroke-width="5" stroke-linecap="round"/>
<path fill-rule="evenodd" clip-rule="evenodd" d="M887.954 1267.81C887.954 1279.2 878.721 1288.44 867.332 1288.44C855.942 1288.44 846.709 1279.2 846.709 1267.81C846.709 1256.41 855.942 1247.18 867.332 1247.18C878.721 1247.18 887.954 1256.41 887.954 1267.81Z" stroke="#257AD6" stroke-width="5" stroke-linecap="round"/>
<path fill-rule="evenodd" clip-rule="evenodd" d="M1245.61 1380.97C1245.61 1392.36 1236.38 1401.6 1224.99 1401.6C1213.6 1401.6 1204.37 1392.36 1204.37 1380.97C1204.37 1369.58 1213.6 1360.34 1224.99 1360.34C1236.38 1360.34 1245.61 1369.58 1245.61 1380.97Z" stroke="#257AD6" stroke-width="5" stroke-linecap="round"/>
<path fill-rule="evenodd" clip-rule="evenodd" d="M1301 1380.38C1301 1391.77 1291.76 1401.01 1280.37 1401.01C1268.98 1401.01 1259.75 1391.77 1259.75 1380.38C1259.75 1368.99 1268.98 1359.75 1280.37 1359.75C1291.76 1359.75 1301 1368.99 1301 1380.38Z" stroke="#257AD6" stroke-width="5" stroke-linecap="round"/>
<path fill-rule="evenodd" clip-rule="evenodd" d="M1018.8 1288.49C999.859 1288.49 984.502 1303.9 984.502 1322.91C984.502 1341.93 999.859 1357.34 1018.8 1357.34C1030.17 1357.34 1039.38 1366.59 1039.38 1378C1039.38 1389.4 1030.17 1398.65 1018.8 1398.65C977.126 1398.65 943.341 1364.74 943.341 1322.91C943.341 1281.09 977.126 1247.18 1018.8 1247.18C1030.17 1247.18 1039.38 1256.43 1039.38 1267.83C1039.38 1279.24 1030.17 1288.49 1018.8 1288.49Z" fill="#FFC735"/>
<path fill-rule="evenodd" clip-rule="evenodd" d="M1061.15 919.476C1034.91 919.476 1012.94 941.255 1012.94 968.985C1012.94 996.715 1034.91 1018.49 1061.15 1018.49C1072.56 1018.49 1081.81 1027.73 1081.81 1039.12C1081.81 1050.52 1072.56 1059.75 1061.15 1059.75C1011.32 1059.75 971.623 1018.73 971.623 968.985C971.623 919.244 1011.32 878.219 1061.15 878.219C1072.56 878.219 1081.81 887.455 1081.81 898.847C1081.81 910.24 1072.56 919.476 1061.15 919.476Z" fill="#FFC735"/>
<path fill-rule="evenodd" clip-rule="evenodd" d="M925.06 1174.17C872.629 1174.17 830.126 1216.73 830.126 1269.24C830.126 1311.09 796.246 1345.02 754.453 1345.02C712.66 1345.02 678.781 1311.09 678.781 1269.24C678.781 1257.82 688.022 1248.57 699.419 1248.57C710.817 1248.57 720.057 1257.82 720.057 1269.24C720.057 1288.26 735.457 1303.68 754.453 1303.68C773.45 1303.68 788.85 1288.26 788.85 1269.24C788.85 1193.91 849.833 1132.84 925.06 1132.84C936.457 1132.84 945.698 1142.09 945.698 1153.5C945.698 1164.92 936.457 1174.17 925.06 1174.17Z" fill="#FFC735"/>
<path d="M702.35 1000.81C788.91 1000.81 859.083 930.62 859.083 844.035C859.083 832.642 868.316 823.406 879.705 823.406C891.094 823.406 900.328 832.642 900.328 844.035C900.328 953.407 811.69 1042.07 702.35 1042.07C690.961 1042.07 681.728 1032.83 681.728 1021.44C681.728 1010.05 690.961 1000.81 702.35 1000.81Z" fill="#E5E0D5"/>
<path fill-rule="evenodd" clip-rule="evenodd" d="M1274.48 1252.48C1274.48 1200.07 1232.01 1157.59 1179.62 1157.59C1168.23 1157.59 1159 1148.35 1159 1136.96C1159 1125.57 1168.23 1116.33 1179.62 1116.33C1254.79 1116.33 1315.73 1177.29 1315.73 1252.48C1315.73 1263.87 1306.49 1273.11 1295.1 1273.11C1283.72 1273.11 1274.48 1263.87 1274.48 1252.48Z" stroke="#257AD6" stroke-width="5" stroke-linecap="round"/>
<path fill-rule="evenodd" clip-rule="evenodd" d="M43.0134 1320.26C43.0134 1372.67 85.4854 1415.15 137.878 1415.15C149.267 1415.15 158.5 1424.39 158.5 1435.78C158.5 1447.17 149.267 1456.41 137.878 1456.41C62.7064 1456.41 1.76806 1395.45 1.76807 1320.26C1.76807 1308.87 11.0011 1299.63 22.3907 1299.63C33.7802 1299.63 43.0134 1308.87 43.0134 1320.26Z" fill="#E53855"/>
<path fill-rule="evenodd" clip-rule="evenodd" d="M586.895 1110.96C552.022 1110.96 523.752 1139.24 523.752 1174.13C523.752 1185.5 514.533 1194.72 503.162 1194.72C491.79 1194.72 482.571 1185.5 482.571 1174.13C482.571 1116.49 529.278 1069.77 586.895 1069.77C598.267 1069.77 607.486 1078.99 607.486 1090.37C607.486 1101.74 598.267 1110.96 586.895 1110.96Z" fill="#FFC735"/>
<path fill-rule="evenodd" clip-rule="evenodd" d="M1039.38 1267.81C1039.38 1279.2 1030.15 1288.44 1018.76 1288.44C1007.37 1288.44 998.138 1279.2 998.138 1267.81C998.138 1256.41 1007.37 1247.18 1018.76 1247.18C1030.15 1247.18 1039.38 1256.41 1039.38 1267.81Z" stroke="#257AD6" stroke-width="5" stroke-linecap="round"/>
<path fill-rule="evenodd" clip-rule="evenodd" d="M946.287 1153.46C946.287 1164.86 937.053 1174.09 925.664 1174.09C914.275 1174.09 905.042 1164.86 905.042 1153.46C905.042 1142.07 914.275 1132.84 925.664 1132.84C937.053 1132.84 946.287 1142.07 946.287 1153.46Z" stroke="#257AD6" stroke-width="5" stroke-linecap="round"/>
<path fill-rule="evenodd" clip-rule="evenodd" d="M945.698 984.308C945.698 995.701 936.464 1004.94 925.075 1004.94C913.686 1004.94 904.452 995.701 904.452 984.308C904.452 972.916 913.686 963.68 925.075 963.68C936.464 963.68 945.698 972.916 945.698 984.308Z" stroke="#257AD6" stroke-width="5" stroke-linecap="round"/>
<path fill-rule="evenodd" clip-rule="evenodd" d="M945.698 928.906C945.698 940.299 936.464 949.535 925.075 949.535C913.686 949.535 904.452 940.299 904.452 928.906C904.452 917.513 913.686 908.277 925.075 908.277C936.464 908.277 945.698 917.513 945.698 928.906Z" stroke="#257AD6" stroke-width="5" stroke-linecap="round"/>
<path fill-rule="evenodd" clip-rule="evenodd" d="M906.22 701.402C906.22 712.795 896.987 722.031 885.597 722.031C874.208 722.031 864.975 712.795 864.975 701.402C864.975 690.01 874.208 680.773 885.597 680.773C896.987 680.773 906.22 690.01 906.22 701.402Z" stroke="#257AD6" stroke-width="5" stroke-linecap="round"/>
<path fill-rule="evenodd" clip-rule="evenodd" d="M1081.81 1039.12C1081.81 1050.52 1072.57 1059.75 1061.18 1059.75C1049.8 1059.75 1040.56 1050.52 1040.56 1039.12C1040.56 1027.73 1049.8 1018.49 1061.18 1018.49C1072.57 1018.49 1081.81 1027.73 1081.81 1039.12Z" stroke="#257AD6" stroke-width="5" stroke-linecap="round"/>
<path fill-rule="evenodd" clip-rule="evenodd" d="M289.361 460.045C289.361 441.033 304.77 425.62 323.777 425.62C342.784 425.62 358.192 441.033 358.192 460.045C358.192 479.058 342.784 494.471 323.777 494.471C312.373 494.471 303.127 503.719 303.127 515.127C303.127 526.534 312.373 535.782 323.777 535.782C365.593 535.782 399.491 501.874 399.491 460.045C399.491 418.217 365.593 384.309 323.777 384.309C281.96 384.309 248.062 418.217 248.062 460.045C248.062 471.453 257.307 480.701 268.711 480.701C280.115 480.701 289.361 471.453 289.361 460.045Z" fill="#463C74"/>
<path fill-rule="evenodd" clip-rule="evenodd" d="M268.685 640.105C268.685 628.713 259.451 619.477 248.062 619.477C236.673 619.477 227.439 628.713 227.439 640.105C227.439 651.498 236.673 660.734 248.062 660.734C259.451 660.734 268.685 651.498 268.685 640.105Z" fill="#463C74"/>
<path fill-rule="evenodd" clip-rule="evenodd" d="M447.807 663.681C447.807 652.289 438.574 643.053 427.185 643.053C415.795 643.053 406.562 652.289 406.562 663.681C406.562 675.074 415.795 684.31 427.185 684.31C438.574 684.31 447.807 675.074 447.807 663.681Z" fill="#463C74"/>
<path fill-rule="evenodd" clip-rule="evenodd" d="M504.372 660.734C504.372 649.342 495.139 640.105 483.75 640.105C472.36 640.105 463.127 649.342 463.127 660.734C463.127 672.127 472.36 681.363 483.75 681.363C495.139 681.363 504.372 672.127 504.372 660.734Z" fill="#463C74"/>
<path fill-rule="evenodd" clip-rule="evenodd" d="M504.372 718.494C504.372 707.101 495.139 697.865 483.75 697.865C472.36 697.865 463.127 707.101 463.127 718.494C463.127 729.886 472.36 739.123 483.75 739.123C495.139 739.123 504.372 729.886 504.372 718.494Z" fill="#463C74"/>
<path fill-rule="evenodd" clip-rule="evenodd" d="M223.315 1436.96C223.315 1425.57 214.081 1416.33 202.692 1416.33C191.303 1416.33 182.069 1425.57 182.069 1436.96C182.069 1448.35 191.303 1457.59 202.692 1457.59C214.081 1457.59 223.315 1448.35 223.315 1436.96Z" fill="#463C74"/>
<path fill-rule="evenodd" clip-rule="evenodd" d="M285.183 1436.96C285.183 1425.57 275.949 1416.33 264.56 1416.33C253.171 1416.33 243.938 1425.57 243.938 1436.96C243.938 1448.35 253.171 1457.59 264.56 1457.59C275.949 1457.59 285.183 1448.35 285.183 1436.96Z" stroke="#257AD6" stroke-width="5" stroke-linecap="round"/>
<path fill-rule="evenodd" clip-rule="evenodd" d="M471.376 1435.78C471.376 1424.39 462.143 1415.15 450.754 1415.15C439.364 1415.15 430.131 1424.39 430.131 1435.78C430.131 1447.18 439.364 1456.41 450.754 1456.41C462.143 1456.41 471.376 1447.18 471.376 1435.78Z" fill="#463C74"/>
<path fill-rule="evenodd" clip-rule="evenodd" d="M399.491 347.178C399.491 335.785 390.258 326.549 378.869 326.549C367.48 326.549 358.246 335.785 358.246 347.178C358.246 358.57 367.48 367.806 378.869 367.806C390.258 367.806 399.491 358.57 399.491 347.178Z" stroke="#F6AE9F" stroke-width="5" stroke-linecap="round"/>
<path fill-rule="evenodd" clip-rule="evenodd" d="M199.788 439.069C180.844 439.069 165.487 423.656 165.487 404.643C165.487 385.63 180.844 370.217 199.788 370.217C211.154 370.217 220.368 360.969 220.368 349.562C220.368 338.154 211.154 328.906 199.788 328.906C158.111 328.906 124.326 362.815 124.326 404.643C124.326 446.472 158.111 480.38 199.788 480.38C211.154 480.38 220.368 471.132 220.368 459.724C220.368 448.317 211.154 439.069 199.788 439.069Z" fill="#FFC735"/>
<path fill-rule="evenodd" clip-rule="evenodd" d="M97.2218 647.177C149.614 647.177 192.086 689.661 192.086 742.069C192.086 753.462 201.32 762.698 212.709 762.698C224.098 762.698 233.331 753.462 233.331 742.069C233.331 666.876 172.393 605.92 97.2218 605.92C85.8322 605.92 76.5991 615.156 76.5991 626.549C76.5991 637.941 85.8322 647.177 97.2218 647.177Z" stroke="#257AD6" stroke-width="5" stroke-linecap="round"/>
<path fill-rule="evenodd" clip-rule="evenodd" d="M100.757 762.699C100.757 751.306 91.524 742.07 80.1344 742.07C68.7448 742.07 59.5117 751.306 59.5117 762.699C59.5117 774.092 68.7448 783.328 80.1344 783.328C91.524 783.328 100.757 774.092 100.757 762.699Z" stroke="#F6AE9F" stroke-width="5" stroke-linecap="round"/>
<path fill-rule="evenodd" clip-rule="evenodd" d="M1001.08 1153.46C1001.08 1164.86 991.851 1174.09 980.462 1174.09C969.072 1174.09 959.839 1164.86 959.839 1153.46C959.839 1142.07 969.072 1132.84 980.462 1132.84C991.851 1132.84 1001.08 1142.07 1001.08 1153.46Z" fill="#463C74"/>
<path fill-rule="evenodd" clip-rule="evenodd" d="M1055.88 1153.46C1055.88 1164.86 1046.65 1174.09 1035.26 1174.09C1023.87 1174.09 1014.64 1164.86 1014.64 1153.46C1014.64 1142.07 1023.87 1132.84 1035.26 1132.84C1046.65 1132.84 1055.88 1142.07 1055.88 1153.46Z" fill="#463C74"/>
<path fill-rule="evenodd" clip-rule="evenodd" d="M718.848 1021.44C718.848 1032.83 709.615 1042.07 698.226 1042.07C686.836 1042.07 677.603 1032.83 677.603 1021.44C677.603 1010.05 686.836 1000.81 698.226 1000.81C709.615 1000.81 718.848 1010.05 718.848 1021.44Z" stroke="#257AD6" stroke-width="5" stroke-linecap="round"/>
<path fill-rule="evenodd" clip-rule="evenodd" d="M720.027 1268.99C720.027 1280.38 710.793 1289.61 699.404 1289.61C688.015 1289.61 678.781 1280.38 678.781 1268.99C678.781 1257.59 688.015 1248.36 699.404 1248.36C710.793 1248.36 720.027 1257.59 720.027 1268.99Z" stroke="#257AD6" stroke-width="5" stroke-linecap="round"/>
<path fill-rule="evenodd" clip-rule="evenodd" d="M949.891 454.447C926.584 454.447 907.467 473.471 907.467 497.214C907.467 520.956 926.584 539.98 949.891 539.98C1034.58 539.98 1103.02 608.945 1103.02 693.74C1103.02 705.132 1093.77 714.368 1082.36 714.368C1070.95 714.368 1061.71 705.132 1061.71 693.74C1061.71 631.484 1011.52 581.238 949.891 581.238C903.521 581.238 866.153 543.495 866.153 497.214C866.153 450.932 903.521 413.189 949.891 413.189C961.3 413.189 970.547 422.426 970.547 433.818C970.547 445.211 961.3 454.447 949.891 454.447Z" fill="#F6AE9F"/>
<path fill-rule="evenodd" clip-rule="evenodd" d="M1061.18 693.786C1061.18 756.41 1011.13 806.81 949.822 806.81C938.433 806.81 929.2 816.067 929.2 827.485C929.2 838.904 938.433 848.16 949.822 848.16C1034.31 848.16 1102.43 778.842 1102.43 693.786C1102.43 682.368 1093.2 673.111 1081.81 673.111C1070.42 673.111 1061.18 682.368 1061.18 693.786Z" stroke="#F6AE9F" stroke-width="5" stroke-linecap="round"/>
<path fill-rule="evenodd" clip-rule="evenodd" d="M1081.81 714.369C1070.42 714.369 1061.18 705.133 1061.18 693.74C1061.18 682.347 1070.42 673.111 1081.81 673.111C1093.2 673.111 1102.43 682.347 1102.43 693.74C1102.43 705.133 1093.2 714.369 1081.81 714.369Z" fill="#463C74"/>
<path fill-rule="evenodd" clip-rule="evenodd" d="M801.339 568.789C812.728 568.789 821.962 578.039 821.962 589.449V678.974C821.962 690.384 812.728 699.634 801.339 699.634C789.95 699.634 780.716 690.384 780.716 678.974V589.449C780.716 578.039 789.95 568.789 801.339 568.789Z" fill="#E53855"/>
<path fill-rule="evenodd" clip-rule="evenodd" d="M463.087 452.7C463.087 529.487 400.857 591.735 324.092 591.735C312.691 591.735 303.449 600.981 303.449 612.384C303.449 623.788 312.691 633.033 324.092 633.033C423.658 633.033 504.373 552.295 504.373 452.7C504.373 441.296 495.13 432.051 483.73 432.051C472.329 432.051 463.087 441.296 463.087 452.7Z" fill="#F6AE9F"/>
<path d="M1142.5 496.883C1142.5 508.275 1133.25 517.511 1121.84 517.511H946.914C935.504 517.511 926.253 508.275 926.253 496.883C926.253 485.49 935.504 476.254 946.914 476.254H1121.84C1133.25 476.254 1142.5 485.49 1142.5 496.883Z" fill="#E5E0D5"/>
<path fill-rule="evenodd" clip-rule="evenodd" d="M1101.1 452.53C1093.05 460.586 1079.99 460.586 1071.94 452.53C1063.88 444.473 1063.88 431.411 1071.94 423.357C1079.99 415.3 1093.05 415.3 1101.1 423.357C1109.16 431.411 1109.16 444.473 1101.1 452.53Z" fill="#463C74"/>
<path fill-rule="evenodd" clip-rule="evenodd" d="M960.869 390.645C952.815 398.701 939.757 398.701 931.704 390.645C923.651 382.589 923.651 369.528 931.704 361.472C939.757 353.416 952.815 353.416 960.869 361.472C968.923 369.528 968.923 382.589 960.869 390.645Z" fill="#463C74"/>
<path fill-rule="evenodd" clip-rule="evenodd" d="M0.589844 898.847C0.589844 887.455 9.82293 878.219 21.2125 878.219H87.2051C98.5947 878.219 107.828 887.455 107.828 898.847C107.828 910.24 98.5947 919.476 87.2051 919.476H21.2125C9.82293 919.476 0.589844 910.24 0.589844 898.847Z" fill="#463C74"/>
<path fill-rule="evenodd" clip-rule="evenodd" d="M656.98 1453.46C645.591 1453.46 636.357 1444.25 636.357 1432.88V1373.86C636.357 1362.49 645.591 1353.27 656.98 1353.27C668.369 1353.27 677.603 1362.49 677.603 1373.86V1432.88C677.603 1444.25 668.369 1453.46 656.98 1453.46Z" fill="#E53855"/>
<path fill-rule="evenodd" clip-rule="evenodd" d="M755.969 1436.96C755.969 1425.57 765.212 1416.33 776.612 1416.33H940.375C951.775 1416.33 961.018 1425.57 961.018 1436.96C961.018 1448.35 951.775 1457.59 940.375 1457.59H776.612C765.212 1457.59 755.969 1448.35 755.969 1436.96Z" fill="#FFC735"/>
<path fill-rule="evenodd" clip-rule="evenodd" d="M945.698 1457.59C934.309 1457.59 925.075 1448.35 925.075 1436.96C925.075 1425.57 934.309 1416.33 945.698 1416.33C957.087 1416.33 966.321 1425.57 966.321 1436.96C966.321 1448.35 957.087 1457.59 945.698 1457.59Z" stroke="#257AD6" stroke-width="5" stroke-linecap="round"/>
<path fill-rule="evenodd" clip-rule="evenodd" d="M787.346 448.112C795.399 440.056 808.457 440.056 816.511 448.112C824.564 456.169 824.564 469.229 816.511 477.286C808.457 485.342 795.399 485.342 787.346 477.286C779.292 469.229 779.292 456.169 787.346 448.112Z" fill="#463C74"/>
<path fill-rule="evenodd" clip-rule="evenodd" d="M1196.12 1051.5C1269.01 1051.5 1328.1 992.39 1328.1 919.476C1328.1 908.084 1337.33 898.848 1348.72 898.848C1360.11 898.848 1369.35 908.084 1369.35 919.476C1369.35 1015.18 1291.79 1092.76 1196.12 1092.76C1184.73 1092.76 1175.49 1083.52 1175.49 1072.13C1175.49 1060.74 1184.73 1051.5 1196.12 1051.5Z" fill="#E53855"/>
<path fill-rule="evenodd" clip-rule="evenodd" d="M1363.31 934.063C1355.25 942.119 1342.19 942.119 1334.14 934.063C1326.09 926.007 1326.09 912.945 1334.14 904.89C1342.19 896.834 1355.25 896.834 1363.31 904.89C1371.36 912.945 1371.36 926.007 1363.31 934.063Z" fill="#463C74"/>
<path fill-rule="evenodd" clip-rule="evenodd" d="M1421.64 934.063C1413.58 942.119 1400.52 942.119 1392.48 934.063C1384.42 926.007 1384.42 912.945 1392.48 904.89C1400.52 896.834 1413.58 896.834 1421.64 904.89C1429.69 912.945 1429.69 926.007 1421.64 934.063Z" fill="#463C74"/>
<path fill-rule="evenodd" clip-rule="evenodd" d="M1559.63 1011.49C1460.76 1011.49 1380.61 1091.66 1380.61 1190.56C1380.61 1201.97 1371.36 1211.22 1359.95 1211.22C1348.54 1211.22 1339.3 1201.97 1339.3 1190.56C1339.3 1068.84 1437.94 970.164 1559.63 970.164C1571.03 970.164 1580.29 979.415 1580.29 990.826C1580.29 1002.24 1571.03 1011.49 1559.63 1011.49Z" fill="#FFC735"/>
<path fill-rule="evenodd" clip-rule="evenodd" d="M1142.5 496.779C1142.55 508.172 1133.37 517.455 1121.98 517.511C1110.59 517.569 1101.31 508.381 1101.25 496.986C1101.19 485.594 1110.38 476.312 1121.77 476.254C1133.16 476.196 1142.44 485.386 1142.5 496.779Z" stroke="#257AD6" stroke-width="5" stroke-linecap="round"/>
<path d="M1549.04 940.105H1467.17C1455.78 940.105 1446.53 930.869 1446.53 919.476C1446.53 908.084 1455.78 898.848 1467.17 898.848H1549.04C1560.43 898.848 1569.68 908.084 1569.68 919.476C1569.68 930.869 1560.43 940.105 1549.04 940.105Z" fill="#E5E0D5"/>
<path fill-rule="evenodd" clip-rule="evenodd" d="M1580.29 990.793C1580.29 1002.19 1571.05 1011.42 1559.66 1011.42C1548.28 1011.42 1539.04 1002.19 1539.04 990.793C1539.04 979.4 1548.28 970.164 1559.66 970.164C1571.05 970.164 1580.29 979.4 1580.29 990.793Z" stroke="#257AD6" stroke-width="5" stroke-linecap="round"/>
<path d="M1450.7 299.491C1431.75 299.491 1416.4 314.904 1416.4 333.916C1416.4 352.929 1431.75 368.342 1450.7 368.342C1462.06 368.342 1471.28 377.59 1471.28 388.998C1471.28 400.405 1462.06 409.653 1450.7 409.653C1409.02 409.653 1375.24 375.745 1375.24 333.916C1375.24 292.088 1409.02 258.18 1450.7 258.18C1462.06 258.18 1471.28 267.427 1471.28 278.835C1471.28 290.243 1462.06 299.491 1450.7 299.491Z" fill="#E5E0D5"/>
<path fill-rule="evenodd" clip-rule="evenodd" d="M1472.46 389.025C1472.46 400.418 1463.22 409.654 1451.84 409.654C1440.45 409.654 1431.21 400.418 1431.21 389.025C1431.21 377.632 1440.45 368.396 1451.84 368.396C1463.22 368.396 1472.46 377.632 1472.46 389.025Z" fill="#463C74"/>
<path fill-rule="evenodd" clip-rule="evenodd" d="M1387.61 496.883C1387.61 508.275 1378.37 517.511 1366.99 517.511C1355.6 517.511 1346.37 508.275 1346.37 496.883C1346.37 485.49 1355.6 476.254 1366.99 476.254C1378.37 476.254 1387.61 485.49 1387.61 496.883Z" fill="#463C74"/>
<path fill-rule="evenodd" clip-rule="evenodd" d="M1442.41 496.883C1442.41 508.275 1433.17 517.511 1421.79 517.511C1410.4 517.511 1401.16 508.275 1401.16 496.883C1401.16 485.49 1410.4 476.254 1421.79 476.254C1433.17 476.254 1442.41 485.49 1442.41 496.883Z" fill="#463C74"/>
<path fill-rule="evenodd" clip-rule="evenodd" d="M1508.99 700.812C1497.61 700.812 1488.37 691.576 1488.37 680.183C1488.37 668.791 1497.61 659.555 1508.99 659.555C1520.38 659.555 1529.61 668.791 1529.61 680.183C1529.61 691.576 1520.38 700.812 1508.99 700.812Z" fill="#463C74"/>
</g>
<path d="M1136.51 301.051H1054.64C1043.25 301.051 1034 291.822 1034 280.437C1034 269.052 1043.25 259.822 1054.64 259.822H1136.51C1147.9 259.822 1157.15 269.052 1157.15 280.437C1157.15 291.822 1147.9 301.051 1136.51 301.051Z" fill="#E5E0D5"/>
<path fill-rule="evenodd" clip-rule="evenodd" d="M158.245 553.249C158.245 541.864 149.012 532.635 137.623 532.635C126.233 532.635 117 541.864 117 553.249C117 564.634 126.233 573.864 137.623 573.864C149.012 573.864 158.245 564.634 158.245 553.249Z" stroke="#F6AE9F" stroke-width="5" stroke-linecap="round"/>
<path fill-rule="evenodd" clip-rule="evenodd" d="M724.245 301.423C724.245 290.038 715.012 280.809 703.623 280.809C692.233 280.809 683 290.038 683 301.423C683 312.808 692.233 322.038 703.623 322.038C715.012 322.038 724.245 312.808 724.245 301.423Z" stroke="#5ACEF2" stroke-width="5" stroke-linecap="round"/>
<path d="M137.462 298.107C118.514 298.107 103.161 313.509 103.161 332.509C103.161 351.509 118.514 366.911 137.462 366.911C148.823 366.911 158.043 376.153 158.043 387.552C158.043 398.952 148.823 408.194 137.462 408.194C95.7796 408.194 62 374.309 62 332.509C62 290.709 95.7796 256.824 137.462 256.824C148.823 256.824 158.043 266.066 158.043 277.466C158.043 288.865 148.823 298.107 137.462 298.107Z" fill="#E5E0D5"/>
<path d="M1541.51 1333.34H1459.64C1448.25 1333.34 1439 1324.11 1439 1312.73C1439 1301.34 1448.25 1292.11 1459.64 1292.11H1541.51C1552.9 1292.11 1562.15 1301.34 1562.15 1312.73C1562.15 1324.11 1552.9 1333.34 1541.51 1333.34Z" fill="#E5E0D5"/>
<path d="M1480.51 1380.31H1398.64C1387.25 1380.31 1378 1371.08 1378 1359.7C1378 1348.31 1387.25 1339.08 1398.64 1339.08H1480.51C1491.9 1339.08 1501.15 1348.31 1501.15 1359.7C1501.15 1371.08 1491.9 1380.31 1480.51 1380.31Z" fill="#E5E0D5"/>
<path fill-rule="evenodd" clip-rule="evenodd" d="M1435.65 1404.83C1496.46 1404.83 1545.76 1355.56 1545.76 1294.77C1545.76 1283.37 1555 1274.13 1566.41 1274.13C1577.81 1274.13 1587.05 1283.37 1587.05 1294.77C1587.05 1378.35 1519.26 1446.11 1435.65 1446.11C1424.24 1446.11 1415 1436.87 1415 1425.47C1415 1414.08 1424.24 1404.83 1435.65 1404.83Z" fill="#E53855"/>
<path fill-rule="evenodd" clip-rule="evenodd" d="M881.279 313.12C828.847 313.12 786.344 355.654 786.344 408.123C786.344 449.946 752.465 483.85 710.672 483.85C668.879 483.85 635 449.946 635 408.123C635 396.717 644.24 387.47 655.638 387.47C667.035 387.47 676.276 396.717 676.276 408.123C676.276 427.133 691.676 442.544 710.672 442.544C729.669 442.544 745.069 427.133 745.069 408.123C745.069 332.842 806.052 271.814 881.279 271.814C892.676 271.814 901.916 281.061 901.916 292.467C901.916 303.873 892.676 313.12 881.279 313.12Z" fill="#FFC735"/>
<rect y="1457" width="1600" height="1868" fill="#C4C4C4"/>
</g>
</g>
<path fill-rule="evenodd" clip-rule="evenodd" d="M1007.71 264.637C1019.65 264.503 1029.2 256.051 1029.05 245.759C1028.89 235.467 1019.09 227.232 1007.14 227.366C999.978 227.447 994.094 222.506 994.001 216.33C993.908 210.156 999.641 205.084 1006.81 205.004C1033.08 204.709 1054.65 222.826 1055 245.469C1055.34 268.111 1034.32 286.705 1008.04 286.999C1000.88 287.08 994.994 282.139 994.901 275.963C994.808 269.788 1000.54 264.717 1007.71 264.637Z" fill="#FFC735"/>
<path fill-rule="evenodd" clip-rule="evenodd" d="M1525.62 202.257C1514.24 202.257 1505 193.021 1505 181.629C1505 170.236 1514.24 161 1525.62 161C1537.01 161 1546.25 170.236 1546.25 181.629C1546.25 193.021 1537.01 202.257 1525.62 202.257Z" fill="#463C74"/>
<path fill-rule="evenodd" clip-rule="evenodd" d="M779.623 113.257C768.239 113.257 759 104.021 759 92.6287C759 81.2361 768.239 72 779.623 72C791.006 72 800.245 81.2361 800.245 92.6287C800.245 104.021 791.006 113.257 779.623 113.257Z" fill="#463C74"/>
<path d="M490 312.468L461.248 235.814C457.247 225.147 462.647 213.246 473.314 209.245C483.981 205.244 495.876 210.657 499.877 221.324L528.629 297.978C532.63 308.645 527.23 320.546 516.563 324.547C505.896 328.548 494.001 323.135 490 312.468Z" fill="#E5E0D5"/>
<path fill-rule="evenodd" clip-rule="evenodd" d="M1376.25 245.629C1376.25 234.236 1367.01 225 1355.62 225C1344.23 225 1335 234.236 1335 245.629C1335 257.022 1344.23 266.257 1355.62 266.257C1367.01 266.257 1376.25 257.022 1376.25 245.629Z" stroke="#F6AE9F" stroke-width="5" stroke-linecap="round"/>
<path fill-rule="evenodd" clip-rule="evenodd" d="M1319.25 266.629C1319.25 255.236 1310.01 246 1298.62 246C1287.23 246 1278 255.236 1278 266.629C1278 278.022 1287.23 287.257 1298.62 287.257C1310.01 287.257 1319.25 278.022 1319.25 266.629Z" stroke="#F6AE9F" stroke-width="5" stroke-linecap="round"/>
<defs>
<clipPath id="clip0">
<rect y="1457" width="1600" height="2154.26" fill="white"/>
</clipPath>
<clipPath id="clip1">
<rect y="256.824" width="1600" height="2152.78" fill="white"/>
</clipPath>
</defs>
</svg>
