<svg width="787" height="84" viewBox="0 0 787 84" fill="none" xmlns="http://www.w3.org/2000/svg">
<path d="M38.8789 58.0352L46.1914 28.9609H52.6953L41.6211 67H36.3477L27.1016 38.1719L18.1016 67H12.8281L1.78906 28.9609H8.25781L15.7461 57.4375L24.6055 28.9609H29.8438L38.8789 58.0352ZM75.125 67.7031C69.9688 67.7031 65.7734 66.0156 62.5391 62.6406C59.3047 59.2422 57.6875 54.707 57.6875 49.0352V47.8398C57.6875 44.0664 58.4023 40.7031 59.832 37.75C61.2852 34.7734 63.3008 32.4531 65.8789 30.7891C68.4805 29.1016 71.293 28.2578 74.3164 28.2578C79.2617 28.2578 83.1055 29.8867 85.8477 33.1445C88.5898 36.4023 89.9609 41.0664 89.9609 47.1367V49.8438H64.1914C64.2852 53.5938 65.375 56.6289 67.4609 58.9492C69.5703 61.2461 72.2422 62.3945 75.4766 62.3945C77.7734 62.3945 79.7188 61.9258 81.3125 60.9883C82.9062 60.0508 84.3008 58.8086 85.4961 57.2617L89.4688 60.3555C86.2812 65.2539 81.5 67.7031 75.125 67.7031ZM74.3164 33.6016C71.6914 33.6016 69.4883 34.5625 67.707 36.4844C65.9258 38.3828 64.8242 41.0547 64.4023 44.5H83.457V44.0078C83.2695 40.7031 82.3789 38.1484 80.7852 36.3438C79.1914 34.5156 77.0352 33.6016 74.3164 33.6016ZM121.883 33.5664C124.766 30.0273 128.516 28.2578 133.133 28.2578C141.172 28.2578 145.227 32.793 145.297 41.8633V67H138.793V41.8281C138.77 39.0859 138.137 37.0586 136.895 35.7461C135.676 34.4336 133.766 33.7773 131.164 33.7773C129.055 33.7773 127.203 34.3398 125.609 35.4648C124.016 36.5898 122.773 38.0664 121.883 39.8945V67H115.379V13H121.883V33.5664ZM178.52 67C178.145 66.25 177.84 64.9141 177.605 62.9922C174.582 66.1328 170.973 67.7031 166.777 67.7031C163.027 67.7031 159.945 66.6484 157.531 64.5391C155.141 62.4062 153.945 59.7109 153.945 56.4531C153.945 52.4922 155.445 49.4219 158.445 47.2422C161.469 45.0391 165.711 43.9375 171.172 43.9375H177.5V40.9492C177.5 38.6758 176.82 36.8711 175.461 35.5352C174.102 34.1758 172.098 33.4961 169.449 33.4961C167.129 33.4961 165.184 34.082 163.613 35.2539C162.043 36.4258 161.258 37.8438 161.258 39.5078H154.719C154.719 37.6094 155.387 35.7812 156.723 34.0234C158.082 32.2422 159.91 30.8359 162.207 29.8047C164.527 28.7734 167.07 28.2578 169.836 28.2578C174.219 28.2578 177.652 29.3594 180.137 31.5625C182.621 33.7422 183.91 36.7539 184.004 40.5977V58.1055C184.004 61.5977 184.449 64.375 185.34 66.4375V67H178.52ZM167.727 62.043C169.766 62.043 171.699 61.5156 173.527 60.4609C175.355 59.4062 176.68 58.0352 177.5 56.3477V48.543H172.402C164.434 48.543 160.449 50.875 160.449 55.5391C160.449 57.5781 161.129 59.1719 162.488 60.3203C163.848 61.4688 165.594 62.043 167.727 62.043ZM206.188 58.1758L215.609 28.9609H222.254L208.613 67H203.656L189.875 28.9609H196.52L206.188 58.1758ZM243.805 67.7031C238.648 67.7031 234.453 66.0156 231.219 62.6406C227.984 59.2422 226.367 54.707 226.367 49.0352V47.8398C226.367 44.0664 227.082 40.7031 228.512 37.75C229.965 34.7734 231.98 32.4531 234.559 30.7891C237.16 29.1016 239.973 28.2578 242.996 28.2578C247.941 28.2578 251.785 29.8867 254.527 33.1445C257.27 36.4023 258.641 41.0664 258.641 47.1367V49.8438H232.871C232.965 53.5938 234.055 56.6289 236.141 58.9492C238.25 61.2461 240.922 62.3945 244.156 62.3945C246.453 62.3945 248.398 61.9258 249.992 60.9883C251.586 60.0508 252.98 58.8086 254.176 57.2617L258.148 60.3555C254.961 65.2539 250.18 67.7031 243.805 67.7031ZM242.996 33.6016C240.371 33.6016 238.168 34.5625 236.387 36.4844C234.605 38.3828 233.504 41.0547 233.082 44.5H252.137V44.0078C251.949 40.7031 251.059 38.1484 249.465 36.3438C247.871 34.5156 245.715 33.6016 242.996 33.6016ZM299.316 62.3945C301.637 62.3945 303.664 61.6914 305.398 60.2852C307.133 58.8789 308.094 57.1211 308.281 55.0117H314.434C314.316 57.1914 313.566 59.2656 312.184 61.2344C310.801 63.2031 308.949 64.7734 306.629 65.9453C304.332 67.1172 301.895 67.7031 299.316 67.7031C294.137 67.7031 290.012 65.9805 286.941 62.5352C283.895 59.0664 282.371 54.332 282.371 48.332V47.2422C282.371 43.5391 283.051 40.2461 284.41 37.3633C285.77 34.4805 287.715 32.2422 290.246 30.6484C292.801 29.0547 295.812 28.2578 299.281 28.2578C303.547 28.2578 307.086 29.5352 309.898 32.0898C312.734 34.6445 314.246 37.9609 314.434 42.0391H308.281C308.094 39.5781 307.156 37.5625 305.469 35.9922C303.805 34.3984 301.742 33.6016 299.281 33.6016C295.977 33.6016 293.41 34.7969 291.582 37.1875C289.777 39.5547 288.875 42.9883 288.875 47.4883V48.7188C288.875 53.1016 289.777 56.4766 291.582 58.8438C293.387 61.2109 295.965 62.3945 299.316 62.3945ZM320.023 47.6289C320.023 43.9023 320.75 40.5508 322.203 37.5742C323.68 34.5977 325.719 32.3008 328.32 30.6836C330.945 29.0664 333.934 28.2578 337.285 28.2578C342.465 28.2578 346.648 30.0508 349.836 33.6367C353.047 37.2227 354.652 41.9922 354.652 47.9453V48.4023C354.652 52.1055 353.938 55.4336 352.508 58.3867C351.102 61.3164 349.074 63.6016 346.426 65.2422C343.801 66.8828 340.777 67.7031 337.355 67.7031C332.199 67.7031 328.016 65.9102 324.805 62.3242C321.617 58.7383 320.023 53.9922 320.023 48.0859V47.6289ZM326.562 48.4023C326.562 52.6211 327.535 56.0078 329.48 58.5625C331.449 61.1172 334.074 62.3945 337.355 62.3945C340.66 62.3945 343.285 61.1055 345.23 58.5273C347.176 55.9258 348.148 52.293 348.148 47.6289C348.148 43.457 347.152 40.082 345.16 37.5039C343.191 34.9023 340.566 33.6016 337.285 33.6016C334.074 33.6016 331.484 34.8789 329.516 37.4336C327.547 39.9883 326.562 43.6445 326.562 48.4023ZM386.293 63.2383C383.762 66.2148 380.047 67.7031 375.148 67.7031C371.094 67.7031 368 66.5312 365.867 64.1875C363.758 61.8203 362.691 58.3281 362.668 53.7109V28.9609H369.172V53.5352C369.172 59.3008 371.516 62.1836 376.203 62.1836C381.172 62.1836 384.477 60.332 386.117 56.6289V28.9609H392.621V67H386.434L386.293 63.2383ZM434.668 48.4023C434.668 54.1914 433.344 58.8555 430.695 62.3945C428.047 65.9336 424.461 67.7031 419.938 67.7031C415.32 67.7031 411.688 66.2383 409.039 63.3086V81.625H402.535V28.9609H408.477L408.793 33.1797C411.441 29.8984 415.121 28.2578 419.832 28.2578C424.402 28.2578 428.012 29.9805 430.66 33.4258C433.332 36.8711 434.668 41.6641 434.668 47.8047V48.4023ZM428.164 47.6641C428.164 43.375 427.25 39.9883 425.422 37.5039C423.594 35.0195 421.086 33.7773 417.898 33.7773C413.961 33.7773 411.008 35.5234 409.039 39.0156V57.1914C410.984 60.6602 413.961 62.3945 417.969 62.3945C421.086 62.3945 423.559 61.1641 425.387 58.7031C427.238 56.2188 428.164 52.5391 428.164 47.6641ZM450.031 67H443.527V13H450.031V67ZM476.258 67.7031C471.102 67.7031 466.906 66.0156 463.672 62.6406C460.438 59.2422 458.82 54.707 458.82 49.0352V47.8398C458.82 44.0664 459.535 40.7031 460.965 37.75C462.418 34.7734 464.434 32.4531 467.012 30.7891C469.613 29.1016 472.426 28.2578 475.449 28.2578C480.395 28.2578 484.238 29.8867 486.98 33.1445C489.723 36.4023 491.094 41.0664 491.094 47.1367V49.8438H465.324C465.418 53.5938 466.508 56.6289 468.594 58.9492C470.703 61.2461 473.375 62.3945 476.609 62.3945C478.906 62.3945 480.852 61.9258 482.445 60.9883C484.039 60.0508 485.434 58.8086 486.629 57.2617L490.602 60.3555C487.414 65.2539 482.633 67.7031 476.258 67.7031ZM475.449 33.6016C472.824 33.6016 470.621 34.5625 468.84 36.4844C467.059 38.3828 465.957 41.0547 465.535 44.5H484.59V44.0078C484.402 40.7031 483.512 38.1484 481.918 36.3438C480.324 34.5156 478.168 33.6016 475.449 33.6016ZM514.789 47.6289C514.789 43.9023 515.516 40.5508 516.969 37.5742C518.445 34.5977 520.484 32.3008 523.086 30.6836C525.711 29.0664 528.699 28.2578 532.051 28.2578C537.23 28.2578 541.414 30.0508 544.602 33.6367C547.812 37.2227 549.418 41.9922 549.418 47.9453V48.4023C549.418 52.1055 548.703 55.4336 547.273 58.3867C545.867 61.3164 543.84 63.6016 541.191 65.2422C538.566 66.8828 535.543 67.7031 532.121 67.7031C526.965 67.7031 522.781 65.9102 519.57 62.3242C516.383 58.7383 514.789 53.9922 514.789 48.0859V47.6289ZM521.328 48.4023C521.328 52.6211 522.301 56.0078 524.246 58.5625C526.215 61.1172 528.84 62.3945 532.121 62.3945C535.426 62.3945 538.051 61.1055 539.996 58.5273C541.941 55.9258 542.914 52.293 542.914 47.6289C542.914 43.457 541.918 40.082 539.926 37.5039C537.957 34.9023 535.332 33.6016 532.051 33.6016C528.84 33.6016 526.25 34.8789 524.281 37.4336C522.312 39.9883 521.328 43.6445 521.328 48.4023ZM560.773 67V33.9883H554.762V28.9609H560.773V25.0586C560.773 20.9805 561.863 17.8281 564.043 15.6016C566.223 13.375 569.305 12.2617 573.289 12.2617C574.789 12.2617 576.277 12.4609 577.754 12.8594L577.402 18.1328C576.301 17.9219 575.129 17.8164 573.887 17.8164C571.777 17.8164 570.148 18.4375 569 19.6797C567.852 20.8984 567.277 22.6563 567.277 24.9531V28.9609H575.398V33.9883H567.277V67H560.773ZM607.531 67H601.027V28.9609H607.531V67ZM600.5 18.8711C600.5 17.8164 600.816 16.9258 601.449 16.1992C602.105 15.4727 603.066 15.1094 604.332 15.1094C605.598 15.1094 606.559 15.4727 607.215 16.1992C607.871 16.9258 608.199 17.8164 608.199 18.8711C608.199 19.9258 607.871 20.8047 607.215 21.5078C606.559 22.2109 605.598 22.5625 604.332 22.5625C603.066 22.5625 602.105 22.2109 601.449 21.5078C600.816 20.8047 600.5 19.9258 600.5 18.8711ZM616.391 47.6641C616.391 41.8281 617.773 37.1406 620.539 33.6016C623.305 30.0391 626.926 28.2578 631.402 28.2578C635.855 28.2578 639.383 29.7812 641.984 32.8281V13H648.488V67H642.512L642.195 62.9219C639.594 66.1094 635.973 67.7031 631.332 67.7031C626.926 67.7031 623.328 65.8984 620.539 62.2891C617.773 58.6797 616.391 53.9688 616.391 48.1562V47.6641ZM622.895 48.4023C622.895 52.7148 623.785 56.0898 625.566 58.5273C627.348 60.9648 629.809 62.1836 632.949 62.1836C637.074 62.1836 640.086 60.332 641.984 56.6289V39.1562C640.039 35.5703 637.051 33.7773 633.02 33.7773C629.832 33.7773 627.348 35.0078 625.566 37.4688C623.785 39.9297 622.895 43.5742 622.895 48.4023ZM674.398 67.7031C669.242 67.7031 665.047 66.0156 661.812 62.6406C658.578 59.2422 656.961 54.707 656.961 49.0352V47.8398C656.961 44.0664 657.676 40.7031 659.105 37.75C660.559 34.7734 662.574 32.4531 665.152 30.7891C667.754 29.1016 670.566 28.2578 673.59 28.2578C678.535 28.2578 682.379 29.8867 685.121 33.1445C687.863 36.4023 689.234 41.0664 689.234 47.1367V49.8438H663.465C663.559 53.5938 664.648 56.6289 666.734 58.9492C668.844 61.2461 671.516 62.3945 674.75 62.3945C677.047 62.3945 678.992 61.9258 680.586 60.9883C682.18 60.0508 683.574 58.8086 684.77 57.2617L688.742 60.3555C685.555 65.2539 680.773 67.7031 674.398 67.7031ZM673.59 33.6016C670.965 33.6016 668.762 34.5625 666.98 36.4844C665.199 38.3828 664.098 41.0547 663.676 44.5H682.73V44.0078C682.543 40.7031 681.652 38.1484 680.059 36.3438C678.465 34.5156 676.309 33.6016 673.59 33.6016ZM720.277 67C719.902 66.25 719.598 64.9141 719.363 62.9922C716.34 66.1328 712.73 67.7031 708.535 67.7031C704.785 67.7031 701.703 66.6484 699.289 64.5391C696.898 62.4062 695.703 59.7109 695.703 56.4531C695.703 52.4922 697.203 49.4219 700.203 47.2422C703.227 45.0391 707.469 43.9375 712.93 43.9375H719.258V40.9492C719.258 38.6758 718.578 36.8711 717.219 35.5352C715.859 34.1758 713.855 33.4961 711.207 33.4961C708.887 33.4961 706.941 34.082 705.371 35.2539C703.801 36.4258 703.016 37.8438 703.016 39.5078H696.477C696.477 37.6094 697.145 35.7812 698.48 34.0234C699.84 32.2422 701.668 30.8359 703.965 29.8047C706.285 28.7734 708.828 28.2578 711.594 28.2578C715.977 28.2578 719.41 29.3594 721.895 31.5625C724.379 33.7422 725.668 36.7539 725.762 40.5977V58.1055C725.762 61.5977 726.207 64.375 727.098 66.4375V67H720.277ZM709.484 62.043C711.523 62.043 713.457 61.5156 715.285 60.4609C717.113 59.4062 718.438 58.0352 719.258 56.3477V48.543H714.16C706.191 48.543 702.207 50.875 702.207 55.5391C702.207 57.5781 702.887 59.1719 704.246 60.3203C705.605 61.4688 707.352 62.043 709.484 62.043ZM758.105 56.9102C758.105 55.1523 757.438 53.793 756.102 52.832C754.789 51.8477 752.48 51.0039 749.176 50.3008C745.895 49.5977 743.281 48.7539 741.336 47.7695C739.414 46.7852 737.984 45.6133 737.047 44.2539C736.133 42.8945 735.676 41.2773 735.676 39.4023C735.676 36.2852 736.988 33.6484 739.613 31.4922C742.262 29.3359 745.637 28.2578 749.738 28.2578C754.051 28.2578 757.543 29.3711 760.215 31.5977C762.91 33.8242 764.258 36.6719 764.258 40.1406H757.719C757.719 38.3594 756.957 36.8242 755.434 35.5352C753.934 34.2461 752.035 33.6016 749.738 33.6016C747.371 33.6016 745.52 34.1172 744.184 35.1484C742.848 36.1797 742.18 37.5273 742.18 39.1914C742.18 40.7617 742.801 41.9453 744.043 42.7422C745.285 43.5391 747.523 44.3008 750.758 45.0273C754.016 45.7539 756.652 46.6211 758.668 47.6289C760.684 48.6367 762.172 49.8555 763.133 51.2852C764.117 52.6914 764.609 54.4141 764.609 56.4531C764.609 59.8516 763.25 62.582 760.531 64.6445C757.812 66.6836 754.285 67.7031 749.949 67.7031C746.902 67.7031 744.207 67.1641 741.863 66.0859C739.52 65.0078 737.68 63.5078 736.344 61.5859C735.031 59.6406 734.375 57.543 734.375 55.293H740.879C740.996 57.4727 741.863 59.207 743.48 60.4961C745.121 61.7617 747.277 62.3945 749.949 62.3945C752.41 62.3945 754.379 61.9023 755.855 60.918C757.355 59.9102 758.105 58.5742 758.105 56.9102ZM780.359 52.5508H774.488L774.031 15.8125H780.852L780.359 52.5508ZM773.785 63.7305C773.785 62.6758 774.102 61.7969 774.734 61.0938C775.391 60.3672 776.352 60.0039 777.617 60.0039C778.883 60.0039 779.844 60.3672 780.5 61.0938C781.156 61.7969 781.484 62.6758 781.484 63.7305C781.484 64.7852 781.156 65.6641 780.5 66.3672C779.844 67.0469 778.883 67.3867 777.617 67.3867C776.352 67.3867 775.391 67.0469 774.734 66.3672C774.102 65.6641 773.785 64.7852 773.785 63.7305Z" fill="black"/>
<path d="M38.8789 58.0352L37.924 58.3319L38.9804 61.7314L39.8487 58.2791L38.8789 58.0352ZM46.1914 28.9609V27.9609H45.4118L45.2216 28.717L46.1914 28.9609ZM52.6953 28.9609L53.6555 29.2405L54.028 27.9609H52.6953V28.9609ZM41.6211 67V68H42.3715L42.5812 67.2795L41.6211 67ZM36.3477 67L35.3954 67.3054L35.6182 68H36.3477V67ZM27.1016 38.1719L28.0538 37.8665L27.0887 34.8575L26.147 37.8739L27.1016 38.1719ZM18.1016 67V68H18.837L19.0561 67.298L18.1016 67ZM12.8281 67L11.8677 67.2787L12.0771 68H12.8281V67ZM1.78906 28.9609V27.9609H0.457601L0.828686 29.2396L1.78906 28.9609ZM8.25781 28.9609L9.22493 28.7066L9.02885 27.9609H8.25781V28.9609ZM15.7461 57.4375L14.779 57.6918L15.6655 61.0629L16.701 57.7346L15.7461 57.4375ZM24.6055 28.9609V27.9609H23.8693L23.6506 28.6639L24.6055 28.9609ZM29.8438 28.9609L30.7987 28.6642L30.5802 27.9609H29.8438V28.9609ZM39.8487 58.2791L47.1612 29.2049L45.2216 28.717L37.9091 57.7912L39.8487 58.2791ZM46.1914 29.9609H52.6953V27.9609H46.1914V29.9609ZM51.7352 28.6814L40.661 66.7205L42.5812 67.2795L53.6555 29.2405L51.7352 28.6814ZM41.6211 66H36.3477V68H41.6211V66ZM37.2999 66.6946L28.0538 37.8665L26.1493 38.4773L35.3954 67.3054L37.2999 66.6946ZM26.147 37.8739L17.147 66.702L19.0561 67.298L28.0561 38.4699L26.147 37.8739ZM18.1016 66H12.8281V68H18.1016V66ZM13.7885 66.7213L2.74944 28.6822L0.828686 29.2396L11.8677 67.2787L13.7885 66.7213ZM1.78906 29.9609H8.25781V27.9609H1.78906V29.9609ZM7.29069 29.2153L14.779 57.6918L16.7132 57.1832L9.22493 28.7066L7.29069 29.2153ZM16.701 57.7346L25.5603 29.258L23.6506 28.6639L14.7912 57.1404L16.701 57.7346ZM24.6055 29.9609H29.8438V27.9609H24.6055V29.9609ZM28.8888 29.2577L37.924 58.3319L39.8339 57.7384L30.7987 28.6642L28.8888 29.2577ZM62.5391 62.6406L61.8147 63.33L61.8171 63.3325L62.5391 62.6406ZM59.832 37.75L58.9334 37.3113L58.932 37.3143L59.832 37.75ZM65.8789 30.7891L66.4212 31.6292L66.4231 31.628L65.8789 30.7891ZM89.9609 49.8438V50.8438H90.9609V49.8438H89.9609ZM64.1914 49.8438V48.8438H63.1661L63.1917 49.8687L64.1914 49.8438ZM67.4609 58.9492L66.7172 59.6178L66.7244 59.6256L67.4609 58.9492ZM85.4961 57.2617L86.1105 56.4727L85.3186 55.856L84.7048 56.6503L85.4961 57.2617ZM89.4688 60.3555L90.3069 60.9009L90.8079 60.1309L90.0832 59.5665L89.4688 60.3555ZM67.707 36.4844L68.4363 37.1686L68.4405 37.1641L67.707 36.4844ZM64.4023 44.5L63.4098 44.3785L63.2724 45.5H64.4023V44.5ZM83.457 44.5V45.5H84.457V44.5H83.457ZM83.457 44.0078H84.457V43.9795L84.4554 43.9512L83.457 44.0078ZM80.7852 36.3438L80.0314 37.0009L80.0356 37.0057L80.7852 36.3438ZM75.125 66.7031C70.2103 66.7031 66.2864 65.1056 63.2611 61.9487L61.8171 63.3325C65.2605 66.9257 69.7272 68.7031 75.125 68.7031V66.7031ZM63.2634 61.9512C60.2416 58.7761 58.6875 54.5072 58.6875 49.0352H56.6875C56.6875 54.9069 58.3677 59.7082 61.8147 63.33L63.2634 61.9512ZM58.6875 49.0352V47.8398H56.6875V49.0352H58.6875ZM58.6875 47.8398C58.6875 44.1947 59.3774 40.984 60.7321 38.1857L58.932 37.3143C57.4273 40.4222 56.6875 43.9381 56.6875 47.8398H58.6875ZM60.7307 38.1887C62.1104 35.3624 64.0084 33.1866 66.4212 31.6292L65.3366 29.9489C62.5932 31.7196 60.4599 34.1844 58.9334 37.3113L60.7307 38.1887ZM66.4231 31.628C68.867 30.0428 71.4913 29.2578 74.3164 29.2578V27.2578C71.0947 27.2578 68.0939 28.1603 65.3347 29.9501L66.4231 31.628ZM74.3164 29.2578C79.0196 29.2578 82.5621 30.794 85.0826 33.7885L86.6127 32.5006C83.6489 28.9794 79.5038 27.2578 74.3164 27.2578V29.2578ZM85.0826 33.7885C87.6198 36.8028 88.9609 41.2034 88.9609 47.1367H90.9609C90.9609 40.9294 89.5599 36.0019 86.6127 32.5006L85.0826 33.7885ZM88.9609 47.1367V49.8438H90.9609V47.1367H88.9609ZM89.9609 48.8438H64.1914V50.8438H89.9609V48.8438ZM63.1917 49.8687C63.2902 53.8066 64.4413 57.0861 66.7173 59.6178L68.2046 58.2807C66.3087 56.1717 65.2801 53.3809 65.1911 49.8188L63.1917 49.8687ZM66.7244 59.6256C69.031 62.1372 71.974 63.3945 75.4766 63.3945V61.3945C72.5104 61.3945 70.1096 60.355 68.1975 58.2728L66.7244 59.6256ZM75.4766 63.3945C77.9089 63.3945 80.039 62.8976 81.8195 61.8502L80.8055 60.1263C79.3985 60.954 77.638 61.3945 75.4766 61.3945V63.3945ZM81.8195 61.8502C83.5293 60.8445 85.0187 59.515 86.2874 57.8732L84.7048 56.6503C83.5829 58.1021 82.2832 59.2571 80.8055 60.1263L81.8195 61.8502ZM84.8817 58.0507L88.8543 61.1444L90.0832 59.5665L86.1105 56.4727L84.8817 58.0507ZM88.6306 59.8101C85.6467 64.3957 81.1982 66.7031 75.125 66.7031V68.7031C81.8018 68.7031 86.9158 66.1122 90.3069 60.9009L88.6306 59.8101ZM74.3164 32.6016C71.4136 32.6016 68.9445 33.6781 66.9736 35.8046L68.4405 37.1641C70.0321 35.4469 71.9692 34.6016 74.3164 34.6016V32.6016ZM66.9778 35.8001C65.0097 37.8977 63.8489 40.7919 63.4098 44.3785L65.3949 44.6215C65.7995 41.3174 66.8419 38.8679 68.4363 37.1686L66.9778 35.8001ZM64.4023 45.5H83.457V43.5H64.4023V45.5ZM84.457 44.5V44.0078H82.457V44.5H84.457ZM84.4554 43.9512C84.2599 40.5054 83.3239 37.7078 81.5347 35.6818L80.0356 37.0057C81.4339 38.5891 82.2791 40.9008 82.4586 44.0645L84.4554 43.9512ZM81.5389 35.6866C79.731 33.6128 77.2851 32.6016 74.3164 32.6016V34.6016C76.7852 34.6016 78.6518 35.4184 80.0314 37.0009L81.5389 35.6866ZM121.883 33.5664H120.883V36.3774L122.658 34.198L121.883 33.5664ZM145.297 41.8633L146.297 41.8633L146.297 41.8555L145.297 41.8633ZM145.297 67V68H146.297V67H145.297ZM138.793 67H137.793V68H138.793V67ZM138.793 41.8281L139.793 41.8281L139.793 41.8196L138.793 41.8281ZM136.895 35.7461L136.162 36.4266L136.168 36.4335L136.895 35.7461ZM121.883 39.8945L120.984 39.4566L120.883 39.6639V39.8945H121.883ZM121.883 67V68H122.883V67H121.883ZM115.379 67H114.379V68H115.379V67ZM115.379 13V12H114.379V13H115.379ZM121.883 13H122.883V12H121.883V13ZM122.658 34.198C125.349 30.8951 128.812 29.2578 133.133 29.2578V27.2578C128.219 27.2578 124.183 29.1595 121.107 32.9348L122.658 34.198ZM133.133 29.2578C136.964 29.2578 139.676 30.333 141.458 32.3257C143.259 34.3409 144.263 37.463 144.297 41.871L146.297 41.8555C146.261 37.1933 145.202 33.5126 142.949 30.9927C140.676 28.4502 137.34 27.2578 133.133 27.2578V29.2578ZM144.297 41.8633V67H146.297V41.8633H144.297ZM145.297 66H138.793V68H145.297V66ZM139.793 67V41.8281H137.793V67H139.793ZM139.793 41.8196C139.768 38.9519 139.108 36.63 137.621 35.0587L136.168 36.4335C137.165 37.4872 137.771 39.2199 137.793 41.8367L139.793 41.8196ZM137.627 35.0656C136.147 33.4718 133.916 32.7773 131.164 32.7773V34.7773C133.615 34.7773 135.204 35.3954 136.162 36.4265L137.627 35.0656ZM131.164 32.7773C128.866 32.7773 126.809 33.394 125.033 34.6479L126.186 36.2818C127.597 35.2857 129.244 34.7773 131.164 34.7773V32.7773ZM125.033 34.6479C123.295 35.8742 121.945 37.4836 120.984 39.4566L122.782 40.3325C123.602 38.6492 124.736 37.3055 126.186 36.2818L125.033 34.6479ZM120.883 39.8945V67H122.883V39.8945H120.883ZM121.883 66H115.379V68H121.883V66ZM116.379 67V13H114.379V67H116.379ZM115.379 14H121.883V12H115.379V14ZM120.883 13V33.5664H122.883V13H120.883ZM178.52 67L177.625 67.4472L177.901 68H178.52V67ZM177.605 62.9922L178.598 62.8711L178.344 60.7836L176.885 62.2986L177.605 62.9922ZM157.531 64.5391L156.865 65.2853L156.873 65.2921L157.531 64.5391ZM158.445 47.2422L159.033 48.0512L159.034 48.0504L158.445 47.2422ZM177.5 43.9375V44.9375H178.5V43.9375H177.5ZM175.461 35.5352L174.754 36.2423L174.76 36.2484L175.461 35.5352ZM161.258 39.5078V40.5078H162.258V39.5078H161.258ZM154.719 39.5078H153.719V40.5078H154.719V39.5078ZM156.723 34.0234L155.928 33.4168L155.926 33.4184L156.723 34.0234ZM162.207 29.8047L161.801 28.8909L161.797 28.8924L162.207 29.8047ZM180.137 31.5625L179.473 32.3107L179.477 32.3142L180.137 31.5625ZM184.004 40.5977H185.004V40.5855L185.004 40.5733L184.004 40.5977ZM185.34 66.4375H186.34V66.2308L186.258 66.0411L185.34 66.4375ZM185.34 67V68H186.34V67H185.34ZM177.5 56.3477L178.399 56.7848L178.5 56.5778V56.3477H177.5ZM177.5 48.543H178.5V47.543H177.5V48.543ZM179.414 66.5528C179.123 65.9713 178.832 64.7892 178.598 62.8711L176.613 63.1132C176.848 65.0389 177.166 66.5287 177.625 67.4472L179.414 66.5528ZM176.885 62.2986C174.042 65.2521 170.689 66.7031 166.777 66.7031V68.7031C171.256 68.7031 175.122 67.0136 178.326 63.6857L176.885 62.2986ZM166.777 66.7031C163.226 66.7031 160.391 65.7098 158.189 63.786L156.873 65.2921C159.5 67.5871 162.829 68.7031 166.777 68.7031V66.7031ZM158.197 63.7929C156.023 61.8534 154.945 59.4314 154.945 56.4531H152.945C152.945 59.9904 154.258 62.9591 156.866 65.2853L158.197 63.7929ZM154.945 56.4531C154.945 52.7868 156.312 50.0282 159.033 48.0512L157.858 46.4332C154.579 48.8155 152.945 52.1976 152.945 56.4531H154.945ZM159.034 48.0504C161.824 46.0174 165.829 44.9375 171.172 44.9375V42.9375C165.592 42.9375 161.113 44.0607 157.856 46.434L159.034 48.0504ZM171.172 44.9375H177.5V42.9375H171.172V44.9375ZM178.5 43.9375V40.9492H176.5V43.9375H178.5ZM178.5 40.9492C178.5 38.4632 177.749 36.3816 176.162 34.8219L174.76 36.2484C175.892 37.3606 176.5 38.8884 176.5 40.9492H178.5ZM176.168 34.828C174.559 33.2195 172.261 32.4961 169.449 32.4961V34.4961C171.935 34.4961 173.644 35.1321 174.754 36.2423L176.168 34.828ZM169.449 32.4961C166.954 32.4961 164.788 33.1292 163.015 34.4525L164.211 36.0553C165.579 35.0349 167.303 34.4961 169.449 34.4961V32.4961ZM163.015 34.4525C161.243 35.7752 160.258 37.4697 160.258 39.5078H162.258C162.258 38.2178 162.843 37.0764 164.211 36.0553L163.015 34.4525ZM161.258 38.5078H154.719V40.5078H161.258V38.5078ZM155.719 39.5078C155.719 37.8623 156.293 36.2418 157.519 34.6285L155.926 33.4184C154.481 35.3207 153.719 37.3565 153.719 39.5078H155.719ZM157.518 34.6301C158.764 32.9969 160.453 31.6886 162.617 30.717L161.797 28.8924C159.368 29.9833 157.4 31.4875 155.928 33.4168L157.518 34.6301ZM162.613 30.7185C164.795 29.749 167.198 29.2578 169.836 29.2578V27.2578C166.943 27.2578 164.26 27.7979 161.801 28.8909L162.613 30.7185ZM169.836 29.2578C174.054 29.2578 177.224 30.3158 179.473 32.3107L180.8 30.8143C178.081 28.4029 174.384 27.2578 169.836 27.2578V29.2578ZM179.477 32.3142C181.717 34.2791 182.916 37.0076 183.004 40.622L185.004 40.5733C184.904 36.5002 183.525 33.2053 180.796 30.8108L179.477 32.3142ZM183.004 40.5977V58.1055H185.004V40.5977H183.004ZM183.004 58.1055C183.004 61.6664 183.456 64.5963 184.422 66.8339L186.258 66.0411C185.443 64.1537 185.004 61.5289 185.004 58.1055H183.004ZM184.34 66.4375V67H186.34V66.4375H184.34ZM185.34 66H178.52V68H185.34V66ZM167.727 63.043C169.947 63.043 172.053 62.4663 174.027 61.3271L173.028 59.5948C171.346 60.565 169.584 61.043 167.727 61.043V63.043ZM174.027 61.3271C176.006 60.1855 177.481 58.674 178.399 56.7848L176.601 55.9105C175.878 57.3963 174.705 58.627 173.028 59.5948L174.027 61.3271ZM178.5 56.3477V48.543H176.5V56.3477H178.5ZM177.5 47.543H172.402V49.543H177.5V47.543ZM172.402 47.543C168.353 47.543 165.152 48.1297 162.932 49.429C160.63 50.7766 159.449 52.8564 159.449 55.5391H161.449C161.449 53.5577 162.261 52.1394 163.943 51.155C165.707 50.1223 168.483 49.543 172.402 49.543V47.543ZM159.449 55.5391C159.449 57.8246 160.224 59.7169 161.843 61.0842L163.134 59.5564C162.033 58.6269 161.449 57.3316 161.449 55.5391H159.449ZM161.843 61.0842C163.417 62.414 165.406 63.043 167.727 63.043V61.043C165.781 61.043 164.278 60.5235 163.134 59.5564L161.843 61.0842ZM206.188 58.1758L205.238 58.49L206.2 61.3958L207.139 58.4827L206.188 58.1758ZM215.609 28.9609V27.9609H214.881L214.658 28.654L215.609 28.9609ZM222.254 28.9609L223.195 29.2985L223.675 27.9609H222.254V28.9609ZM208.613 67V68H209.317L209.555 67.3375L208.613 67ZM203.656 67L202.716 67.3406L202.955 68H203.656V67ZM189.875 28.9609V27.9609H188.449L188.935 29.3016L189.875 28.9609ZM196.52 28.9609L197.469 28.6468L197.242 27.9609H196.52V28.9609ZM207.139 58.4827L216.561 29.2679L214.658 28.654L205.236 57.8688L207.139 58.4827ZM215.609 29.9609H222.254V27.9609H215.609V29.9609ZM221.313 28.6234L207.672 66.6625L209.555 67.3375L223.195 29.2985L221.313 28.6234ZM208.613 66H203.656V68H208.613V66ZM204.596 66.6594L190.815 28.6203L188.935 29.3016L202.716 67.3406L204.596 66.6594ZM189.875 29.9609H196.52V27.9609H189.875V29.9609ZM195.57 29.2751L205.238 58.49L207.137 57.8616L197.469 28.6468L195.57 29.2751ZM231.219 62.6406L230.494 63.33L230.497 63.3325L231.219 62.6406ZM228.512 37.75L227.613 37.3113L227.612 37.3143L228.512 37.75ZM234.559 30.7891L235.101 31.6292L235.103 31.628L234.559 30.7891ZM258.641 49.8438V50.8438H259.641V49.8438H258.641ZM232.871 49.8438V48.8438H231.846L231.871 49.8687L232.871 49.8438ZM236.141 58.9492L235.397 59.6178L235.404 59.6256L236.141 58.9492ZM254.176 57.2617L254.79 56.4727L253.998 55.856L253.384 56.6503L254.176 57.2617ZM258.148 60.3555L258.987 60.9009L259.488 60.1309L258.763 59.5665L258.148 60.3555ZM236.387 36.4844L237.116 37.1686L237.12 37.1641L236.387 36.4844ZM233.082 44.5L232.089 44.3785L231.952 45.5H233.082V44.5ZM252.137 44.5V45.5H253.137V44.5H252.137ZM252.137 44.0078H253.137V43.9795L253.135 43.9512L252.137 44.0078ZM249.465 36.3438L248.711 37.0009L248.715 37.0057L249.465 36.3438ZM243.805 66.7031C238.89 66.7031 234.966 65.1056 231.941 61.9487L230.497 63.3325C233.94 66.9257 238.407 68.7031 243.805 68.7031V66.7031ZM231.943 61.9512C228.921 58.7761 227.367 54.5072 227.367 49.0352H225.367C225.367 54.9069 227.047 59.7082 230.494 63.33L231.943 61.9512ZM227.367 49.0352V47.8398H225.367V49.0352H227.367ZM227.367 47.8398C227.367 44.1947 228.057 40.984 229.412 38.1857L227.612 37.3143C226.107 40.4222 225.367 43.9381 225.367 47.8398H227.367ZM229.41 38.1887C230.79 35.3624 232.688 33.1866 235.101 31.6292L234.016 29.9489C231.273 31.7196 229.14 34.1844 227.613 37.3113L229.41 38.1887ZM235.103 31.628C237.547 30.0428 240.171 29.2578 242.996 29.2578V27.2578C239.774 27.2578 236.774 28.1603 234.014 29.9501L235.103 31.628ZM242.996 29.2578C247.699 29.2578 251.242 30.794 253.762 33.7885L255.292 32.5006C252.329 28.9794 248.183 27.2578 242.996 27.2578V29.2578ZM253.762 33.7885C256.299 36.8028 257.641 41.2034 257.641 47.1367H259.641C259.641 40.9294 258.24 36.0019 255.292 32.5006L253.762 33.7885ZM257.641 47.1367V49.8438H259.641V47.1367H257.641ZM258.641 48.8438H232.871V50.8438H258.641V48.8438ZM231.871 49.8687C231.97 53.8066 233.121 57.0861 235.397 59.6178L236.884 58.2807C234.988 56.1717 233.96 53.3809 233.871 49.8188L231.871 49.8687ZM235.404 59.6256C237.711 62.1372 240.654 63.3945 244.156 63.3945V61.3945C241.19 61.3945 238.789 60.355 236.877 58.2728L235.404 59.6256ZM244.156 63.3945C246.589 63.3945 248.719 62.8976 250.499 61.8502L249.485 60.1263C248.078 60.954 246.318 61.3945 244.156 61.3945V63.3945ZM250.499 61.8502C252.209 60.8445 253.698 59.515 254.967 57.8732L253.384 56.6503C252.263 58.1021 250.963 59.2571 249.485 60.1263L250.499 61.8502ZM253.561 58.0507L257.534 61.1444L258.763 59.5665L254.79 56.4727L253.561 58.0507ZM257.31 59.8101C254.326 64.3957 249.878 66.7031 243.805 66.7031V68.7031C250.481 68.7031 255.596 66.1122 258.987 60.9009L257.31 59.8101ZM242.996 32.6016C240.093 32.6016 237.624 33.6781 235.653 35.8046L237.12 37.1641C238.712 35.4469 240.649 34.6016 242.996 34.6016V32.6016ZM235.657 35.8001C233.689 37.8977 232.529 40.7919 232.089 44.3785L234.075 44.6215C234.479 41.3174 235.522 38.8679 237.116 37.1686L235.657 35.8001ZM233.082 45.5H252.137V43.5H233.082V45.5ZM253.137 44.5V44.0078H251.137V44.5H253.137ZM253.135 43.9512C252.94 40.5054 252.004 37.7078 250.214 35.6818L248.715 37.0057C250.114 38.5891 250.959 40.9008 251.138 44.0645L253.135 43.9512ZM250.219 35.6866C248.411 33.6128 245.965 32.6016 242.996 32.6016V34.6016C245.465 34.6016 247.331 35.4184 248.711 37.0009L250.219 35.6866ZM308.281 55.0117V54.0117H307.366L307.285 54.9232L308.281 55.0117ZM314.434 55.0117L315.432 55.0654L315.489 54.0117H314.434V55.0117ZM306.629 65.9453L306.178 65.0527L306.174 65.0546L306.629 65.9453ZM286.941 62.5352L286.19 63.1951L286.195 63.2005L286.941 62.5352ZM290.246 30.6484L289.717 29.8L289.713 29.8022L290.246 30.6484ZM309.898 32.0898L309.226 32.8301L309.229 32.8328L309.898 32.0898ZM314.434 42.0391V43.0391H315.481L315.433 41.9931L314.434 42.0391ZM308.281 42.0391L307.284 42.115L307.355 43.0391H308.281V42.0391ZM305.469 35.9922L304.777 36.7144L304.782 36.7194L304.788 36.7243L305.469 35.9922ZM291.582 37.1875L290.788 36.58L290.787 36.5812L291.582 37.1875ZM299.316 63.3945C301.856 63.3945 304.108 62.6186 306.028 61.0619L304.769 59.5084C303.22 60.7642 301.417 61.3945 299.316 61.3945V63.3945ZM306.028 61.0619C307.96 59.4956 309.064 57.4951 309.277 55.1003L307.285 54.9232C307.123 56.7471 306.306 58.2622 304.769 59.5084L306.028 61.0619ZM308.281 56.0117H314.434V54.0117H308.281V56.0117ZM313.435 54.958C313.329 56.9317 312.652 58.828 311.365 60.6596L313.002 61.8091C314.481 59.7032 315.304 57.4511 315.432 55.0654L313.435 54.958ZM311.365 60.6596C310.084 62.4831 308.364 63.9488 306.178 65.0527L307.08 66.8379C309.535 65.598 311.517 63.9231 313.002 61.8091L311.365 60.6596ZM306.174 65.0546C304.018 66.1546 301.737 66.7031 299.316 66.7031V68.7031C302.053 68.7031 304.646 68.0797 307.083 66.8361L306.174 65.0546ZM299.316 66.7031C294.383 66.7031 290.544 65.0749 287.688 61.8698L286.195 63.2005C289.479 66.8861 293.89 68.7031 299.316 68.7031V66.7031ZM287.693 61.8752C284.849 58.638 283.371 54.1636 283.371 48.332H281.371C281.371 54.5005 282.94 59.4948 286.19 63.1951L287.693 61.8752ZM283.371 48.332V47.2422H281.371V48.332H283.371ZM283.371 47.2422C283.371 43.6628 284.028 40.5193 285.315 37.7898L283.506 36.9368C282.074 39.9729 281.371 43.4154 281.371 47.2422H283.371ZM285.315 37.7898C286.598 35.0676 288.42 32.9801 290.779 31.4947L289.713 29.8022C287.01 31.5043 284.941 33.8933 283.506 36.9368L285.315 37.7898ZM290.775 31.4969C293.148 30.0165 295.971 29.2578 299.281 29.2578V27.2578C295.654 27.2578 292.453 28.0929 289.717 29.8L290.775 31.4969ZM299.281 29.2578C303.331 29.2578 306.621 30.4634 309.226 32.8301L310.571 31.3496C307.551 28.6069 303.763 27.2578 299.281 27.2578V29.2578ZM309.229 32.8328C311.852 35.1952 313.258 38.2533 313.435 42.085L315.433 41.9931C315.234 37.6685 313.617 34.0938 310.568 31.3469L309.229 32.8328ZM314.434 41.0391H308.281V43.0391H314.434V41.0391ZM309.278 41.9631C309.073 39.2709 308.035 37.0145 306.15 35.2601L304.788 36.7243C306.277 38.1105 307.114 39.8853 307.284 42.115L309.278 41.9631ZM306.16 35.27C304.297 33.485 301.981 32.6016 299.281 32.6016V34.6016C301.504 34.6016 303.313 35.3118 304.777 36.7144L306.16 35.27ZM299.281 32.6016C295.7 32.6016 292.825 33.9154 290.788 36.58L292.376 37.795C293.995 35.6784 296.253 34.6016 299.281 34.6016V32.6016ZM290.787 36.5812C288.797 39.1916 287.875 42.8757 287.875 47.4883H289.875C289.875 43.1009 290.758 39.9177 292.377 37.7938L290.787 36.5812ZM287.875 47.4883V48.7188H289.875V47.4883H287.875ZM287.875 48.7188C287.875 53.2214 288.8 56.8434 290.787 59.45L292.377 58.2375C290.755 56.1097 289.875 52.9818 289.875 48.7188H287.875ZM290.787 59.45C292.806 62.099 295.698 63.3945 299.316 63.3945V61.3945C296.232 61.3945 293.967 60.3229 292.377 58.2375L290.787 59.45ZM322.203 37.5742L321.307 37.1298L321.304 37.1355L322.203 37.5742ZM328.32 30.6836L327.796 29.8322L327.792 29.8343L328.32 30.6836ZM349.836 33.6367L349.089 34.3011L349.091 34.3038L349.836 33.6367ZM352.508 58.3867L351.608 57.951L351.606 57.954L352.508 58.3867ZM346.426 65.2422L345.899 64.3921L345.896 64.3942L346.426 65.2422ZM324.805 62.3242L324.057 62.9886L324.06 62.9913L324.805 62.3242ZM329.48 58.5625L328.685 59.1683L328.688 59.1729L329.48 58.5625ZM345.23 58.5273L346.029 59.1297L346.031 59.1262L345.23 58.5273ZM345.16 37.5039L344.363 38.1074L344.369 38.1154L345.16 37.5039ZM321.023 47.6289C321.023 44.0352 321.723 40.8366 323.102 38.0129L321.304 37.1355C319.777 40.2649 319.023 43.7695 319.023 47.6289H321.023ZM323.099 38.0186C324.5 35.1939 326.418 33.0436 328.848 31.5329L327.792 29.8343C325.02 31.5579 322.859 34.0014 321.307 37.1298L323.099 38.0186ZM328.845 31.535C331.298 30.0234 334.102 29.2578 337.285 29.2578V27.2578C333.765 27.2578 330.592 28.1094 327.796 29.8322L328.845 31.535ZM337.285 29.2578C342.205 29.2578 346.107 30.947 349.089 34.3011L350.583 32.9724C347.19 29.1545 342.725 27.2578 337.285 27.2578V29.2578ZM349.091 34.3038C352.101 37.6656 353.652 42.1776 353.652 47.9453H355.652C355.652 41.8068 353.993 36.7797 350.581 32.9696L349.091 34.3038ZM353.652 47.9453V48.4023H355.652V47.9453H353.652ZM353.652 48.4023C353.652 51.9741 352.964 55.1502 351.608 57.951L353.408 58.8225C354.911 55.7169 355.652 52.2369 355.652 48.4023H353.652ZM351.606 57.954C350.279 60.7194 348.378 62.8564 345.899 64.3921L346.952 66.0923C349.77 64.3467 351.924 61.9134 353.409 58.8194L351.606 57.954ZM345.896 64.3942C343.446 65.9252 340.61 66.7031 337.355 66.7031V68.7031C340.944 68.7031 344.155 67.8404 346.956 66.0902L345.896 64.3942ZM337.355 66.7031C332.461 66.7031 328.556 65.0148 325.55 61.6571L324.06 62.9913C327.475 66.8055 331.938 68.7031 337.355 68.7031V66.7031ZM325.552 61.6599C322.563 58.2967 321.023 53.8063 321.023 48.0859H319.023C319.023 54.1781 320.672 59.1798 324.057 62.9886L325.552 61.6599ZM321.023 48.0859V47.6289H319.023V48.0859H321.023ZM325.562 48.4023C325.562 52.7713 326.571 56.3918 328.685 59.1683L330.276 57.9567C328.5 55.6238 327.562 52.4709 327.562 48.4023H325.562ZM328.688 59.1729C330.85 61.9782 333.77 63.3945 337.355 63.3945V61.3945C334.378 61.3945 332.048 60.2561 330.273 57.9521L328.688 59.1729ZM337.355 63.3945C340.965 63.3945 343.889 61.965 346.029 59.1297L344.432 57.925C342.681 60.2459 340.355 61.3945 337.355 61.3945V63.3945ZM346.031 59.1262C348.151 56.2909 349.148 52.4179 349.148 47.6289H347.148C347.148 52.168 346.2 55.5607 344.43 57.9285L346.031 59.1262ZM349.148 47.6289C349.148 43.2985 348.113 39.6896 345.951 36.8925L344.369 38.1154C346.192 40.4745 347.148 43.6156 347.148 47.6289H349.148ZM345.958 36.9005C343.799 34.0474 340.878 32.6016 337.285 32.6016V34.6016C340.255 34.6016 342.584 35.7573 344.363 38.1073L345.958 36.9005ZM337.285 32.6016C333.762 32.6016 330.881 34.0241 328.724 36.8232L330.308 38.044C332.088 35.7337 334.386 34.6016 337.285 34.6016V32.6016ZM328.724 36.8232C326.569 39.6186 325.562 43.5244 325.562 48.4023H327.562C327.562 43.7647 328.524 40.3579 330.308 38.044L328.724 36.8232ZM386.293 63.2383L387.292 63.2009L387.196 60.6325L385.531 62.5905L386.293 63.2383ZM365.867 64.1875L365.121 64.8528L365.128 64.8605L365.867 64.1875ZM362.668 53.7109H361.668L361.668 53.716L362.668 53.7109ZM362.668 28.9609V27.9609H361.668V28.9609H362.668ZM369.172 28.9609H370.172V27.9609H369.172V28.9609ZM386.117 56.6289L387.031 57.034L387.117 56.8405V56.6289H386.117ZM386.117 28.9609V27.9609H385.117V28.9609H386.117ZM392.621 28.9609H393.621V27.9609H392.621V28.9609ZM392.621 67V68H393.621V67H392.621ZM386.434 67L385.434 67.0374L385.47 68H386.434V67ZM385.531 62.5905C383.237 65.2887 379.834 66.7031 375.148 66.7031V68.7031C380.26 68.7031 384.287 67.141 387.055 63.8861L385.531 62.5905ZM375.148 66.7031C371.292 66.7031 368.5 65.5952 366.607 63.5145L365.128 64.8605C367.5 67.4673 370.896 68.7031 375.148 68.7031V66.7031ZM366.614 63.5222C364.727 61.4045 363.691 58.1886 363.668 53.7059L361.668 53.716C361.692 58.4677 362.789 62.2361 365.121 64.8528L366.614 63.5222ZM363.668 53.7109V28.9609H361.668V53.7109H363.668ZM362.668 29.9609H369.172V27.9609H362.668V29.9609ZM368.172 28.9609V53.5352H370.172V28.9609H368.172ZM368.172 53.5352C368.172 56.5277 368.776 58.9576 370.154 60.6523C371.564 62.3866 373.644 63.1836 376.203 63.1836V61.1836C374.075 61.1836 372.639 60.5392 371.706 59.3907C370.74 58.2025 370.172 56.3083 370.172 53.5352H368.172ZM376.203 63.1836C378.807 63.1836 381.056 62.6989 382.897 61.6673C384.751 60.6283 386.13 59.0687 387.031 57.034L385.203 56.2238C384.464 57.8923 383.37 59.1099 381.919 59.9225C380.456 60.7425 378.568 61.1836 376.203 61.1836V63.1836ZM387.117 56.6289V28.9609H385.117V56.6289H387.117ZM386.117 29.9609H392.621V27.9609H386.117V29.9609ZM391.621 28.9609V67H393.621V28.9609H391.621ZM392.621 66H386.434V68H392.621V66ZM387.433 66.9626L387.292 63.2009L385.294 63.2756L385.434 67.0374L387.433 66.9626ZM409.039 63.3086L409.781 62.638L408.039 60.7112V63.3086H409.039ZM409.039 81.625V82.625H410.039V81.625H409.039ZM402.535 81.625H401.535V82.625H402.535V81.625ZM402.535 28.9609V27.9609H401.535V28.9609H402.535ZM408.477 28.9609L409.474 28.8861L409.404 27.9609H408.477V28.9609ZM408.793 33.1797L407.796 33.2545L407.985 35.7733L409.571 33.8078L408.793 33.1797ZM430.66 33.4258L429.867 34.0352L429.87 34.0386L430.66 33.4258ZM409.039 39.0156L408.168 38.5245L408.039 38.7532V39.0156H409.039ZM409.039 57.1914H408.039V57.4527L408.167 57.6805L409.039 57.1914ZM425.387 58.7031L424.585 58.1055L424.584 58.1068L425.387 58.7031ZM433.668 48.4023C433.668 54.0422 432.379 58.476 429.895 61.7954L431.496 62.9937C434.309 59.2349 435.668 54.3406 435.668 48.4023H433.668ZM429.895 61.7954C427.44 65.0753 424.154 66.7031 419.938 66.7031V68.7031C424.767 68.7031 428.654 66.7919 431.496 62.9937L429.895 61.7954ZM419.938 66.7031C415.551 66.7031 412.207 65.322 409.781 62.638L408.297 63.9792C411.168 67.1546 415.09 68.7031 419.938 68.7031V66.7031ZM408.039 63.3086V81.625H410.039V63.3086H408.039ZM409.039 80.625H402.535V82.625H409.039V80.625ZM403.535 81.625V28.9609H401.535V81.625H403.535ZM402.535 29.9609H408.477V27.9609H402.535V29.9609ZM407.479 29.0357L407.796 33.2545L409.79 33.1049L409.474 28.8861L407.479 29.0357ZM409.571 33.8078C412.006 30.7913 415.383 29.2578 419.832 29.2578V27.2578C414.859 27.2578 410.877 29.0056 408.015 32.5516L409.571 33.8078ZM419.832 29.2578C424.11 29.2578 427.419 30.8506 429.867 34.0352L431.453 32.8163C428.604 29.1103 424.694 27.2578 419.832 27.2578V29.2578ZM429.87 34.0386C432.36 37.2495 433.668 41.7974 433.668 47.8047H435.668C435.668 41.5308 434.304 36.4927 431.45 32.813L429.87 34.0386ZM433.668 47.8047V48.4023H435.668V47.8047H433.668ZM429.164 47.6641C429.164 43.243 428.223 39.6229 426.227 36.9112L424.616 38.0966C426.277 40.3536 427.164 43.507 427.164 47.6641H429.164ZM426.227 36.9112C424.203 34.1608 421.391 32.7773 417.898 32.7773V34.7773C420.78 34.7773 422.984 35.8782 424.616 38.0966L426.227 36.9112ZM417.898 32.7773C413.592 32.7773 410.31 34.725 408.168 38.5245L409.91 39.5067C411.706 36.3218 414.33 34.7773 417.898 34.7773V32.7773ZM408.039 39.0156V57.1914H410.039V39.0156H408.039ZM408.167 57.6805C409.213 59.5462 410.562 60.9877 412.227 61.9578C413.892 62.9277 415.817 63.3945 417.969 63.3945V61.3945C416.113 61.3945 414.546 60.9942 413.234 60.2297C411.922 59.4655 410.81 58.3054 409.911 56.7023L408.167 57.6805ZM417.969 63.3945C421.396 63.3945 424.169 62.0194 426.189 59.2994L424.584 58.1068C422.948 60.3088 420.776 61.3945 417.969 61.3945V63.3945ZM426.189 59.3007C428.224 56.5699 429.164 52.6394 429.164 47.6641H427.164C427.164 52.4388 426.253 55.8676 424.585 58.1055L426.189 59.3007ZM450.031 67V68H451.031V67H450.031ZM443.527 67H442.527V68H443.527V67ZM443.527 13V12H442.527V13H443.527ZM450.031 13H451.031V12H450.031V13ZM450.031 66H443.527V68H450.031V66ZM444.527 67V13H442.527V67H444.527ZM443.527 14H450.031V12H443.527V14ZM449.031 13V67H451.031V13H449.031ZM463.672 62.6406L462.947 63.33L462.95 63.3325L463.672 62.6406ZM460.965 37.75L460.066 37.3113L460.065 37.3143L460.965 37.75ZM467.012 30.7891L467.554 31.6292L467.556 31.628L467.012 30.7891ZM491.094 49.8438V50.8438H492.094V49.8438H491.094ZM465.324 49.8438V48.8438H464.299L464.325 49.8687L465.324 49.8438ZM468.594 58.9492L467.85 59.6178L467.857 59.6256L468.594 58.9492ZM486.629 57.2617L487.243 56.4727L486.451 55.856L485.838 56.6503L486.629 57.2617ZM490.602 60.3555L491.44 60.9009L491.941 60.1309L491.216 59.5665L490.602 60.3555ZM468.84 36.4844L469.569 37.1686L469.573 37.1641L468.84 36.4844ZM465.535 44.5L464.543 44.3785L464.405 45.5H465.535V44.5ZM484.59 44.5V45.5H485.59V44.5H484.59ZM484.59 44.0078H485.59V43.9795L485.588 43.9512L484.59 44.0078ZM481.918 36.3438L481.164 37.0009L481.168 37.0057L481.918 36.3438ZM476.258 66.7031C471.343 66.7031 467.419 65.1056 464.394 61.9487L462.95 63.3325C466.393 66.9257 470.86 68.7031 476.258 68.7031V66.7031ZM464.396 61.9512C461.374 58.7761 459.82 54.5072 459.82 49.0352H457.82C457.82 54.9069 459.501 59.7082 462.947 63.33L464.396 61.9512ZM459.82 49.0352V47.8398H457.82V49.0352H459.82ZM459.82 47.8398C459.82 44.1947 460.51 40.984 461.865 38.1857L460.065 37.3143C458.56 40.4222 457.82 43.9381 457.82 47.8398H459.82ZM461.863 38.1887C463.243 35.3624 465.141 33.1866 467.554 31.6292L466.469 29.9489C463.726 31.7196 461.593 34.1844 460.066 37.3113L461.863 38.1887ZM467.556 31.628C470 30.0428 472.624 29.2578 475.449 29.2578V27.2578C472.227 27.2578 469.227 28.1603 466.468 29.9501L467.556 31.628ZM475.449 29.2578C480.152 29.2578 483.695 30.794 486.215 33.7885L487.746 32.5006C484.782 28.9794 480.637 27.2578 475.449 27.2578V29.2578ZM486.215 33.7885C488.753 36.8028 490.094 41.2034 490.094 47.1367H492.094C492.094 40.9294 490.693 36.0019 487.746 32.5006L486.215 33.7885ZM490.094 47.1367V49.8438H492.094V47.1367H490.094ZM491.094 48.8438H465.324V50.8438H491.094V48.8438ZM464.325 49.8687C464.423 53.8066 465.574 57.0861 467.85 59.6178L469.337 58.2807C467.441 56.1717 466.413 53.3809 466.324 49.8188L464.325 49.8687ZM467.857 59.6256C470.164 62.1372 473.107 63.3945 476.609 63.3945V61.3945C473.643 61.3945 471.242 60.355 469.33 58.2728L467.857 59.6256ZM476.609 63.3945C479.042 63.3945 481.172 62.8976 482.952 61.8502L481.938 60.1263C480.531 60.954 478.771 61.3945 476.609 61.3945V63.3945ZM482.952 61.8502C484.662 60.8445 486.151 59.515 487.42 57.8732L485.838 56.6503C484.716 58.1021 483.416 59.2571 481.938 60.1263L482.952 61.8502ZM486.014 58.0507L489.987 61.1444L491.216 59.5665L487.243 56.4727L486.014 58.0507ZM489.763 59.8101C486.779 64.3957 482.331 66.7031 476.258 66.7031V68.7031C482.935 68.7031 488.049 66.1122 491.44 60.9009L489.763 59.8101ZM475.449 32.6016C472.546 32.6016 470.077 33.6781 468.106 35.8046L469.573 37.1641C471.165 35.4469 473.102 34.6016 475.449 34.6016V32.6016ZM468.111 35.8001C466.142 37.8977 464.982 40.7919 464.543 44.3785L466.528 44.6215C466.932 41.3174 467.975 38.8679 469.569 37.1686L468.111 35.8001ZM465.535 45.5H484.59V43.5H465.535V45.5ZM485.59 44.5V44.0078H483.59V44.5H485.59ZM485.588 43.9512C485.393 40.5054 484.457 37.7078 482.668 35.6818L481.168 37.0057C482.567 38.5891 483.412 40.9008 483.591 44.0645L485.588 43.9512ZM482.672 35.6866C480.864 33.6128 478.418 32.6016 475.449 32.6016V34.6016C477.918 34.6016 479.785 35.4184 481.164 37.0009L482.672 35.6866ZM516.969 37.5742L516.073 37.1298L516.07 37.1355L516.969 37.5742ZM523.086 30.6836L522.561 29.8322L522.558 29.8343L523.086 30.6836ZM544.602 33.6367L543.854 34.3011L543.857 34.3038L544.602 33.6367ZM547.273 58.3867L546.373 57.951L546.372 57.954L547.273 58.3867ZM541.191 65.2422L540.665 64.3921L540.661 64.3942L541.191 65.2422ZM519.57 62.3242L518.823 62.9886L518.825 62.9913L519.57 62.3242ZM524.246 58.5625L523.45 59.1683L523.454 59.1729L524.246 58.5625ZM539.996 58.5273L540.794 59.1297L540.797 59.1262L539.996 58.5273ZM539.926 37.5039L539.128 38.1074L539.134 38.1154L539.926 37.5039ZM515.789 47.6289C515.789 44.0352 516.489 40.8366 517.867 38.0129L516.07 37.1355C514.542 40.2649 513.789 43.7695 513.789 47.6289H515.789ZM517.865 38.0186C519.266 35.1939 521.184 33.0436 523.614 31.5329L522.558 29.8343C519.785 31.5579 517.625 34.0014 516.073 37.1298L517.865 38.0186ZM523.61 31.535C526.064 30.0234 528.868 29.2578 532.051 29.2578V27.2578C528.531 27.2578 525.358 28.1094 522.561 29.8322L523.61 31.535ZM532.051 29.2578C536.97 29.2578 540.873 30.947 543.854 34.3011L545.349 32.9724C541.955 29.1545 537.491 27.2578 532.051 27.2578V29.2578ZM543.857 34.3038C546.867 37.6656 548.418 42.1776 548.418 47.9453H550.418C550.418 41.8068 548.758 36.7797 545.347 32.9696L543.857 34.3038ZM548.418 47.9453V48.4023H550.418V47.9453H548.418ZM548.418 48.4023C548.418 51.9741 547.729 55.1502 546.373 57.951L548.174 58.8225C549.677 55.7169 550.418 52.2369 550.418 48.4023H548.418ZM546.372 57.954C545.045 60.7194 543.144 62.8564 540.665 64.3921L541.718 66.0923C544.536 64.3467 546.69 61.9134 548.175 58.8194L546.372 57.954ZM540.661 64.3942C538.212 65.9252 535.376 66.7031 532.121 66.7031V68.7031C535.71 68.7031 538.921 67.8404 541.721 66.0902L540.661 64.3942ZM532.121 66.7031C527.226 66.7031 523.322 65.0148 520.315 61.6571L518.825 62.9913C522.241 66.8055 526.703 68.7031 532.121 68.7031V66.7031ZM520.318 61.6599C517.328 58.2967 515.789 53.8063 515.789 48.0859H513.789C513.789 54.1781 515.437 59.1798 518.823 62.9886L520.318 61.6599ZM515.789 48.0859V47.6289H513.789V48.0859H515.789ZM520.328 48.4023C520.328 52.7713 521.336 56.3918 523.45 59.1683L525.042 57.9567C523.265 55.6238 522.328 52.4709 522.328 48.4023H520.328ZM523.454 59.1729C525.616 61.9782 528.536 63.3945 532.121 63.3945V61.3945C529.144 61.3945 526.814 60.2561 525.038 57.9521L523.454 59.1729ZM532.121 63.3945C535.731 63.3945 538.655 61.965 540.794 59.1297L539.198 57.925C537.447 60.2459 535.121 61.3945 532.121 61.3945V63.3945ZM540.797 59.1262C542.917 56.2909 543.914 52.4179 543.914 47.6289H541.914C541.914 52.168 540.966 55.5607 539.195 57.9285L540.797 59.1262ZM543.914 47.6289C543.914 43.2985 542.878 39.6896 540.717 36.8925L539.134 38.1154C540.957 40.4745 541.914 43.6156 541.914 47.6289H543.914ZM540.723 36.9005C538.564 34.0474 535.643 32.6016 532.051 32.6016V34.6016C535.021 34.6016 537.35 35.7573 539.128 38.1073L540.723 36.9005ZM532.051 32.6016C528.528 32.6016 525.646 34.0241 523.489 36.8232L525.073 38.044C526.854 35.7337 529.152 34.6016 532.051 34.6016V32.6016ZM523.489 36.8232C521.335 39.6186 520.328 43.5244 520.328 48.4023H522.328C522.328 43.7647 523.29 40.3579 525.073 38.044L523.489 36.8232ZM560.773 67H559.773V68H560.773V67ZM560.773 33.9883H561.773V32.9883H560.773V33.9883ZM554.762 33.9883H553.762V34.9883H554.762V33.9883ZM554.762 28.9609V27.9609H553.762V28.9609H554.762ZM560.773 28.9609V29.9609H561.773V28.9609H560.773ZM577.754 12.8594L578.752 12.9259L578.806 12.1076L578.014 11.8939L577.754 12.8594ZM577.402 18.1328L577.214 19.115L578.325 19.3276L578.4 18.1993L577.402 18.1328ZM569 19.6797L569.728 20.3655L569.734 20.3585L569 19.6797ZM567.277 28.9609H566.277V29.9609H567.277V28.9609ZM575.398 28.9609H576.398V27.9609H575.398V28.9609ZM575.398 33.9883V34.9883H576.398V33.9883H575.398ZM567.277 33.9883V32.9883H566.277V33.9883H567.277ZM567.277 67V68H568.277V67H567.277ZM561.773 67V33.9883H559.773V67H561.773ZM560.773 32.9883H554.762V34.9883H560.773V32.9883ZM555.762 33.9883V28.9609H553.762V33.9883H555.762ZM554.762 29.9609H560.773V27.9609H554.762V29.9609ZM561.773 28.9609V25.0586H559.773V28.9609H561.773ZM561.773 25.0586C561.773 21.1583 562.812 18.2885 564.758 16.3011L563.328 14.902C560.915 17.3678 559.773 20.8027 559.773 25.0586H561.773ZM564.758 16.3011C566.7 14.3165 569.495 13.2617 573.289 13.2617V11.2617C569.115 11.2617 565.745 12.4335 563.328 14.902L564.758 16.3011ZM573.289 13.2617C574.699 13.2617 576.1 13.4489 577.493 13.8248L578.014 11.8939C576.455 11.473 574.879 11.2617 573.289 11.2617V13.2617ZM576.756 12.7929L576.405 18.0663L578.4 18.1993L578.752 12.9259L576.756 12.7929ZM577.59 17.1507C576.421 16.9267 575.185 16.8164 573.887 16.8164V18.8164C575.072 18.8164 576.181 18.9171 577.214 19.115L577.59 17.1507ZM573.887 16.8164C571.572 16.8164 569.648 17.5054 568.266 19.0008L569.734 20.3585C570.649 19.3696 571.982 18.8164 573.887 18.8164V16.8164ZM568.272 18.9939C566.893 20.4579 566.277 22.4973 566.277 24.9531H568.277C568.277 22.8152 568.81 21.339 569.728 20.3655L568.272 18.9939ZM566.277 24.9531V28.9609H568.277V24.9531H566.277ZM567.277 29.9609H575.398V27.9609H567.277V29.9609ZM574.398 28.9609V33.9883H576.398V28.9609H574.398ZM575.398 32.9883H567.277V34.9883H575.398V32.9883ZM566.277 33.9883V67H568.277V33.9883H566.277ZM567.277 66H560.773V68H567.277V66ZM607.531 67V68H608.531V67H607.531ZM601.027 67H600.027V68H601.027V67ZM601.027 28.9609V27.9609H600.027V28.9609H601.027ZM607.531 28.9609H608.531V27.9609H607.531V28.9609ZM601.449 16.1992L600.707 15.5289L600.701 15.5356L600.695 15.5424L601.449 16.1992ZM601.449 21.5078L600.706 22.1768L600.712 22.1835L600.718 22.1901L601.449 21.5078ZM607.531 66H601.027V68H607.531V66ZM602.027 67V28.9609H600.027V67H602.027ZM601.027 29.9609H607.531V27.9609H601.027V29.9609ZM606.531 28.9609V67H608.531V28.9609H606.531ZM601.5 18.8711C601.5 18.0332 601.745 17.3828 602.203 16.856L600.695 15.5424C599.888 16.4688 599.5 17.5996 599.5 18.8711H601.5ZM602.191 16.8695C602.606 16.4103 603.261 16.1094 604.332 16.1094V14.1094C602.871 14.1094 601.605 14.535 600.707 15.5289L602.191 16.8695ZM604.332 16.1094C605.403 16.1094 606.058 16.4103 606.473 16.8695L607.957 15.5289C607.059 14.535 605.793 14.1094 604.332 14.1094V16.1094ZM606.473 16.8695C606.95 17.3974 607.199 18.0432 607.199 18.8711H609.199C609.199 17.5896 608.793 16.4542 607.957 15.5289L606.473 16.8695ZM607.199 18.8711C607.199 19.6991 606.95 20.3261 606.484 20.8255L607.946 22.1901C608.792 21.2833 609.199 20.1525 609.199 18.8711H607.199ZM606.484 20.8255C606.071 21.2674 605.412 21.5625 604.332 21.5625V23.5625C605.783 23.5625 607.046 23.1545 607.946 22.1901L606.484 20.8255ZM604.332 21.5625C603.252 21.5625 602.593 21.2674 602.18 20.8255L600.718 22.1901C601.618 23.1545 602.881 23.5625 604.332 23.5625V21.5625ZM602.193 20.8388C601.744 20.3409 601.5 19.7093 601.5 18.8711H599.5C599.5 20.1422 599.888 21.2685 600.706 22.1768L602.193 20.8388ZM620.539 33.6016L621.327 34.2173L621.329 34.2148L620.539 33.6016ZM641.984 32.8281L641.224 33.4775L642.984 35.5393V32.8281H641.984ZM641.984 13V12H640.984V13H641.984ZM648.488 13H649.488V12H648.488V13ZM648.488 67V68H649.488V67H648.488ZM642.512 67L641.515 67.0774L641.586 68H642.512V67ZM642.195 62.9219L643.192 62.8445L642.999 60.3554L641.421 62.2896L642.195 62.9219ZM620.539 62.2891L619.745 62.8973L619.748 62.9005L620.539 62.2891ZM641.984 56.6289L642.874 57.0851L642.984 56.8703V56.6289H641.984ZM641.984 39.1562H642.984V38.9025L642.863 38.6794L641.984 39.1562ZM617.391 47.6641C617.391 41.984 618.735 37.534 621.327 34.2173L619.751 32.9858C616.812 36.7472 615.391 41.6722 615.391 47.6641H617.391ZM621.329 34.2148C623.907 30.8942 627.237 29.2578 631.402 29.2578V27.2578C626.614 27.2578 622.703 29.184 619.749 32.9883L621.329 34.2148ZM631.402 29.2578C635.6 29.2578 638.835 30.6796 641.224 33.4775L642.745 32.1788C639.931 28.8829 636.111 27.2578 631.402 27.2578V29.2578ZM642.984 32.8281V13H640.984V32.8281H642.984ZM641.984 14H648.488V12H641.984V14ZM647.488 13V67H649.488V13H647.488ZM648.488 66H642.512V68H648.488V66ZM643.509 66.9226L643.192 62.8445L641.198 62.9992L641.515 67.0774L643.509 66.9226ZM641.421 62.2896C639.035 65.2128 635.716 66.7031 631.332 66.7031V68.7031C636.23 68.7031 640.153 67.006 642.97 63.5542L641.421 62.2896ZM631.332 66.7031C627.248 66.7031 623.938 65.052 621.33 61.6776L619.748 62.9005C622.718 66.7449 626.604 68.7031 631.332 68.7031V66.7031ZM621.333 61.6808C618.734 58.2894 617.391 53.8107 617.391 48.1562H615.391C615.391 54.1268 616.813 59.0699 619.745 62.8973L621.333 61.6808ZM617.391 48.1562V47.6641H615.391V48.1562H617.391ZM621.895 48.4023C621.895 52.8392 622.809 56.4492 624.759 59.1174L626.374 57.9373C624.761 55.7305 623.895 52.5905 623.895 48.4023H621.895ZM624.759 59.1174C626.737 61.8245 629.505 63.1836 632.949 63.1836V61.1836C630.113 61.1836 627.958 60.1052 626.374 57.9373L624.759 59.1174ZM632.949 63.1836C635.165 63.1836 637.137 62.6846 638.825 61.6468C640.513 60.6093 641.856 59.0704 642.874 57.0851L641.094 56.1727C640.214 57.8905 639.102 59.129 637.778 59.943C636.454 60.7568 634.858 61.1836 632.949 61.1836V63.1836ZM642.984 56.6289V39.1562H640.984V56.6289H642.984ZM642.863 38.6794C641.82 36.7564 640.471 35.2677 638.799 34.2646C637.126 33.261 635.188 32.7773 633.02 32.7773V34.7773C634.883 34.7773 636.454 35.1901 637.77 35.9796C639.086 36.7694 640.203 37.9702 641.105 39.6331L642.863 38.6794ZM633.02 32.7773C629.53 32.7773 626.736 34.147 624.756 36.8824L626.376 38.0551C627.959 35.8687 630.134 34.7773 633.02 34.7773V32.7773ZM624.756 36.8824C622.798 39.5879 621.895 43.4784 621.895 48.4023H623.895C623.895 43.67 624.772 40.2715 626.376 38.0551L624.756 36.8824ZM661.812 62.6406L661.088 63.33L661.091 63.3325L661.812 62.6406ZM659.105 37.75L658.207 37.3113L658.205 37.3143L659.105 37.75ZM665.152 30.7891L665.695 31.6292L665.697 31.628L665.152 30.7891ZM689.234 49.8438V50.8438H690.234V49.8438H689.234ZM663.465 49.8438V48.8438H662.44L662.465 49.8687L663.465 49.8438ZM666.734 58.9492L665.991 59.6178L665.998 59.6256L666.734 58.9492ZM684.77 57.2617L685.384 56.4727L684.592 55.856L683.978 56.6503L684.77 57.2617ZM688.742 60.3555L689.58 60.9009L690.081 60.1309L689.357 59.5665L688.742 60.3555ZM666.98 36.4844L667.71 37.1686L667.714 37.1641L666.98 36.4844ZM663.676 44.5L662.683 44.3785L662.546 45.5H663.676V44.5ZM682.73 44.5V45.5H683.73V44.5H682.73ZM682.73 44.0078H683.73V43.9795L683.729 43.9512L682.73 44.0078ZM680.059 36.3438L679.305 37.0009L679.309 37.0057L680.059 36.3438ZM674.398 66.7031C669.484 66.7031 665.56 65.1056 662.534 61.9487L661.091 63.3325C664.534 66.9257 669.001 68.7031 674.398 68.7031V66.7031ZM662.537 61.9512C659.515 58.7761 657.961 54.5072 657.961 49.0352H655.961C655.961 54.9069 657.641 59.7082 661.088 63.33L662.537 61.9512ZM657.961 49.0352V47.8398H655.961V49.0352H657.961ZM657.961 47.8398C657.961 44.1947 658.651 40.984 660.006 38.1857L658.205 37.3143C656.701 40.4222 655.961 43.9381 655.961 47.8398H657.961ZM660.004 38.1887C661.384 35.3624 663.282 33.1866 665.695 31.6292L664.61 29.9489C661.867 31.7196 659.733 34.1844 658.207 37.3113L660.004 38.1887ZM665.697 31.628C668.14 30.0428 670.765 29.2578 673.59 29.2578V27.2578C670.368 27.2578 667.367 28.1603 664.608 29.9501L665.697 31.628ZM673.59 29.2578C678.293 29.2578 681.836 30.794 684.356 33.7885L685.886 32.5006C682.922 28.9794 678.777 27.2578 673.59 27.2578V29.2578ZM684.356 33.7885C686.893 36.8028 688.234 41.2034 688.234 47.1367H690.234C690.234 40.9294 688.833 36.0019 685.886 32.5006L684.356 33.7885ZM688.234 47.1367V49.8438H690.234V47.1367H688.234ZM689.234 48.8438H663.465V50.8438H689.234V48.8438ZM662.465 49.8687C662.564 53.8066 663.715 57.0861 665.991 59.6178L667.478 58.2807C665.582 56.1717 664.554 53.3809 664.465 49.8188L662.465 49.8687ZM665.998 59.6256C668.304 62.1372 671.247 63.3945 674.75 63.3945V61.3945C671.784 61.3945 669.383 60.355 667.471 58.2728L665.998 59.6256ZM674.75 63.3945C677.182 63.3945 679.312 62.8976 681.093 61.8502L680.079 60.1263C678.672 60.954 676.911 61.3945 674.75 61.3945V63.3945ZM681.093 61.8502C682.803 60.8445 684.292 59.515 685.561 57.8732L683.978 56.6503C682.856 58.1021 681.557 59.2571 680.079 60.1263L681.093 61.8502ZM684.155 58.0507L688.128 61.1444L689.357 59.5665L685.384 56.4727L684.155 58.0507ZM687.904 59.8101C684.92 64.3957 680.472 66.7031 674.398 66.7031V68.7031C681.075 68.7031 686.189 66.1122 689.58 60.9009L687.904 59.8101ZM673.59 32.6016C670.687 32.6016 668.218 33.6781 666.247 35.8046L667.714 37.1641C669.306 35.4469 671.243 34.6016 673.59 34.6016V32.6016ZM666.251 35.8001C664.283 37.8977 663.122 40.7919 662.683 44.3785L664.668 44.6215C665.073 41.3174 666.115 38.8679 667.71 37.1686L666.251 35.8001ZM663.676 45.5H682.73V43.5H663.676V45.5ZM683.73 44.5V44.0078H681.73V44.5H683.73ZM683.729 43.9512C683.533 40.5054 682.597 37.7078 680.808 35.6818L679.309 37.0057C680.707 38.5891 681.553 40.9008 681.732 44.0645L683.729 43.9512ZM680.812 35.6866C679.004 33.6128 676.559 32.6016 673.59 32.6016V34.6016C676.059 34.6016 677.925 35.4184 679.305 37.0009L680.812 35.6866ZM720.277 67L719.383 67.4472L719.659 68H720.277V67ZM719.363 62.9922L720.356 62.8711L720.101 60.7836L718.643 62.2986L719.363 62.9922ZM699.289 64.5391L698.623 65.2853L698.631 65.2921L699.289 64.5391ZM700.203 47.2422L700.791 48.0512L700.792 48.0504L700.203 47.2422ZM719.258 43.9375V44.9375H720.258V43.9375H719.258ZM717.219 35.5352L716.512 36.2423L716.518 36.2484L717.219 35.5352ZM703.016 39.5078V40.5078H704.016V39.5078H703.016ZM696.477 39.5078H695.477V40.5078H696.477V39.5078ZM698.48 34.0234L697.686 33.4168L697.684 33.4184L698.48 34.0234ZM703.965 29.8047L703.559 28.8909L703.555 28.8924L703.965 29.8047ZM721.895 31.5625L721.231 32.3107L721.235 32.3142L721.895 31.5625ZM725.762 40.5977H726.762V40.5855L726.761 40.5733L725.762 40.5977ZM727.098 66.4375H728.098V66.2308L728.016 66.0411L727.098 66.4375ZM727.098 67V68H728.098V67H727.098ZM719.258 56.3477L720.157 56.7848L720.258 56.5778V56.3477H719.258ZM719.258 48.543H720.258V47.543H719.258V48.543ZM721.172 66.5528C720.881 65.9713 720.59 64.7892 720.356 62.8711L718.371 63.1132C718.605 65.0389 718.924 66.5287 719.383 67.4472L721.172 66.5528ZM718.643 62.2986C715.8 65.2521 712.447 66.7031 708.535 66.7031V68.7031C713.014 68.7031 716.88 67.0136 720.084 63.6857L718.643 62.2986ZM708.535 66.7031C704.984 66.7031 702.149 65.7098 699.947 63.786L698.631 65.2921C701.258 67.5871 704.587 68.7031 708.535 68.7031V66.7031ZM699.955 63.7929C697.781 61.8534 696.703 59.4314 696.703 56.4531H694.703C694.703 59.9904 696.016 62.9591 698.623 65.2853L699.955 63.7929ZM696.703 56.4531C696.703 52.7868 698.07 50.0282 700.791 48.0512L699.615 46.4332C696.336 48.8155 694.703 52.1976 694.703 56.4531H696.703ZM700.792 48.0504C703.582 46.0174 707.587 44.9375 712.93 44.9375V42.9375C707.35 42.9375 702.871 44.0607 699.614 46.434L700.792 48.0504ZM712.93 44.9375H719.258V42.9375H712.93V44.9375ZM720.258 43.9375V40.9492H718.258V43.9375H720.258ZM720.258 40.9492C720.258 38.4632 719.507 36.3816 717.92 34.8219L716.518 36.2484C717.65 37.3606 718.258 38.8884 718.258 40.9492H720.258ZM717.926 34.828C716.317 33.2195 714.018 32.4961 711.207 32.4961V34.4961C713.693 34.4961 715.401 35.1321 716.512 36.2423L717.926 34.828ZM711.207 32.4961C708.712 32.4961 706.546 33.1292 704.773 34.4525L705.969 36.0553C707.337 35.0349 709.061 34.4961 711.207 34.4961V32.4961ZM704.773 34.4525C703.001 35.7752 702.016 37.4697 702.016 39.5078H704.016C704.016 38.2178 704.601 37.0764 705.969 36.0553L704.773 34.4525ZM703.016 38.5078H696.477V40.5078H703.016V38.5078ZM697.477 39.5078C697.477 37.8623 698.051 36.2418 699.277 34.6285L697.684 33.4184C696.239 35.3207 695.477 37.3565 695.477 39.5078H697.477ZM699.275 34.6301C700.522 32.9969 702.21 31.6886 704.374 30.717L703.555 28.8924C701.126 29.9833 699.158 31.4875 697.686 33.4168L699.275 34.6301ZM704.371 30.7185C706.552 29.749 708.955 29.2578 711.594 29.2578V27.2578C708.701 27.2578 706.018 27.7979 703.559 28.8909L704.371 30.7185ZM711.594 29.2578C715.812 29.2578 718.982 30.3158 721.231 32.3107L722.558 30.8143C719.839 28.4029 716.141 27.2578 711.594 27.2578V29.2578ZM721.235 32.3142C723.475 34.2791 724.674 37.0076 724.762 40.622L726.761 40.5733C726.662 36.5002 725.283 33.2053 722.554 30.8108L721.235 32.3142ZM724.762 40.5977V58.1055H726.762V40.5977H724.762ZM724.762 58.1055C724.762 61.6664 725.213 64.5963 726.18 66.8339L728.016 66.0411C727.201 64.1537 726.762 61.5289 726.762 58.1055H724.762ZM726.098 66.4375V67H728.098V66.4375H726.098ZM727.098 66H720.277V68H727.098V66ZM709.484 63.043C711.705 63.043 713.81 62.4663 715.785 61.3271L714.785 59.5948C713.104 60.565 711.342 61.043 709.484 61.043V63.043ZM715.785 61.3271C717.764 60.1855 719.239 58.674 720.157 56.7848L718.358 55.9105C717.636 57.3963 716.463 58.627 714.785 59.5948L715.785 61.3271ZM720.258 56.3477V48.543H718.258V56.3477H720.258ZM719.258 47.543H714.16V49.543H719.258V47.543ZM714.16 47.543C710.111 47.543 706.91 48.1297 704.69 49.429C702.388 50.7766 701.207 52.8564 701.207 55.5391H703.207C703.207 53.5577 704.019 52.1394 705.7 51.155C707.465 50.1223 710.241 49.543 714.16 49.543V47.543ZM701.207 55.5391C701.207 57.8246 701.982 59.7169 703.601 61.0842L704.891 59.5564C703.791 58.6269 703.207 57.3316 703.207 55.5391H701.207ZM703.601 61.0842C705.175 62.414 707.164 63.043 709.484 63.043V61.043C707.539 61.043 706.036 60.5235 704.891 59.5564L703.601 61.0842ZM756.102 52.832L755.502 53.632L755.51 53.638L755.518 53.6438L756.102 52.832ZM749.176 50.3008L748.966 51.2786L748.968 51.2789L749.176 50.3008ZM741.336 47.7695L740.88 48.6596L740.884 48.6618L741.336 47.7695ZM737.047 44.2539L736.217 44.8119L736.224 44.8216L737.047 44.2539ZM739.613 31.4922L738.982 30.7167L738.979 30.7195L739.613 31.4922ZM760.215 31.5977L759.575 32.3659L759.578 32.3686L760.215 31.5977ZM764.258 40.1406V41.1406H765.258V40.1406H764.258ZM757.719 40.1406H756.719V41.1406H757.719V40.1406ZM755.434 35.5352L754.782 36.2936L754.788 36.2985L755.434 35.5352ZM750.758 45.0273L750.539 46.003L750.54 46.0034L750.758 45.0273ZM763.133 51.2852L762.303 51.843L762.308 51.8509L762.314 51.8586L763.133 51.2852ZM760.531 64.6445L761.131 65.4445L761.136 65.4412L760.531 64.6445ZM736.344 61.5859L735.515 62.1453L735.523 62.1567L736.344 61.5859ZM734.375 55.293V54.293H733.375V55.293H734.375ZM740.879 55.293L741.877 55.2393L741.827 54.293H740.879V55.293ZM743.48 60.4961L742.857 61.2781L742.863 61.283L742.87 61.2879L743.48 60.4961ZM755.855 60.918L756.41 61.75L756.413 61.748L755.855 60.918ZM759.105 56.9102C759.105 54.8563 758.303 53.1836 756.685 52.0202L755.518 53.6438C756.572 54.4023 757.105 55.4484 757.105 56.9102H759.105ZM756.702 52.032C755.204 50.909 752.711 50.0307 749.384 49.3227L748.968 51.2789C752.25 51.9772 754.374 52.7863 755.502 53.632L756.702 52.032ZM749.385 49.323C746.148 48.6293 743.627 47.8079 741.787 46.8773L740.884 48.6618C742.936 49.6999 745.641 50.566 748.966 51.2786L749.385 49.323ZM741.792 46.8795C739.973 45.9481 738.689 44.8739 737.87 43.6862L736.224 44.8216C737.28 46.3526 738.855 47.6222 740.88 48.6596L741.792 46.8795ZM737.877 43.6959C737.089 42.5245 736.676 41.1082 736.676 39.4023H734.676C734.676 41.4465 735.177 43.2646 736.217 44.8119L737.877 43.6959ZM736.676 39.4023C736.676 36.6137 737.831 34.2506 740.248 32.2649L738.979 30.7195C736.146 33.0462 734.676 35.9566 734.676 39.4023H736.676ZM740.245 32.2677C742.681 30.2843 745.819 29.2578 749.738 29.2578V27.2578C745.455 27.2578 741.843 28.3876 738.982 30.7167L740.245 32.2677ZM749.738 29.2578C753.875 29.2578 757.122 30.3224 759.575 32.3659L760.855 30.8294C757.963 28.4198 754.227 27.2578 749.738 27.2578V29.2578ZM759.578 32.3686C762.045 34.4069 763.258 36.9729 763.258 40.1406H765.258C765.258 36.3709 763.775 33.2415 760.852 30.8267L759.578 32.3686ZM764.258 39.1406H757.719V41.1406H764.258V39.1406ZM758.719 40.1406C758.719 38.0276 757.797 36.2251 756.08 34.7718L754.788 36.2985C756.117 37.4233 756.719 38.6911 756.719 40.1406H758.719ZM756.085 34.7767C754.375 33.3071 752.234 32.6016 749.738 32.6016V34.6016C751.837 34.6016 753.492 35.1851 754.782 36.2936L756.085 34.7767ZM749.738 32.6016C747.237 32.6016 745.142 33.1455 743.573 34.3568L744.795 35.94C745.897 35.0889 747.505 34.6016 749.738 34.6016V32.6016ZM743.573 34.3568C741.995 35.5743 741.18 37.2123 741.18 39.1914H743.18C743.18 37.8423 743.7 36.7851 744.795 35.94L743.573 34.3568ZM741.18 39.1914C741.18 41.0762 741.953 42.5894 743.503 43.5839L744.583 41.9005C743.649 41.3012 743.18 40.4473 743.18 39.1914H741.18ZM743.503 43.5839C744.906 44.4838 747.297 45.2748 750.539 46.003L750.977 44.0517C747.75 43.3268 745.665 42.5944 744.583 41.9005L743.503 43.5839ZM750.54 46.0034C753.753 46.7198 756.304 47.5649 758.221 48.5233L759.115 46.7345C757.001 45.6773 754.279 44.788 750.975 44.0513L750.54 46.0034ZM758.221 48.5233C760.128 49.477 761.464 50.5942 762.303 51.843L763.963 50.7273C762.88 49.1167 761.239 47.7964 759.115 46.7345L758.221 48.5233ZM762.314 51.8586C763.16 53.0671 763.609 54.5798 763.609 56.4531H765.609C765.609 54.2483 765.075 52.3157 763.952 50.7117L762.314 51.8586ZM763.609 56.4531C763.609 59.5372 762.398 61.9735 759.927 63.8478L761.136 65.4412C764.102 63.1906 765.609 60.1659 765.609 56.4531H763.609ZM759.931 63.8445C757.428 65.7218 754.129 66.7031 749.949 66.7031V68.7031C754.441 68.7031 758.197 67.6454 761.131 65.4445L759.931 63.8445ZM749.949 66.7031C747.021 66.7031 744.472 66.1853 742.281 65.1774L741.445 66.9944C743.942 68.1428 746.784 68.7031 749.949 68.7031V66.7031ZM742.281 65.1774C740.083 64.1661 738.389 62.7758 737.165 61.0152L735.523 62.1567C736.971 64.2398 738.957 65.8496 741.445 66.9944L742.281 65.1774ZM737.173 61.0266C735.967 59.239 735.375 57.3348 735.375 55.293H733.375C733.375 57.7512 734.096 60.0422 735.515 62.1452L737.173 61.0266ZM734.375 56.293H740.879V54.293H734.375V56.293ZM739.88 55.3467C740.012 57.7936 741.003 59.8001 742.857 61.2781L744.104 59.7141C742.724 58.614 741.98 57.1517 741.877 55.2393L739.88 55.3467ZM742.87 61.2879C744.73 62.7232 747.121 63.3945 749.949 63.3945V61.3945C747.434 61.3945 745.512 60.8002 744.091 59.7043L742.87 61.2879ZM749.949 63.3945C752.534 63.3945 754.717 62.8787 756.41 61.75L755.301 60.0859C754.041 60.926 752.287 61.3945 749.949 61.3945V63.3945ZM756.413 61.748C758.162 60.5733 759.105 58.9398 759.105 56.9102H757.105C757.105 58.2087 756.549 59.247 755.298 60.0879L756.413 61.748ZM780.359 52.5508V53.5508H781.346L781.359 52.5642L780.359 52.5508ZM774.488 52.5508L773.488 52.5632L773.501 53.5508H774.488V52.5508ZM774.031 15.8125V14.8125H773.019L773.031 15.8249L774.031 15.8125ZM780.852 15.8125L781.851 15.8259L781.865 14.8125H780.852V15.8125ZM774.734 61.0938L773.992 60.4235L773.991 60.4248L774.734 61.0938ZM780.5 61.0938L779.758 61.764L779.763 61.7701L779.769 61.7761L780.5 61.0938ZM780.5 66.3672L781.219 67.0618L781.225 67.0557L781.231 67.0495L780.5 66.3672ZM774.734 66.3672L773.991 67.0362L774.003 67.0492L774.015 67.0618L774.734 66.3672ZM780.359 51.5508H774.488V53.5508H780.359V51.5508ZM775.488 52.5383L775.031 15.8001L773.031 15.8249L773.488 52.5632L775.488 52.5383ZM774.031 16.8125H780.852V14.8125H774.031V16.8125ZM779.852 15.7991L779.359 52.5374L781.359 52.5642L781.851 15.8259L779.852 15.7991ZM774.785 63.7305C774.785 62.8922 775.029 62.2607 775.478 61.7627L773.991 60.4248C773.174 61.3331 772.785 62.4593 772.785 63.7305H774.785ZM775.476 61.764C775.891 61.3048 776.547 61.0039 777.617 61.0039V59.0039C776.157 59.0039 774.89 59.4296 773.992 60.4235L775.476 61.764ZM777.617 61.0039C778.688 61.0039 779.343 61.3048 779.758 61.764L781.242 60.4235C780.344 59.4296 779.078 59.0039 777.617 59.0039V61.0039ZM779.769 61.7761C780.235 62.2754 780.484 62.9025 780.484 63.7305H782.484C782.484 62.4491 782.077 61.3183 781.231 60.4114L779.769 61.7761ZM780.484 63.7305C780.484 64.5585 780.235 65.1855 779.769 65.6849L781.231 67.0495C782.077 66.1426 782.484 65.0118 782.484 63.7305H780.484ZM779.781 65.6726C779.37 66.0977 778.707 66.3867 777.617 66.3867V68.3867C779.059 68.3867 780.317 67.9961 781.219 67.0618L779.781 65.6726ZM777.617 66.3867C776.527 66.3867 775.864 66.0977 775.454 65.6726L774.015 67.0618C774.917 67.9961 776.176 68.3867 777.617 68.3867V66.3867ZM775.478 65.6982C775.029 65.2003 774.785 64.5687 774.785 63.7305H772.785C772.785 65.0016 773.174 66.1279 773.991 67.0362L775.478 65.6982Z" fill="black"/>
</svg>
