<svg width="83" height="84" viewBox="0 0 83 84" fill="none" xmlns="http://www.w3.org/2000/svg">
<path d="M3.375 47.6641C3.375 41.7344 4.74609 37.0234 7.48828 33.5312C10.2305 30.0156 13.8633 28.2578 18.3867 28.2578C23.0273 28.2578 26.6484 29.8984 29.25 33.1797L29.5664 28.9609H35.5078V66.0859C35.5078 71.0078 34.043 74.8867 31.1133 77.7227C28.207 80.5586 24.293 81.9766 19.3711 81.9766C16.6289 81.9766 13.9453 81.3906 11.3203 80.2188C8.69531 79.0469 6.69141 77.4414 5.30859 75.4023L8.68359 71.5C11.4727 74.9453 14.8828 76.668 18.9141 76.668C22.0781 76.668 24.5391 75.7773 26.2969 73.9961C28.0781 72.2148 28.9688 69.707 28.9688 66.4727V63.2031C26.3672 66.2031 22.8164 67.7031 18.3164 67.7031C13.8633 67.7031 10.2539 65.9102 7.48828 62.3242C4.74609 58.7383 3.375 53.8516 3.375 47.6641ZM9.91406 48.4023C9.91406 52.6914 10.793 56.0664 12.5508 58.5273C14.3086 60.9648 16.7695 62.1836 19.9336 62.1836C24.0352 62.1836 27.0469 60.3203 28.9688 56.5938V39.2266C26.9766 35.5938 23.9883 33.7773 20.0039 33.7773C16.8398 33.7773 14.3672 35.0078 12.5859 37.4688C10.8047 39.9297 9.91406 43.5742 9.91406 48.4023ZM54.1758 19.75V28.9609H61.2773V33.9883H54.1758V57.5781C54.1758 59.1016 54.4922 60.25 55.125 61.0234C55.7578 61.7734 56.8359 62.1484 58.3594 62.1484C59.1094 62.1484 60.1406 62.0078 61.4531 61.7266V67C59.7422 67.4688 58.0781 67.7031 56.4609 67.7031C53.5547 67.7031 51.3633 66.8242 49.8867 65.0664C48.4102 63.3086 47.6719 60.8125 47.6719 57.5781V33.9883H40.7461V28.9609H47.6719V19.75H54.1758ZM69.0469 63.5898C69.0469 62.4648 69.375 61.5273 70.0312 60.7773C70.7109 60.0273 71.7188 59.6523 73.0547 59.6523C74.3906 59.6523 75.3984 60.0273 76.0781 60.7773C76.7812 61.5273 77.1328 62.4648 77.1328 63.5898C77.1328 64.668 76.7812 65.5703 76.0781 66.2969C75.3984 67.0234 74.3906 67.3867 73.0547 67.3867C71.7188 67.3867 70.7109 67.0234 70.0312 66.2969C69.375 65.5703 69.0469 64.668 69.0469 63.5898Z" fill="black"/>
<path d="M7.48828 33.5312L8.27479 34.1488L8.27678 34.1463L7.48828 33.5312ZM29.25 33.1797L28.4664 33.801L30.0559 35.8057L30.2472 33.2545L29.25 33.1797ZM29.5664 28.9609V27.9609H28.6386L28.5692 28.8861L29.5664 28.9609ZM35.5078 28.9609H36.5078V27.9609H35.5078V28.9609ZM31.1133 77.7227L30.4178 77.0041L30.4149 77.0069L31.1133 77.7227ZM5.30859 75.4023L4.55223 74.7482L4.05029 75.3286L4.48096 75.9636L5.30859 75.4023ZM8.68359 71.5L9.46084 70.8708L8.70894 69.942L7.92723 70.8458L8.68359 71.5ZM26.2969 73.9961L25.5898 73.289L25.5851 73.2937L26.2969 73.9961ZM28.9688 63.2031H29.9688V60.5236L28.2133 62.548L28.9688 63.2031ZM7.48828 62.3242L6.69392 62.9317L6.69643 62.9349L7.48828 62.3242ZM12.5508 58.5273L11.737 59.1086L11.7397 59.1123L12.5508 58.5273ZM28.9688 56.5938L29.8575 57.0521L29.9688 56.8364V56.5938H28.9688ZM28.9688 39.2266H29.9688V38.9704L29.8456 38.7457L28.9688 39.2266ZM4.375 47.6641C4.375 41.8833 5.71102 37.4138 8.27478 34.1488L6.70178 32.9137C3.78117 36.6331 2.375 41.5854 2.375 47.6641H4.375ZM8.27678 34.1463C10.8263 30.8777 14.1661 29.2578 18.3867 29.2578V27.2578C13.5604 27.2578 9.63466 29.1535 6.69978 32.9162L8.27678 34.1463ZM18.3867 29.2578C22.7597 29.2578 26.0768 30.787 28.4664 33.801L30.0336 32.5584C27.2201 29.0099 23.295 27.2578 18.3867 27.2578V29.2578ZM30.2472 33.2545L30.5636 29.0357L28.5692 28.8861L28.2528 33.1049L30.2472 33.2545ZM29.5664 29.9609H35.5078V27.9609H29.5664V29.9609ZM34.5078 28.9609V66.0859H36.5078V28.9609H34.5078ZM34.5078 66.0859C34.5078 70.7972 33.1134 74.3947 30.4178 77.0041L31.8088 78.4412C34.9725 75.3787 36.5078 71.2184 36.5078 66.0859H34.5078ZM30.4149 77.0069C27.7337 79.6233 24.0908 80.9766 19.3711 80.9766V82.9766C24.4951 82.9766 28.6804 81.4939 31.8117 78.4384L30.4149 77.0069ZM19.3711 80.9766C16.7762 80.9766 14.231 80.423 11.728 79.3056L10.9127 81.1319C13.6596 82.3582 16.4817 82.9766 19.3711 82.9766V80.9766ZM11.728 79.3056C9.24416 78.1968 7.39813 76.7018 6.13623 74.8411L4.48096 75.9636C5.98468 78.181 8.14646 79.897 10.9127 81.1319L11.728 79.3056ZM6.06496 76.0565L9.43996 72.1542L7.92723 70.8458L4.55223 74.7482L6.06496 76.0565ZM7.90635 72.1292C10.8637 75.7825 14.5484 77.668 18.9141 77.668V75.668C15.2172 75.668 12.0816 74.1082 9.46084 70.8708L7.90635 72.1292ZM18.9141 77.668C22.2711 77.668 25.0163 76.7174 27.0086 74.6985L25.5851 73.2937C24.0618 74.8373 21.8852 75.668 18.9141 75.668V77.668ZM27.004 74.7032C29.022 72.6852 29.9688 69.8934 29.9688 66.4727H27.9688C27.9688 69.5206 27.1343 71.7445 25.5898 73.289L27.004 74.7032ZM29.9688 66.4727V63.2031H27.9688V66.4727H29.9688ZM28.2133 62.548C25.8281 65.2984 22.5696 66.7031 18.3164 66.7031V68.7031C23.0632 68.7031 26.9062 67.1079 29.7242 63.8583L28.2133 62.548ZM18.3164 66.7031C14.1794 66.7031 10.8602 65.0588 8.28014 61.7135L6.69643 62.9349C9.64763 66.7615 13.5471 68.7031 18.3164 68.7031V66.7031ZM8.28264 61.7168C5.71549 58.3597 4.375 53.7122 4.375 47.6641H2.375C2.375 53.9909 3.77669 59.1168 6.69392 62.9317L8.28264 61.7168ZM8.91406 48.4023C8.91406 52.8157 9.81695 56.4204 11.737 59.1086L13.3645 57.9461C11.769 55.7124 10.9141 52.5672 10.9141 48.4023H8.91406ZM11.7397 59.1123C13.6969 61.8262 16.4682 63.1836 19.9336 63.1836V61.1836C17.0709 61.1836 14.9203 60.1035 13.3619 57.9424L11.7397 59.1123ZM19.9336 63.1836C22.1403 63.1836 24.1071 62.6806 25.7947 61.6365C27.481 60.5932 28.8289 59.0466 29.8575 57.0521L28.08 56.1354C27.1867 57.8674 26.0678 59.1157 24.7424 59.9357C23.4183 60.7549 21.8284 61.1836 19.9336 61.1836V63.1836ZM29.9688 56.5938V39.2266H27.9688V56.5938H29.9688ZM29.8456 38.7457C28.7808 36.8041 27.4224 35.2999 25.7528 34.2851C24.0812 33.2691 22.1532 32.7773 20.0039 32.7773V34.7773C21.839 34.7773 23.3973 35.1938 24.714 35.9942C26.0327 36.7958 27.1645 38.0162 28.0919 39.7074L29.8456 38.7457ZM20.0039 32.7773C16.5348 32.7773 13.7542 34.1492 11.7759 36.8824L13.396 38.0551C14.9802 35.8664 17.1449 34.7773 20.0039 34.7773V32.7773ZM11.7759 36.8824C9.8176 39.5879 8.91406 43.4784 8.91406 48.4023H10.9141C10.9141 43.67 11.7918 40.2715 13.396 38.0551L11.7759 36.8824ZM54.1758 19.75H55.1758V18.75H54.1758V19.75ZM54.1758 28.9609H53.1758V29.9609H54.1758V28.9609ZM61.2773 28.9609H62.2773V27.9609H61.2773V28.9609ZM61.2773 33.9883V34.9883H62.2773V33.9883H61.2773ZM54.1758 33.9883V32.9883H53.1758V33.9883H54.1758ZM55.125 61.0234L54.351 61.6567L54.3558 61.6625L54.3607 61.6683L55.125 61.0234ZM61.4531 61.7266H62.4531V60.4896L61.2436 60.7488L61.4531 61.7266ZM61.4531 67L61.7174 67.9645L62.4531 67.7629V67H61.4531ZM47.6719 33.9883H48.6719V32.9883H47.6719V33.9883ZM40.7461 33.9883H39.7461V34.9883H40.7461V33.9883ZM40.7461 28.9609V27.9609H39.7461V28.9609H40.7461ZM47.6719 28.9609V29.9609H48.6719V28.9609H47.6719ZM47.6719 19.75V18.75H46.6719V19.75H47.6719ZM53.1758 19.75V28.9609H55.1758V19.75H53.1758ZM54.1758 29.9609H61.2773V27.9609H54.1758V29.9609ZM60.2773 28.9609V33.9883H62.2773V28.9609H60.2773ZM61.2773 32.9883H54.1758V34.9883H61.2773V32.9883ZM53.1758 33.9883V57.5781H55.1758V33.9883H53.1758ZM53.1758 57.5781C53.1758 59.2168 53.5126 60.6319 54.351 61.6567L55.899 60.3902C55.4717 59.8681 55.1758 58.9863 55.1758 57.5781H53.1758ZM54.3607 61.6683C55.2682 62.7438 56.7043 63.1484 58.3594 63.1484V61.1484C56.9676 61.1484 56.2475 60.8031 55.8893 60.3786L54.3607 61.6683ZM58.3594 63.1484C59.2143 63.1484 60.3261 62.9908 61.6627 62.7044L61.2436 60.7488C59.9551 61.0249 59.0044 61.1484 58.3594 61.1484V63.1484ZM60.4531 61.7266V67H62.4531V61.7266H60.4531ZM61.1889 66.0355C59.5558 66.483 57.9807 66.7031 56.4609 66.7031V68.7031C58.1756 68.7031 59.9286 68.4545 61.7174 67.9645L61.1889 66.0355ZM56.4609 66.7031C53.765 66.7031 51.8903 65.8969 50.6524 64.4232L49.121 65.7096C50.8362 67.7515 53.3443 68.7031 56.4609 68.7031V66.7031ZM50.6524 64.4232C49.3787 62.9069 48.6719 60.6722 48.6719 57.5781H46.6719C46.6719 60.9528 47.4416 63.7103 49.121 65.7096L50.6524 64.4232ZM48.6719 57.5781V33.9883H46.6719V57.5781H48.6719ZM47.6719 32.9883H40.7461V34.9883H47.6719V32.9883ZM41.7461 33.9883V28.9609H39.7461V33.9883H41.7461ZM40.7461 29.9609H47.6719V27.9609H40.7461V29.9609ZM48.6719 28.9609V19.75H46.6719V28.9609H48.6719ZM47.6719 20.75H54.1758V18.75H47.6719V20.75ZM70.0312 60.7773L69.2903 60.1058L69.2844 60.1123L69.2787 60.1188L70.0312 60.7773ZM76.0781 60.7773L75.3371 61.4489L75.3428 61.4551L75.3486 61.4613L76.0781 60.7773ZM76.0781 66.2969L75.3595 65.6015L75.3536 65.6075L75.3479 65.6137L76.0781 66.2969ZM70.0312 66.2969L69.2891 66.9672L69.295 66.9736L69.301 66.98L70.0312 66.2969ZM70.0469 63.5898C70.0469 62.6737 70.3078 61.9799 70.7838 61.4358L69.2787 60.1188C68.4422 61.0748 68.0469 62.256 68.0469 63.5898H70.0469ZM70.7722 61.4489C71.2067 60.9694 71.9059 60.6523 73.0547 60.6523V58.6523C71.5316 58.6523 70.2152 59.0853 69.2903 60.1058L70.7722 61.4489ZM73.0547 60.6523C74.2035 60.6523 74.9027 60.9694 75.3371 61.4489L76.8191 60.1058C75.8942 59.0853 74.5778 58.6523 73.0547 58.6523V60.6523ZM75.3486 61.4613C75.8609 62.0077 76.1328 62.6928 76.1328 63.5898H78.1328C78.1328 62.2369 77.7016 61.047 76.8077 60.0934L75.3486 61.4613ZM76.1328 63.5898C76.1328 64.4274 75.8694 65.0746 75.3595 65.6015L76.7967 66.9923C77.6931 66.066 78.1328 64.9085 78.1328 63.5898H76.1328ZM75.3479 65.6137C74.9156 66.0758 74.2126 66.3867 73.0547 66.3867V68.3867C74.5686 68.3867 75.8813 67.971 76.8084 66.98L75.3479 65.6137ZM73.0547 66.3867C71.8967 66.3867 71.1938 66.0758 70.7615 65.6137L69.301 66.98C70.2281 67.971 71.5408 68.3867 73.0547 68.3867V66.3867ZM70.7734 65.6266C70.3004 65.103 70.0469 64.4474 70.0469 63.5898H68.0469C68.0469 64.8885 68.4496 66.0376 69.2891 66.9672L70.7734 65.6266Z" fill="black"/>
</svg>
