<svg width="83" height="84" viewBox="0 0 83 84" fill="none" xmlns="http://www.w3.org/2000/svg">
<path d="M11.0391 28.9609L11.2148 33.1797C14.0039 29.8984 17.7656 28.2578 22.5 28.2578C27.8203 28.2578 31.4414 30.2969 33.3633 34.375C34.6289 32.5469 36.2695 31.0703 38.2852 29.9453C40.3242 28.8203 42.7266 28.2578 45.4922 28.2578C53.8359 28.2578 58.0781 32.6758 58.2188 41.5117V67H51.7148V41.8984C51.7148 39.1797 51.0938 37.1523 49.8516 35.8164C48.6094 34.457 46.5234 33.7773 43.5938 33.7773C41.1797 33.7773 39.1758 34.5039 37.582 35.957C35.9883 37.3867 35.0625 39.3203 34.8047 41.7578V67H28.2656V42.0742C28.2656 36.543 25.5586 33.7773 20.1445 33.7773C15.8789 33.7773 12.9609 35.5938 11.3906 39.2266V67H4.88672V28.9609H11.0391ZM68.2031 63.5898C68.2031 62.4648 68.5312 61.5273 69.1875 60.7773C69.8672 60.0273 70.875 59.6523 72.2109 59.6523C73.5469 59.6523 74.5547 60.0273 75.2344 60.7773C75.9375 61.5273 76.2891 62.4648 76.2891 63.5898C76.2891 64.668 75.9375 65.5703 75.2344 66.2969C74.5547 67.0234 73.5469 67.3867 72.2109 67.3867C70.875 67.3867 69.8672 67.0234 69.1875 66.2969C68.5312 65.5703 68.2031 64.668 68.2031 63.5898Z" fill="black"/>
<path d="M11.0391 28.9609L12.0382 28.9193L11.9983 27.9609H11.0391V28.9609ZM11.2148 33.1797L10.2157 33.2213L10.3221 35.7741L11.9768 33.8273L11.2148 33.1797ZM33.3633 34.375L32.4587 34.8013L33.1981 36.3704L34.1855 34.9442L33.3633 34.375ZM38.2852 29.9453L37.8021 29.0697L37.7978 29.0721L38.2852 29.9453ZM58.2188 41.5117H59.2188V41.5038L59.2186 41.4958L58.2188 41.5117ZM58.2188 67V68H59.2188V67H58.2188ZM51.7148 67H50.7148V68H51.7148V67ZM49.8516 35.8164L49.1133 36.491L49.1192 36.4973L49.8516 35.8164ZM37.582 35.957L38.2498 36.7014L38.2558 36.696L37.582 35.957ZM34.8047 41.7578L33.8102 41.6526L33.8047 41.7051V41.7578H34.8047ZM34.8047 67V68H35.8047V67H34.8047ZM28.2656 67H27.2656V68H28.2656V67ZM11.3906 39.2266L10.4727 38.8298L10.3906 39.0197V39.2266H11.3906ZM11.3906 67V68H12.3906V67H11.3906ZM4.88672 67H3.88672V68H4.88672V67ZM4.88672 28.9609V27.9609H3.88672V28.9609H4.88672ZM10.0399 29.0026L10.2157 33.2213L12.214 33.1381L12.0382 28.9193L10.0399 29.0026ZM11.9768 33.8273C14.5555 30.7935 18.0261 29.2578 22.5 29.2578V27.2578C17.5052 27.2578 13.4523 29.0033 10.4529 32.532L11.9768 33.8273ZM22.5 29.2578C25.0354 29.2578 27.0909 29.7437 28.7154 30.6585C30.3296 31.5674 31.5783 32.9332 32.4587 34.8013L34.2679 33.9487C33.2264 31.7387 31.7036 30.0458 29.6967 28.9158C27.7001 27.7914 25.2849 27.2578 22.5 27.2578V29.2578ZM34.1855 34.9442C35.3608 33.2465 36.885 31.872 38.7725 30.8185L37.7978 29.0721C35.6541 30.2686 33.897 31.8473 32.5411 33.8058L34.1855 34.9442ZM38.7682 30.8209C40.6339 29.7916 42.8638 29.2578 45.4922 29.2578V27.2578C42.5893 27.2578 40.0145 27.8491 37.8021 29.0697L38.7682 30.8209ZM45.4922 29.2578C49.4936 29.2578 52.3383 30.3143 54.2103 32.2639C56.0923 34.2238 57.1508 37.2513 57.2189 41.5276L59.2186 41.4958C59.1461 36.9362 58.0132 33.3367 55.653 30.8787C53.2828 28.4104 49.8346 27.2578 45.4922 27.2578V29.2578ZM57.2188 41.5117V67H59.2188V41.5117H57.2188ZM58.2188 66H51.7148V68H58.2188V66ZM52.7148 67V41.8984H50.7148V67H52.7148ZM52.7148 41.8984C52.7148 39.0485 52.066 36.7294 50.5839 35.1355L49.1192 36.4973C50.1215 37.5753 50.7148 39.3109 50.7148 41.8984H52.7148ZM50.5898 35.1418C49.071 33.4798 46.6419 32.7773 43.5938 32.7773V34.7773C46.4049 34.7773 48.1478 35.4343 49.1134 36.491L50.5898 35.1418ZM43.5938 32.7773C40.9625 32.7773 38.7086 33.5766 36.9083 35.2181L38.2558 36.696C39.6429 35.4312 41.3969 34.7773 43.5938 34.7773V32.7773ZM36.9143 35.2126C35.1096 36.8315 34.0901 39.0071 33.8102 41.6526L35.7991 41.863C36.0349 39.6335 36.867 37.9419 38.2498 36.7014L36.9143 35.2126ZM33.8047 41.7578V67H35.8047V41.7578H33.8047ZM34.8047 66H28.2656V68H34.8047V66ZM29.2656 67V42.0742H27.2656V67H29.2656ZM29.2656 42.0742C29.2656 39.1598 28.5525 36.7892 26.95 35.1521C25.3436 33.5109 23.0112 32.7773 20.1445 32.7773V34.7773C22.6919 34.7773 24.42 35.4266 25.5207 36.5511C26.6253 37.6795 27.2656 39.4574 27.2656 42.0742H29.2656ZM20.1445 32.7773C17.8698 32.7773 15.8802 33.2625 14.2284 34.2907C12.5714 35.3221 11.326 36.8557 10.4727 38.8298L12.3085 39.6233C13.0256 37.9646 14.0243 36.7736 15.2853 35.9886C16.5515 35.2004 18.1536 34.7773 20.1445 34.7773V32.7773ZM10.3906 39.2266V67H12.3906V39.2266H10.3906ZM11.3906 66H4.88672V68H11.3906V66ZM5.88672 67V28.9609H3.88672V67H5.88672ZM4.88672 29.9609H11.0391V27.9609H4.88672V29.9609ZM69.1875 60.7773L68.4465 60.1058L68.4407 60.1123L68.4349 60.1188L69.1875 60.7773ZM75.2344 60.7773L74.4934 61.4489L74.4991 61.4551L74.5048 61.4613L75.2344 60.7773ZM75.2344 66.2969L74.5158 65.6015L74.5099 65.6075L74.5041 65.6137L75.2344 66.2969ZM69.1875 66.2969L68.4454 66.9672L68.4513 66.9736L68.4572 66.98L69.1875 66.2969ZM69.2031 63.5898C69.2031 62.6737 69.464 61.9799 69.9401 61.4358L68.4349 60.1188C67.5985 61.0748 67.2031 62.256 67.2031 63.5898H69.2031ZM69.9285 61.4489C70.363 60.9694 71.0622 60.6523 72.2109 60.6523V58.6523C70.6878 58.6523 69.3714 59.0853 68.4465 60.1058L69.9285 61.4489ZM72.2109 60.6523C73.3597 60.6523 74.0589 60.9694 74.4934 61.4489L75.9754 60.1058C75.0505 59.0853 73.734 58.6523 72.2109 58.6523V60.6523ZM74.5048 61.4613C75.0171 62.0077 75.2891 62.6928 75.2891 63.5898H77.2891C77.2891 62.2369 76.8579 61.047 75.9639 60.0934L74.5048 61.4613ZM75.2891 63.5898C75.2891 64.4274 75.0256 65.0746 74.5158 65.6015L75.953 66.9923C76.8494 66.066 77.2891 64.9085 77.2891 63.5898H75.2891ZM74.5041 65.6137C74.0718 66.0758 73.3689 66.3867 72.2109 66.3867V68.3867C73.7249 68.3867 75.0376 67.971 75.9646 66.98L74.5041 65.6137ZM72.2109 66.3867C71.053 66.3867 70.3501 66.0758 69.9178 65.6137L68.4572 66.98C69.3843 67.971 70.697 68.3867 72.2109 68.3867V66.3867ZM69.9296 65.6266C69.4567 65.103 69.2031 64.4474 69.2031 63.5898H67.2031C67.2031 64.8885 67.6058 66.0376 68.4454 66.9672L69.9296 65.6266Z" fill="black"/>
</svg>
