<svg width="168" height="145" viewBox="0 0 168 145" fill="none" xmlns="http://www.w3.org/2000/svg">
<path d="M23.7111 40.4809L24.4339 44.6409C26.7726 41.0249 30.2891 38.9091 34.9833 38.2935C40.2584 37.6017 44.1139 39.1526 46.5497 42.9462C47.5669 40.969 49.0016 39.2917 50.8538 37.9141C52.7293 36.5336 55.0381 35.6635 57.7803 35.3039C66.0532 34.2189 70.8338 38.0478 72.1222 46.7904L75.4363 72.0623L68.9876 72.908L65.7237 48.0196C65.3702 45.3239 64.4908 43.3945 63.0855 42.2314C61.6771 41.0451 59.5204 40.6424 56.6156 41.0234C54.2221 41.3373 52.3296 42.3182 50.9384 43.9663C49.544 45.591 48.8775 47.6286 48.9389 50.0789L52.221 75.1068L45.7375 75.9571L42.4965 51.2429C41.7772 45.7586 38.7336 43.3684 33.3655 44.0724C29.1361 44.6271 26.4791 46.8075 25.3944 50.6136L29.0057 78.1513L22.5571 78.997L17.6109 41.2808L23.7111 40.4809Z" fill="black"/>
<path d="M99.4062 74C99.0312 73.25 98.7266 71.9141 98.4922 69.9922C95.4688 73.1328 91.8594 74.7031 87.6641 74.7031C83.9141 74.7031 80.832 73.6484 78.418 71.5391C76.0273 69.4062 74.832 66.7109 74.832 63.4531C74.832 59.4922 76.332 56.4219 79.332 54.2422C82.3555 52.0391 86.5977 50.9375 92.0586 50.9375H98.3867V47.9492C98.3867 45.6758 97.707 43.8711 96.3477 42.5352C94.9883 41.1758 92.9844 40.4961 90.3359 40.4961C88.0156 40.4961 86.0703 41.082 84.5 42.2539C82.9297 43.4258 82.1445 44.8438 82.1445 46.5078H75.6055C75.6055 44.6094 76.2734 42.7812 77.6094 41.0234C78.9688 39.2422 80.7969 37.8359 83.0938 36.8047C85.4141 35.7734 87.957 35.2578 90.7227 35.2578C95.1055 35.2578 98.5391 36.3594 101.023 38.5625C103.508 40.7422 104.797 43.7539 104.891 47.5977V65.1055C104.891 68.5977 105.336 71.375 106.227 73.4375V74H99.4062ZM88.6133 69.043C90.6523 69.043 92.5859 68.5156 94.4141 67.4609C96.2422 66.4062 97.5664 65.0352 98.3867 63.3477V55.543H93.2891C85.3203 55.543 81.3359 57.875 81.3359 62.5391C81.3359 64.5781 82.0156 66.1719 83.375 67.3203C84.7344 68.4688 86.4805 69.043 88.6133 69.043Z" fill="black"/>
<path d="M75.4062 116C75.0312 115.25 74.7266 113.914 74.4922 111.992C71.4688 115.133 67.8594 116.703 63.6641 116.703C59.9141 116.703 56.832 115.648 54.418 113.539C52.0273 111.406 50.832 108.711 50.832 105.453C50.832 101.492 52.332 98.4219 55.332 96.2422C58.3555 94.0391 62.5977 92.9375 68.0586 92.9375H74.3867V89.9492C74.3867 87.6758 73.707 85.8711 72.3477 84.5352C70.9883 83.1758 68.9844 82.4961 66.3359 82.4961C64.0156 82.4961 62.0703 83.082 60.5 84.2539C58.9297 85.4258 58.1445 86.8438 58.1445 88.5078H51.6055C51.6055 86.6094 52.2734 84.7812 53.6094 83.0234C54.9688 81.2422 56.7969 79.8359 59.0938 78.8047C61.4141 77.7734 63.957 77.2578 66.7227 77.2578C71.1055 77.2578 74.5391 78.3594 77.0234 80.5625C79.5078 82.7422 80.7969 85.7539 80.8906 89.5977V107.105C80.8906 110.598 81.3359 113.375 82.2266 115.438V116H75.4062ZM64.6133 111.043C66.6523 111.043 68.5859 110.516 70.4141 109.461C72.2422 108.406 73.5664 107.035 74.3867 105.348V97.543H69.2891C61.3203 97.543 57.3359 99.875 57.3359 104.539C57.3359 106.578 58.0156 108.172 59.375 109.32C60.7344 110.469 62.4805 111.043 64.6133 111.043Z" fill="black"/>
<path d="M116.012 42.3915L119.55 84.6773C120.16 91.9643 117.16 95.8844 110.551 96.4376C109.126 96.5568 107.789 96.457 106.539 96.1383L106.105 90.9533C106.868 91.0776 107.857 91.0889 109.071 90.9873C110.52 90.8661 111.584 90.3771 112.265 89.5205C112.971 88.6852 113.243 87.2984 113.081 85.3598L109.53 42.9339L116.012 42.3915ZM108.023 32.9349C107.937 31.9073 108.179 31.005 108.749 30.2282C109.341 29.4261 110.255 28.9733 111.493 28.8697C112.754 28.7641 113.742 29.046 114.457 29.7153C115.171 30.3846 115.573 31.2447 115.66 32.2958C115.748 33.3468 115.495 34.25 114.899 35.0054C114.304 35.7608 113.376 36.1913 112.115 36.2968C110.853 36.4024 109.878 36.1312 109.189 35.4833C108.5 34.8354 108.111 33.986 108.023 32.9349Z" fill="black"/>
<path d="M139.677 71.8835C139.494 71.065 139.522 69.6951 139.76 67.7736C136.066 70.089 132.184 70.7389 128.113 69.7234C124.475 68.8157 121.74 67.0464 119.908 64.4154C118.105 61.7673 117.598 58.8628 118.386 55.7019C119.345 51.8587 121.544 49.2428 124.982 47.8541C128.449 46.4484 132.831 46.4064 138.13 47.7283L144.27 49.2601L144.993 46.3606C145.543 44.1548 145.321 42.2393 144.325 40.614C143.335 38.966 141.556 37.8215 138.986 37.1804C136.735 36.6187 134.705 36.7164 132.898 37.4733C131.091 38.2302 129.986 39.416 129.583 41.0305L123.238 39.4477C123.698 37.6057 124.788 35.9937 126.51 34.6115C128.26 33.2123 130.374 32.2903 132.853 31.8457C135.354 31.4068 137.946 31.5221 140.629 32.1915C144.882 33.2524 147.946 35.1523 149.824 37.8913C151.707 40.6075 152.228 43.8417 151.389 47.5939L147.151 64.581C146.306 67.9694 146.065 70.7719 146.43 72.9886L146.294 73.5344L139.677 71.8835ZM130.404 64.4614C132.383 64.9549 134.387 64.9113 136.416 64.3305C138.445 63.7497 140.061 62.7399 141.266 61.3012L143.155 53.7286L138.209 52.4946C130.477 50.5657 126.047 51.864 124.918 56.3893C124.424 58.3677 124.698 60.0786 125.739 61.522C126.78 62.9653 128.335 63.9451 130.404 64.4614Z" fill="black"/>
<path d="M16.4314 105.213C14.7908 99.5149 14.8048 94.6086 16.4737 90.494C18.1361 86.3569 21.1407 83.6625 25.4876 82.4109C29.947 81.1269 33.8807 81.7015 37.2886 84.1349L36.4253 79.9933L42.1348 78.3493L52.4069 114.025C53.7688 118.755 53.4344 122.887 51.4037 126.423C49.3956 129.953 46.0267 132.398 41.297 133.76C38.6619 134.519 35.9209 134.698 33.0741 134.298C30.2274 133.899 27.8575 132.91 25.9645 131.333L28.128 126.65C31.7614 129.189 35.5151 129.901 39.389 128.785C42.4295 127.91 44.5479 126.373 45.7443 124.175C46.9631 121.97 47.1251 119.314 46.2302 116.206L45.3255 113.064C43.6556 116.667 40.6585 119.091 36.3341 120.336C32.0549 121.568 28.0903 120.844 24.4405 118.163C20.8131 115.476 18.1435 111.159 16.4314 105.213ZM22.9195 104.113C24.1062 108.235 25.8847 111.235 28.2548 113.113C30.6184 114.969 33.3205 115.46 36.361 114.584C40.3024 113.449 42.681 110.825 43.4968 106.713L38.6914 90.0235C35.7718 87.0837 32.3976 86.1651 28.5688 87.2675C25.5283 88.143 23.4926 90.0096 22.4618 92.8673C21.431 95.725 21.5836 99.4737 22.9195 104.113Z" fill="black"/>
<path d="M101.774 108.741C104.043 108.256 105.879 107.145 107.281 105.407C108.683 103.669 109.255 101.749 108.998 99.6474L115.014 98.3616C115.355 100.518 115.055 102.703 114.115 104.917C113.174 107.131 111.691 109.054 109.667 110.685C107.666 112.311 105.405 113.393 102.883 113.932C97.818 115.015 93.4241 114.192 89.7016 111.465C85.997 108.709 83.5178 104.398 82.2639 98.5302L82.0361 97.4644C81.2622 93.8431 81.2387 90.4808 81.9655 87.3775C82.6924 84.2743 84.127 81.6789 86.2693 79.5913C88.4345 77.4988 91.2131 76.0901 94.6053 75.3652C98.7767 74.4737 102.505 74.9832 105.789 76.8937C109.096 78.7993 111.268 81.7266 112.303 85.6755L106.287 86.9612C105.589 84.5938 104.251 82.8186 102.273 81.6357C100.312 80.4249 98.1287 80.0767 95.7221 80.591C92.4904 81.2816 90.2305 82.9869 88.9423 85.7068C87.6722 88.3989 87.5074 91.9452 88.4478 96.3458L88.705 97.5491C89.6209 101.835 91.2087 104.947 93.4683 106.885C95.7278 108.823 98.4964 109.441 101.774 108.741Z" fill="black"/>
<path d="M126.725 89.2141C130.284 86.3565 134.322 85.4108 138.837 86.3769C146.698 88.0589 149.714 93.3421 147.885 102.226L142.625 126.807L136.265 125.446L141.532 100.831C142.083 98.1447 141.888 96.0298 140.948 94.4865C140.031 92.948 138.301 91.9066 135.757 91.3623C133.694 90.921 131.766 91.0836 129.972 91.8502C128.178 92.6169 126.654 93.8008 125.401 95.4022L119.729 121.908L113.369 120.547L124.668 67.7421L131.028 69.1029L126.725 89.2141Z" fill="black"/>
</svg>
