<svg width="343" height="168" viewBox="0 0 343 168" fill="none" xmlns="http://www.w3.org/2000/svg">
<path d="M11.4258 33.5664C14.3086 30.0273 18.0586 28.2578 22.6758 28.2578C30.7148 28.2578 34.7695 32.793 34.8398 41.8633V67H28.3359V41.8281C28.3125 39.0859 27.6797 37.0586 26.4375 35.7461C25.2188 34.4336 23.3086 33.7773 20.707 33.7773C18.5977 33.7773 16.7461 34.3398 15.1523 35.4648C13.5586 36.5898 12.3164 38.0664 11.4258 39.8945V67H4.92188V13H11.4258V33.5664ZM68.0625 67C67.6875 66.25 67.3828 64.9141 67.1484 62.9922C64.125 66.1328 60.5156 67.7031 56.3203 67.7031C52.5703 67.7031 49.4883 66.6484 47.0742 64.5391C44.6836 62.4062 43.4883 59.7109 43.4883 56.4531C43.4883 52.4922 44.9883 49.4219 47.9883 47.2422C51.0117 45.0391 55.2539 43.9375 60.7148 43.9375H67.043V40.9492C67.043 38.6758 66.3633 36.8711 65.0039 35.5352C63.6445 34.1758 61.6406 33.4961 58.9922 33.4961C56.6719 33.4961 54.7266 34.082 53.1562 35.2539C51.5859 36.4258 50.8008 37.8438 50.8008 39.5078H44.2617C44.2617 37.6094 44.9297 35.7812 46.2656 34.0234C47.625 32.2422 49.4531 30.8359 51.75 29.8047C54.0703 28.7734 56.6133 28.2578 59.3789 28.2578C63.7617 28.2578 67.1953 29.3594 69.6797 31.5625C72.1641 33.7422 73.4531 36.7539 73.5469 40.5977V58.1055C73.5469 61.5977 73.9922 64.375 74.8828 66.4375V67H68.0625ZM57.2695 62.043C59.3086 62.043 61.2422 61.5156 63.0703 60.4609C64.8984 59.4062 66.2227 58.0352 67.043 56.3477V48.543H61.9453C53.9766 48.543 49.9922 50.875 49.9922 55.5391C49.9922 57.5781 50.6719 59.1719 52.0312 60.3203C53.3906 61.4688 55.1367 62.043 57.2695 62.043ZM95.7305 58.1758L105.152 28.9609H111.797L98.1562 67H93.1992L79.418 28.9609H86.0625L95.7305 58.1758ZM133.348 67.7031C128.191 67.7031 123.996 66.0156 120.762 62.6406C117.527 59.2422 115.91 54.707 115.91 49.0352V47.8398C115.91 44.0664 116.625 40.7031 118.055 37.75C119.508 34.7734 121.523 32.4531 124.102 30.7891C126.703 29.1016 129.516 28.2578 132.539 28.2578C137.484 28.2578 141.328 29.8867 144.07 33.1445C146.812 36.4023 148.184 41.0664 148.184 47.1367V49.8438H122.414C122.508 53.5938 123.598 56.6289 125.684 58.9492C127.793 61.2461 130.465 62.3945 133.699 62.3945C135.996 62.3945 137.941 61.9258 139.535 60.9883C141.129 60.0508 142.523 58.8086 143.719 57.2617L147.691 60.3555C144.504 65.2539 139.723 67.7031 133.348 67.7031ZM132.539 33.6016C129.914 33.6016 127.711 34.5625 125.93 36.4844C124.148 38.3828 123.047 41.0547 122.625 44.5H141.68V44.0078C141.492 40.7031 140.602 38.1484 139.008 36.3438C137.414 34.5156 135.258 33.6016 132.539 33.6016ZM197.086 67C196.711 66.25 196.406 64.9141 196.172 62.9922C193.148 66.1328 189.539 67.7031 185.344 67.7031C181.594 67.7031 178.512 66.6484 176.098 64.5391C173.707 62.4062 172.512 59.7109 172.512 56.4531C172.512 52.4922 174.012 49.4219 177.012 47.2422C180.035 45.0391 184.277 43.9375 189.738 43.9375H196.066V40.9492C196.066 38.6758 195.387 36.8711 194.027 35.5352C192.668 34.1758 190.664 33.4961 188.016 33.4961C185.695 33.4961 183.75 34.082 182.18 35.2539C180.609 36.4258 179.824 37.8438 179.824 39.5078H173.285C173.285 37.6094 173.953 35.7812 175.289 34.0234C176.648 32.2422 178.477 30.8359 180.773 29.8047C183.094 28.7734 185.637 28.2578 188.402 28.2578C192.785 28.2578 196.219 29.3594 198.703 31.5625C201.188 33.7422 202.477 36.7539 202.57 40.5977V58.1055C202.57 61.5977 203.016 64.375 203.906 66.4375V67H197.086ZM186.293 62.043C188.332 62.043 190.266 61.5156 192.094 60.4609C193.922 59.4062 195.246 58.0352 196.066 56.3477V48.543H190.969C183 48.543 179.016 50.875 179.016 55.5391C179.016 57.5781 179.695 59.1719 181.055 60.3203C182.414 61.4688 184.16 62.043 186.293 62.043ZM3.375 131.664C3.375 125.734 4.74609 121.023 7.48828 117.531C10.2305 114.016 13.8633 112.258 18.3867 112.258C23.0273 112.258 26.6484 113.898 29.25 117.18L29.5664 112.961H35.5078V150.086C35.5078 155.008 34.043 158.887 31.1133 161.723C28.207 164.559 24.293 165.977 19.3711 165.977C16.6289 165.977 13.9453 165.391 11.3203 164.219C8.69531 163.047 6.69141 161.441 5.30859 159.402L8.68359 155.5C11.4727 158.945 14.8828 160.668 18.9141 160.668C22.0781 160.668 24.5391 159.777 26.2969 157.996C28.0781 156.215 28.9688 153.707 28.9688 150.473V147.203C26.3672 150.203 22.8164 151.703 18.3164 151.703C13.8633 151.703 10.2539 149.91 7.48828 146.324C4.74609 142.738 3.375 137.852 3.375 131.664ZM9.91406 132.402C9.91406 136.691 10.793 140.066 12.5508 142.527C14.3086 144.965 16.7695 146.184 19.9336 146.184C24.0352 146.184 27.0469 144.32 28.9688 140.594V123.227C26.9766 119.594 23.9883 117.777 20.0039 117.777C16.8398 117.777 14.3672 119.008 12.5859 121.469C10.8047 123.93 9.91406 127.574 9.91406 132.402ZM43.6289 131.629C43.6289 127.902 44.3555 124.551 45.8086 121.574C47.2852 118.598 49.3242 116.301 51.9258 114.684C54.5508 113.066 57.5391 112.258 60.8906 112.258C66.0703 112.258 70.2539 114.051 73.4414 117.637C76.6523 121.223 78.2578 125.992 78.2578 131.945V132.402C78.2578 136.105 77.543 139.434 76.1133 142.387C74.707 145.316 72.6797 147.602 70.0312 149.242C67.4062 150.883 64.3828 151.703 60.9609 151.703C55.8047 151.703 51.6211 149.91 48.4102 146.324C45.2227 142.738 43.6289 137.992 43.6289 132.086V131.629ZM50.168 132.402C50.168 136.621 51.1406 140.008 53.0859 142.562C55.0547 145.117 57.6797 146.395 60.9609 146.395C64.2656 146.395 66.8906 145.105 68.8359 142.527C70.7812 139.926 71.7539 136.293 71.7539 131.629C71.7539 127.457 70.7578 124.082 68.7656 121.504C66.7969 118.902 64.1719 117.602 60.8906 117.602C57.6797 117.602 55.0898 118.879 53.1211 121.434C51.1523 123.988 50.168 127.645 50.168 132.402ZM84.6914 131.629C84.6914 127.902 85.418 124.551 86.8711 121.574C88.3477 118.598 90.3867 116.301 92.9883 114.684C95.6133 113.066 98.6016 112.258 101.953 112.258C107.133 112.258 111.316 114.051 114.504 117.637C117.715 121.223 119.32 125.992 119.32 131.945V132.402C119.32 136.105 118.605 139.434 117.176 142.387C115.77 145.316 113.742 147.602 111.094 149.242C108.469 150.883 105.445 151.703 102.023 151.703C96.8672 151.703 92.6836 149.91 89.4727 146.324C86.2852 142.738 84.6914 137.992 84.6914 132.086V131.629ZM91.2305 132.402C91.2305 136.621 92.2031 140.008 94.1484 142.562C96.1172 145.117 98.7422 146.395 102.023 146.395C105.328 146.395 107.953 145.105 109.898 142.527C111.844 139.926 112.816 136.293 112.816 131.629C112.816 127.457 111.82 124.082 109.828 121.504C107.859 118.902 105.234 117.602 101.953 117.602C98.7422 117.602 96.1523 118.879 94.1836 121.434C92.2148 123.988 91.2305 127.645 91.2305 132.402ZM125.895 131.664C125.895 125.828 127.277 121.141 130.043 117.602C132.809 114.039 136.43 112.258 140.906 112.258C145.359 112.258 148.887 113.781 151.488 116.828V97H157.992V151H152.016L151.699 146.922C149.098 150.109 145.477 151.703 140.836 151.703C136.43 151.703 132.832 149.898 130.043 146.289C127.277 142.68 125.895 137.969 125.895 132.156V131.664ZM132.398 132.402C132.398 136.715 133.289 140.09 135.07 142.527C136.852 144.965 139.312 146.184 142.453 146.184C146.578 146.184 149.59 144.332 151.488 140.629V123.156C149.543 119.57 146.555 117.777 142.523 117.777C139.336 117.777 136.852 119.008 135.07 121.469C133.289 123.93 132.398 127.574 132.398 132.402ZM194.801 103.75V112.961H201.902V117.988H194.801V141.578C194.801 143.102 195.117 144.25 195.75 145.023C196.383 145.773 197.461 146.148 198.984 146.148C199.734 146.148 200.766 146.008 202.078 145.727V151C200.367 151.469 198.703 151.703 197.086 151.703C194.18 151.703 191.988 150.824 190.512 149.066C189.035 147.309 188.297 144.812 188.297 141.578V117.988H181.371V112.961H188.297V103.75H194.801ZM216.598 151H210.094V112.961H216.598V151ZM209.566 102.871C209.566 101.816 209.883 100.926 210.516 100.199C211.172 99.4727 212.133 99.1094 213.398 99.1094C214.664 99.1094 215.625 99.4727 216.281 100.199C216.938 100.926 217.266 101.816 217.266 102.871C217.266 103.926 216.938 104.805 216.281 105.508C215.625 106.211 214.664 106.562 213.398 106.562C212.133 106.562 211.172 106.211 210.516 105.508C209.883 104.805 209.566 103.926 209.566 102.871ZM233.156 112.961L233.332 117.18C236.121 113.898 239.883 112.258 244.617 112.258C249.938 112.258 253.559 114.297 255.48 118.375C256.746 116.547 258.387 115.07 260.402 113.945C262.441 112.82 264.844 112.258 267.609 112.258C275.953 112.258 280.195 116.676 280.336 125.512V151H273.832V125.898C273.832 123.18 273.211 121.152 271.969 119.816C270.727 118.457 268.641 117.777 265.711 117.777C263.297 117.777 261.293 118.504 259.699 119.957C258.105 121.387 257.18 123.32 256.922 125.758V151H250.383V126.074C250.383 120.543 247.676 117.777 242.262 117.777C237.996 117.777 235.078 119.594 233.508 123.227V151H227.004V112.961H233.156ZM305.965 151.703C300.809 151.703 296.613 150.016 293.379 146.641C290.145 143.242 288.527 138.707 288.527 133.035V131.84C288.527 128.066 289.242 124.703 290.672 121.75C292.125 118.773 294.141 116.453 296.719 114.789C299.32 113.102 302.133 112.258 305.156 112.258C310.102 112.258 313.945 113.887 316.688 117.145C319.43 120.402 320.801 125.066 320.801 131.137V133.844H295.031C295.125 137.594 296.215 140.629 298.301 142.949C300.41 145.246 303.082 146.395 306.316 146.395C308.613 146.395 310.559 145.926 312.152 144.988C313.746 144.051 315.141 142.809 316.336 141.262L320.309 144.355C317.121 149.254 312.34 151.703 305.965 151.703ZM305.156 117.602C302.531 117.602 300.328 118.562 298.547 120.484C296.766 122.383 295.664 125.055 295.242 128.5H314.297V128.008C314.109 124.703 313.219 122.148 311.625 120.344C310.031 118.516 307.875 117.602 305.156 117.602ZM328.5 147.59C328.5 146.465 328.828 145.527 329.484 144.777C330.164 144.027 331.172 143.652 332.508 143.652C333.844 143.652 334.852 144.027 335.531 144.777C336.234 145.527 336.586 146.465 336.586 147.59C336.586 148.668 336.234 149.57 335.531 150.297C334.852 151.023 333.844 151.387 332.508 151.387C331.172 151.387 330.164 151.023 329.484 150.297C328.828 149.57 328.5 148.668 328.5 147.59Z" fill="black"/>
<path d="M11.4258 33.5664H10.4258V36.3774L12.2011 34.198L11.4258 33.5664ZM34.8398 41.8633L35.8399 41.8633L35.8398 41.8555L34.8398 41.8633ZM34.8398 67V68H35.8398V67H34.8398ZM28.3359 67H27.3359V68H28.3359V67ZM28.3359 41.8281L29.336 41.8281L29.3359 41.8196L28.3359 41.8281ZM26.4375 35.7461L25.7047 36.4266L25.7112 36.4335L26.4375 35.7461ZM11.4258 39.8945L10.5268 39.4566L10.4258 39.6639V39.8945H11.4258ZM11.4258 67V68H12.4258V67H11.4258ZM4.92188 67H3.92188V68H4.92188V67ZM4.92188 13V12H3.92188V13H4.92188ZM11.4258 13H12.4258V12H11.4258V13ZM12.2011 34.198C14.8915 30.8951 18.3553 29.2578 22.6758 29.2578V27.2578C17.7619 27.2578 13.7257 29.1595 10.6505 32.9348L12.2011 34.198ZM22.6758 29.2578C26.5072 29.2578 29.219 30.333 31.0006 32.3257C32.8023 34.3409 33.8057 37.463 33.8399 41.871L35.8398 41.8555C35.8037 37.1933 34.7446 33.5126 32.4916 30.9927C30.2185 28.4502 26.8834 27.2578 22.6758 27.2578V29.2578ZM33.8398 41.8633V67H35.8398V41.8633H33.8398ZM34.8398 66H28.3359V68H34.8398V66ZM29.3359 67V41.8281H27.3359V67H29.3359ZM29.3359 41.8196C29.3114 38.9519 28.6509 36.63 27.1638 35.0587L25.7112 36.4335C26.7085 37.4872 27.3136 39.2199 27.336 41.8367L29.3359 41.8196ZM27.1703 35.0656C25.6903 33.4718 23.4593 32.7773 20.707 32.7773V34.7773C23.1579 34.7773 24.7472 35.3954 25.7047 36.4265L27.1703 35.0656ZM20.707 32.7773C18.4088 32.7773 16.352 33.394 14.5757 34.6479L15.729 36.2818C17.1402 35.2857 18.7865 34.7773 20.707 34.7773V32.7773ZM14.5757 34.6479C12.8383 35.8742 11.488 37.4836 10.5268 39.4566L12.3248 40.3325C13.1449 38.6492 14.2789 37.3055 15.729 36.2818L14.5757 34.6479ZM10.4258 39.8945V67H12.4258V39.8945H10.4258ZM11.4258 66H4.92188V68H11.4258V66ZM5.92188 67V13H3.92188V67H5.92188ZM4.92188 14H11.4258V12H4.92188V14ZM10.4258 13V33.5664H12.4258V13H10.4258ZM68.0625 67L67.1681 67.4472L67.4445 68H68.0625V67ZM67.1484 62.9922L68.1411 62.8711L67.8865 60.7836L66.428 62.2986L67.1484 62.9922ZM47.0742 64.5391L46.4085 65.2853L46.4162 65.2921L47.0742 64.5391ZM47.9883 47.2422L48.5761 48.0512L48.5772 48.0504L47.9883 47.2422ZM67.043 43.9375V44.9375H68.043V43.9375H67.043ZM65.0039 35.5352L64.2968 36.2423L64.303 36.2484L65.0039 35.5352ZM50.8008 39.5078V40.5078H51.8008V39.5078H50.8008ZM44.2617 39.5078H43.2617V40.5078H44.2617V39.5078ZM46.2656 34.0234L45.4707 33.4168L45.4695 33.4184L46.2656 34.0234ZM51.75 29.8047L51.3439 28.8909L51.3404 28.8924L51.75 29.8047ZM69.6797 31.5625L69.0162 32.3107L69.0202 32.3142L69.6797 31.5625ZM73.5469 40.5977H74.5469V40.5855L74.5466 40.5733L73.5469 40.5977ZM74.8828 66.4375H75.8828V66.2308L75.8009 66.0411L74.8828 66.4375ZM74.8828 67V68H75.8828V67H74.8828ZM67.043 56.3477L67.9423 56.7848L68.043 56.5778V56.3477H67.043ZM67.043 48.543H68.043V47.543H67.043V48.543ZM68.9569 66.5528C68.6662 65.9713 68.375 64.7892 68.1411 62.8711L66.1558 63.1132C66.3906 65.0389 66.7088 66.5287 67.1681 67.4472L68.9569 66.5528ZM66.428 62.2986C63.5848 65.2521 60.2321 66.7031 56.3203 66.7031V68.7031C60.7991 68.7031 64.6652 67.0136 67.8689 63.6857L66.428 62.2986ZM56.3203 66.7031C52.7689 66.7031 49.9338 65.7098 47.7322 63.786L46.4162 65.2921C49.0428 67.5871 52.3718 68.7031 56.3203 68.7031V66.7031ZM47.7399 63.7929C45.5661 61.8534 44.4883 59.4314 44.4883 56.4531H42.4883C42.4883 59.9904 43.8011 62.9591 46.4085 65.2853L47.7399 63.7929ZM44.4883 56.4531C44.4883 52.7868 45.855 50.0282 48.5761 48.0512L47.4005 46.4332C44.1215 48.8155 42.4883 52.1976 42.4883 56.4531H44.4883ZM48.5772 48.0504C51.3671 46.0174 55.3724 44.9375 60.7148 44.9375V42.9375C55.1354 42.9375 50.6563 44.0607 47.3994 46.434L48.5772 48.0504ZM60.7148 44.9375H67.043V42.9375H60.7148V44.9375ZM68.043 43.9375V40.9492H66.043V43.9375H68.043ZM68.043 40.9492C68.043 38.4632 67.2918 36.3816 65.7048 34.8219L64.303 36.2484C65.4347 37.3606 66.043 38.8884 66.043 40.9492H68.043ZM65.711 34.828C64.1024 33.2195 61.8036 32.4961 58.9922 32.4961V34.4961C61.4777 34.4961 63.1866 35.1321 64.2968 36.2423L65.711 34.828ZM58.9922 32.4961C56.4973 32.4961 54.3314 33.1292 52.5582 34.4525L53.7543 36.0553C55.1217 35.0349 56.8464 34.4961 58.9922 34.4961V32.4961ZM52.5582 34.4525C50.7857 35.7752 49.8008 37.4697 49.8008 39.5078H51.8008C51.8008 38.2178 52.3861 37.0764 53.7543 36.0553L52.5582 34.4525ZM50.8008 38.5078H44.2617V40.5078H50.8008V38.5078ZM45.2617 39.5078C45.2617 37.8623 45.8357 36.2418 47.0618 34.6285L45.4695 33.4184C44.0237 35.3207 43.2617 37.3565 43.2617 39.5078H45.2617ZM47.0606 34.6301C48.307 32.9969 49.9955 31.6886 52.1596 30.717L51.3404 28.8924C48.9107 29.9833 46.943 31.4875 45.4707 33.4168L47.0606 34.6301ZM52.1561 30.7185C54.3375 29.749 56.7406 29.2578 59.3789 29.2578V27.2578C56.486 27.2578 53.8031 27.7979 51.3439 28.8909L52.1561 30.7185ZM59.3789 29.2578C63.5969 29.2578 66.7667 30.3158 69.0162 32.3107L70.3432 30.8143C67.6239 28.4029 63.9266 27.2578 59.3789 27.2578V29.2578ZM69.0202 32.3142C71.2597 34.2791 72.459 37.0076 72.5472 40.622L74.5466 40.5733C74.4472 36.5002 73.0684 33.2053 70.3392 30.8108L69.0202 32.3142ZM72.5469 40.5977V58.1055H74.5469V40.5977H72.5469ZM72.5469 58.1055C72.5469 61.6664 72.9985 64.5963 73.9648 66.8339L75.8009 66.0411C74.9859 64.1537 74.5469 61.5289 74.5469 58.1055H72.5469ZM73.8828 66.4375V67H75.8828V66.4375H73.8828ZM74.8828 66H68.0625V68H74.8828V66ZM57.2695 63.043C59.4903 63.043 61.5955 62.4663 63.57 61.3271L62.5706 59.5948C60.8889 60.565 59.1269 61.043 57.2695 61.043V63.043ZM63.57 61.3271C65.5488 60.1855 67.024 58.674 67.9423 56.7848L66.1436 55.9105C65.4213 57.3963 64.248 58.627 62.5706 59.5948L63.57 61.3271ZM68.043 56.3477V48.543H66.043V56.3477H68.043ZM67.043 47.543H61.9453V49.543H67.043V47.543ZM61.9453 47.543C57.8961 47.543 54.6952 48.1297 52.4753 49.429C50.1728 50.7766 48.9922 52.8564 48.9922 55.5391H50.9922C50.9922 53.5577 51.8038 52.1394 53.4856 51.155C55.2501 50.1223 58.0257 49.543 61.9453 49.543V47.543ZM48.9922 55.5391C48.9922 57.8246 49.7674 59.7169 51.3859 61.0842L52.6766 59.5564C51.5763 58.6269 50.9922 57.3316 50.9922 55.5391H48.9922ZM51.3859 61.0842C52.9599 62.414 54.9495 63.043 57.2695 63.043V61.043C55.324 61.043 53.8213 60.5235 52.6766 59.5564L51.3859 61.0842ZM95.7305 58.1758L94.7811 58.49L95.7427 61.3958L96.6822 58.4827L95.7305 58.1758ZM105.152 28.9609V27.9609H104.424L104.201 28.654L105.152 28.9609ZM111.797 28.9609L112.738 29.2985L113.218 27.9609H111.797V28.9609ZM98.1562 67V68H98.86L99.0976 67.3375L98.1562 67ZM93.1992 67L92.259 67.3406L92.4979 68H93.1992V67ZM79.418 28.9609V27.9609H77.9921L78.4778 29.3016L79.418 28.9609ZM86.0625 28.9609L87.0119 28.6468L86.7849 27.9609H86.0625V28.9609ZM96.6822 58.4827L106.104 29.2679L104.201 28.654L94.7787 57.8688L96.6822 58.4827ZM105.152 29.9609H111.797V27.9609H105.152V29.9609ZM110.856 28.6234L97.2149 66.6625L99.0976 67.3375L112.738 29.2985L110.856 28.6234ZM98.1562 66H93.1992V68H98.1562V66ZM94.1394 66.6594L80.3582 28.6203L78.4778 29.3016L92.259 67.3406L94.1394 66.6594ZM79.418 29.9609H86.0625V27.9609H79.418V29.9609ZM85.1131 29.2751L94.7811 58.49L96.6798 57.8616L87.0119 28.6468L85.1131 29.2751ZM120.762 62.6406L120.037 63.33L120.04 63.3325L120.762 62.6406ZM118.055 37.75L117.156 37.3113L117.155 37.3143L118.055 37.75ZM124.102 30.7891L124.644 31.6292L124.646 31.628L124.102 30.7891ZM148.184 49.8438V50.8438H149.184V49.8438H148.184ZM122.414 49.8438V48.8438H121.389L121.414 49.8687L122.414 49.8438ZM125.684 58.9492L124.94 59.6178L124.947 59.6256L125.684 58.9492ZM143.719 57.2617L144.333 56.4727L143.541 55.856L142.927 56.6503L143.719 57.2617ZM147.691 60.3555L148.53 60.9009L149.031 60.1309L148.306 59.5665L147.691 60.3555ZM125.93 36.4844L126.659 37.1686L126.663 37.1641L125.93 36.4844ZM122.625 44.5L121.632 44.3785L121.495 45.5H122.625V44.5ZM141.68 44.5V45.5H142.68V44.5H141.68ZM141.68 44.0078H142.68V43.9795L142.678 43.9512L141.68 44.0078ZM139.008 36.3438L138.254 37.0009L138.258 37.0057L139.008 36.3438ZM133.348 66.7031C128.433 66.7031 124.509 65.1056 121.484 61.9487L120.04 63.3325C123.483 66.9257 127.95 68.7031 133.348 68.7031V66.7031ZM121.486 61.9512C118.464 58.7761 116.91 54.5072 116.91 49.0352H114.91C114.91 54.9069 116.59 59.7082 120.037 63.33L121.486 61.9512ZM116.91 49.0352V47.8398H114.91V49.0352H116.91ZM116.91 47.8398C116.91 44.1947 117.6 40.984 118.955 38.1857L117.155 37.3143C115.65 40.4222 114.91 43.9381 114.91 47.8398H116.91ZM118.953 38.1887C120.333 35.3624 122.231 33.1866 124.644 31.6292L123.559 29.9489C120.816 31.7196 118.683 34.1844 117.156 37.3113L118.953 38.1887ZM124.646 31.628C127.09 30.0428 129.714 29.2578 132.539 29.2578V27.2578C129.317 27.2578 126.317 28.1603 123.557 29.9501L124.646 31.628ZM132.539 29.2578C137.242 29.2578 140.785 30.794 143.305 33.7885L144.835 32.5006C141.872 28.9794 137.726 27.2578 132.539 27.2578V29.2578ZM143.305 33.7885C145.842 36.8028 147.184 41.2034 147.184 47.1367H149.184C149.184 40.9294 147.783 36.0019 144.835 32.5006L143.305 33.7885ZM147.184 47.1367V49.8438H149.184V47.1367H147.184ZM148.184 48.8438H122.414V50.8438H148.184V48.8438ZM121.414 49.8687C121.513 53.8066 122.664 57.0861 124.94 59.6178L126.427 58.2807C124.531 56.1717 123.503 53.3809 123.414 49.8188L121.414 49.8687ZM124.947 59.6256C127.254 62.1372 130.197 63.3945 133.699 63.3945V61.3945C130.733 61.3945 128.332 60.355 126.42 58.2728L124.947 59.6256ZM133.699 63.3945C136.132 63.3945 138.262 62.8976 140.042 61.8502L139.028 60.1263C137.621 60.954 135.861 61.3945 133.699 61.3945V63.3945ZM140.042 61.8502C141.752 60.8445 143.241 59.515 144.51 57.8732L142.927 56.6503C141.806 58.1021 140.506 59.2571 139.028 60.1263L140.042 61.8502ZM143.104 58.0507L147.077 61.1444L148.306 59.5665L144.333 56.4727L143.104 58.0507ZM146.853 59.8101C143.869 64.3957 139.421 66.7031 133.348 66.7031V68.7031C140.024 68.7031 145.139 66.1122 148.53 60.9009L146.853 59.8101ZM132.539 32.6016C129.636 32.6016 127.167 33.6781 125.196 35.8046L126.663 37.1641C128.255 35.4469 130.192 34.6016 132.539 34.6016V32.6016ZM125.2 35.8001C123.232 37.8977 122.072 40.7919 121.632 44.3785L123.618 44.6215C124.022 41.3174 125.065 38.8679 126.659 37.1686L125.2 35.8001ZM122.625 45.5H141.68V43.5H122.625V45.5ZM142.68 44.5V44.0078H140.68V44.5H142.68ZM142.678 43.9512C142.483 40.5054 141.547 37.7078 139.757 35.6818L138.258 37.0057C139.657 38.5891 140.502 40.9008 140.681 44.0645L142.678 43.9512ZM139.762 35.6866C137.954 33.6128 135.508 32.6016 132.539 32.6016V34.6016C135.008 34.6016 136.874 35.4184 138.254 37.0009L139.762 35.6866ZM197.086 67L196.192 67.4472L196.468 68H197.086V67ZM196.172 62.9922L197.165 62.8711L196.91 60.7836L195.451 62.2986L196.172 62.9922ZM176.098 64.5391L175.432 65.2853L175.44 65.2921L176.098 64.5391ZM177.012 47.2422L177.6 48.0512L177.601 48.0504L177.012 47.2422ZM196.066 43.9375V44.9375H197.066V43.9375H196.066ZM194.027 35.5352L193.32 36.2423L193.326 36.2484L194.027 35.5352ZM179.824 39.5078V40.5078H180.824V39.5078H179.824ZM173.285 39.5078H172.285V40.5078H173.285V39.5078ZM175.289 34.0234L174.494 33.4168L174.493 33.4184L175.289 34.0234ZM180.773 29.8047L180.367 28.8909L180.364 28.8924L180.773 29.8047ZM198.703 31.5625L198.04 32.3107L198.044 32.3142L198.703 31.5625ZM202.57 40.5977H203.57V40.5855L203.57 40.5733L202.57 40.5977ZM203.906 66.4375H204.906V66.2308L204.824 66.0411L203.906 66.4375ZM203.906 67V68H204.906V67H203.906ZM196.066 56.3477L196.966 56.7848L197.066 56.5778V56.3477H196.066ZM196.066 48.543H197.066V47.543H196.066V48.543ZM197.98 66.5528C197.69 65.9713 197.398 64.7892 197.165 62.8711L195.179 63.1132C195.414 65.0389 195.732 66.5287 196.192 67.4472L197.98 66.5528ZM195.451 62.2986C192.608 65.2521 189.256 66.7031 185.344 66.7031V68.7031C189.823 68.7031 193.689 67.0136 196.892 63.6857L195.451 62.2986ZM185.344 66.7031C181.792 66.7031 178.957 65.7098 176.756 63.786L175.44 65.2921C178.066 67.5871 181.395 68.7031 185.344 68.7031V66.7031ZM176.763 63.7929C174.589 61.8534 173.512 59.4314 173.512 56.4531H171.512C171.512 59.9904 172.825 62.9591 175.432 65.2853L176.763 63.7929ZM173.512 56.4531C173.512 52.7868 174.878 50.0282 177.6 48.0512L176.424 46.4332C173.145 48.8155 171.512 52.1976 171.512 56.4531H173.512ZM177.601 48.0504C180.391 46.0174 184.396 44.9375 189.738 44.9375V42.9375C184.159 42.9375 179.68 44.0607 176.423 46.434L177.601 48.0504ZM189.738 44.9375H196.066V42.9375H189.738V44.9375ZM197.066 43.9375V40.9492H195.066V43.9375H197.066ZM197.066 40.9492C197.066 38.4632 196.315 36.3816 194.728 34.8219L193.326 36.2484C194.458 37.3606 195.066 38.8884 195.066 40.9492H197.066ZM194.734 34.828C193.126 33.2195 190.827 32.4961 188.016 32.4961V34.4961C190.501 34.4961 192.21 35.1321 193.32 36.2423L194.734 34.828ZM188.016 32.4961C185.521 32.4961 183.355 33.1292 181.582 34.4525L182.778 36.0553C184.145 35.0349 185.87 34.4961 188.016 34.4961V32.4961ZM181.582 34.4525C179.809 35.7752 178.824 37.4697 178.824 39.5078H180.824C180.824 38.2178 181.41 37.0764 182.778 36.0553L181.582 34.4525ZM179.824 38.5078H173.285V40.5078H179.824V38.5078ZM174.285 39.5078C174.285 37.8623 174.859 36.2418 176.085 34.6285L174.493 33.4184C173.047 35.3207 172.285 37.3565 172.285 39.5078H174.285ZM176.084 34.6301C177.33 32.9969 179.019 31.6886 181.183 30.717L180.364 28.8924C177.934 29.9833 175.966 31.4875 174.494 33.4168L176.084 34.6301ZM181.18 30.7185C183.361 29.749 185.764 29.2578 188.402 29.2578V27.2578C185.509 27.2578 182.827 27.7979 180.367 28.8909L181.18 30.7185ZM188.402 29.2578C192.62 29.2578 195.79 30.3158 198.04 32.3107L199.367 30.8143C196.647 28.4029 192.95 27.2578 188.402 27.2578V29.2578ZM198.044 32.3142C200.283 34.2791 201.482 37.0076 201.571 40.622L203.57 40.5733C203.471 36.5002 202.092 33.2053 199.363 30.8108L198.044 32.3142ZM201.57 40.5977V58.1055H203.57V40.5977H201.57ZM201.57 58.1055C201.57 61.6664 202.022 64.5963 202.988 66.8339L204.824 66.0411C204.009 64.1537 203.57 61.5289 203.57 58.1055H201.57ZM202.906 66.4375V67H204.906V66.4375H202.906ZM203.906 66H197.086V68H203.906V66ZM186.293 63.043C188.514 63.043 190.619 62.4663 192.593 61.3271L191.594 59.5948C189.912 60.565 188.15 61.043 186.293 61.043V63.043ZM192.593 61.3271C194.572 60.1855 196.047 58.674 196.966 56.7848L195.167 55.9105C194.445 57.3963 193.271 58.627 191.594 59.5948L192.593 61.3271ZM197.066 56.3477V48.543H195.066V56.3477H197.066ZM196.066 47.543H190.969V49.543H196.066V47.543ZM190.969 47.543C186.92 47.543 183.719 48.1297 181.499 49.429C179.196 50.7766 178.016 52.8564 178.016 55.5391H180.016C180.016 53.5577 180.827 52.1394 182.509 51.155C184.274 50.1223 187.049 49.543 190.969 49.543V47.543ZM178.016 55.5391C178.016 57.8246 178.791 59.7169 180.409 61.0842L181.7 59.5564C180.6 58.6269 180.016 57.3316 180.016 55.5391H178.016ZM180.409 61.0842C181.983 62.414 183.973 63.043 186.293 63.043V61.043C184.347 61.043 182.845 60.5235 181.7 59.5564L180.409 61.0842ZM7.48828 117.531L8.27479 118.149L8.27678 118.146L7.48828 117.531ZM29.25 117.18L28.4664 117.801L30.0559 119.806L30.2472 117.254L29.25 117.18ZM29.5664 112.961V111.961H28.6386L28.5692 112.886L29.5664 112.961ZM35.5078 112.961H36.5078V111.961H35.5078V112.961ZM31.1133 161.723L30.4178 161.004L30.4149 161.007L31.1133 161.723ZM5.30859 159.402L4.55223 158.748L4.05029 159.329L4.48096 159.964L5.30859 159.402ZM8.68359 155.5L9.46084 154.871L8.70894 153.942L7.92723 154.846L8.68359 155.5ZM26.2969 157.996L25.5898 157.289L25.5851 157.294L26.2969 157.996ZM28.9688 147.203H29.9688V144.524L28.2133 146.548L28.9688 147.203ZM7.48828 146.324L6.69392 146.932L6.69643 146.935L7.48828 146.324ZM12.5508 142.527L11.737 143.109L11.7397 143.112L12.5508 142.527ZM28.9688 140.594L29.8575 141.052L29.9688 140.836V140.594H28.9688ZM28.9688 123.227H29.9688V122.97L29.8456 122.746L28.9688 123.227ZM4.375 131.664C4.375 125.883 5.71102 121.414 8.27478 118.149L6.70178 116.914C3.78117 120.633 2.375 125.585 2.375 131.664H4.375ZM8.27678 118.146C10.8263 114.878 14.1661 113.258 18.3867 113.258V111.258C13.5604 111.258 9.63466 113.154 6.69978 116.916L8.27678 118.146ZM18.3867 113.258C22.7597 113.258 26.0768 114.787 28.4664 117.801L30.0336 116.558C27.2201 113.01 23.295 111.258 18.3867 111.258V113.258ZM30.2472 117.254L30.5636 113.036L28.5692 112.886L28.2528 117.105L30.2472 117.254ZM29.5664 113.961H35.5078V111.961H29.5664V113.961ZM34.5078 112.961V150.086H36.5078V112.961H34.5078ZM34.5078 150.086C34.5078 154.797 33.1134 158.395 30.4178 161.004L31.8088 162.441C34.9725 159.379 36.5078 155.218 36.5078 150.086H34.5078ZM30.4149 161.007C27.7337 163.623 24.0908 164.977 19.3711 164.977V166.977C24.4951 166.977 28.6804 165.494 31.8117 162.438L30.4149 161.007ZM19.3711 164.977C16.7762 164.977 14.231 164.423 11.728 163.306L10.9127 165.132C13.6596 166.358 16.4817 166.977 19.3711 166.977V164.977ZM11.728 163.306C9.24416 162.197 7.39813 160.702 6.13623 158.841L4.48096 159.964C5.98468 162.181 8.14646 163.897 10.9127 165.132L11.728 163.306ZM6.06496 160.056L9.43996 156.154L7.92723 154.846L4.55223 158.748L6.06496 160.056ZM7.90635 156.129C10.8637 159.782 14.5484 161.668 18.9141 161.668V159.668C15.2172 159.668 12.0816 158.108 9.46084 154.871L7.90635 156.129ZM18.9141 161.668C22.2711 161.668 25.0163 160.717 27.0086 158.699L25.5851 157.294C24.0618 158.837 21.8852 159.668 18.9141 159.668V161.668ZM27.004 158.703C29.022 156.685 29.9688 153.893 29.9688 150.473H27.9688C27.9688 153.521 27.1343 155.744 25.5898 157.289L27.004 158.703ZM29.9688 150.473V147.203H27.9688V150.473H29.9688ZM28.2133 146.548C25.8281 149.298 22.5696 150.703 18.3164 150.703V152.703C23.0632 152.703 26.9062 151.108 29.7242 147.858L28.2133 146.548ZM18.3164 150.703C14.1794 150.703 10.8602 149.059 8.28014 145.714L6.69643 146.935C9.64763 150.761 13.5471 152.703 18.3164 152.703V150.703ZM8.28264 145.717C5.71549 142.36 4.375 137.712 4.375 131.664H2.375C2.375 137.991 3.77669 143.117 6.69392 146.932L8.28264 145.717ZM8.91406 132.402C8.91406 136.816 9.81695 140.42 11.737 143.109L13.3645 141.946C11.769 139.712 10.9141 136.567 10.9141 132.402H8.91406ZM11.7397 143.112C13.6969 145.826 16.4682 147.184 19.9336 147.184V145.184C17.0709 145.184 14.9203 144.103 13.3619 141.942L11.7397 143.112ZM19.9336 147.184C22.1403 147.184 24.1071 146.681 25.7947 145.637C27.481 144.593 28.8289 143.047 29.8575 141.052L28.08 140.135C27.1867 141.867 26.0678 143.116 24.7424 143.936C23.4183 144.755 21.8284 145.184 19.9336 145.184V147.184ZM29.9688 140.594V123.227H27.9688V140.594H29.9688ZM29.8456 122.746C28.7808 120.804 27.4224 119.3 25.7528 118.285C24.0812 117.269 22.1532 116.777 20.0039 116.777V118.777C21.839 118.777 23.3973 119.194 24.714 119.994C26.0327 120.796 27.1645 122.016 28.0919 123.707L29.8456 122.746ZM20.0039 116.777C16.5348 116.777 13.7542 118.149 11.7759 120.882L13.396 122.055C14.9802 119.866 17.1449 118.777 20.0039 118.777V116.777ZM11.7759 120.882C9.8176 123.588 8.91406 127.478 8.91406 132.402H10.9141C10.9141 127.67 11.7918 124.271 13.396 122.055L11.7759 120.882ZM45.8086 121.574L44.9127 121.13L44.91 121.136L45.8086 121.574ZM51.9258 114.684L51.4013 113.832L51.3978 113.834L51.9258 114.684ZM73.4414 117.637L72.694 118.301L72.6964 118.304L73.4414 117.637ZM76.1133 142.387L75.2132 141.951L75.2118 141.954L76.1133 142.387ZM70.0312 149.242L69.5046 148.392L69.5013 148.394L70.0312 149.242ZM48.4102 146.324L47.6627 146.989L47.6652 146.991L48.4102 146.324ZM53.0859 142.562L52.2903 143.168L52.2939 143.173L53.0859 142.562ZM68.8359 142.527L69.6342 143.13L69.6368 143.126L68.8359 142.527ZM68.7656 121.504L67.9682 122.107L67.9743 122.115L68.7656 121.504ZM44.6289 131.629C44.6289 128.035 45.3287 124.837 46.7072 122.013L44.91 121.136C43.3822 124.265 42.6289 127.769 42.6289 131.629H44.6289ZM46.7044 122.019C48.1056 119.194 50.0234 117.044 52.4537 115.533L51.3978 113.834C48.6251 115.558 46.4647 118.001 44.9128 121.13L46.7044 122.019ZM52.4503 115.535C54.9039 114.023 57.7076 113.258 60.8906 113.258V111.258C57.3706 111.258 54.1976 112.109 51.4013 113.832L52.4503 115.535ZM60.8906 113.258C65.8103 113.258 69.7126 114.947 72.694 118.301L74.1888 116.972C70.7952 113.155 66.3304 111.258 60.8906 111.258V113.258ZM72.6964 118.304C75.7067 121.666 77.2578 126.178 77.2578 131.945H79.2578C79.2578 125.807 77.598 120.78 74.1864 116.97L72.6964 118.304ZM77.2578 131.945V132.402H79.2578V131.945H77.2578ZM77.2578 132.402C77.2578 135.974 76.5691 139.15 75.2132 141.951L77.0134 142.822C78.5168 139.717 79.2578 136.237 79.2578 132.402H77.2578ZM75.2118 141.954C73.8843 144.719 71.9836 146.856 69.5046 148.392L70.5579 150.092C73.3757 148.347 75.5297 145.913 77.0148 142.819L75.2118 141.954ZM69.5013 148.394C67.0517 149.925 64.2158 150.703 60.9609 150.703V152.703C64.5498 152.703 67.7608 151.84 70.5612 150.09L69.5013 148.394ZM60.9609 150.703C56.0662 150.703 52.1617 149.015 49.1551 145.657L47.6652 146.991C51.0805 150.806 55.5431 152.703 60.9609 152.703V150.703ZM49.1576 145.66C46.1681 142.297 44.6289 137.806 44.6289 132.086H42.6289C42.6289 138.178 44.2772 143.18 47.6627 146.989L49.1576 145.66ZM44.6289 132.086V131.629H42.6289V132.086H44.6289ZM49.168 132.402C49.168 136.771 50.1761 140.392 52.2903 143.168L53.8815 141.957C52.1051 139.624 51.168 136.471 51.168 132.402H49.168ZM52.2939 143.173C54.4557 145.978 57.3758 147.395 60.9609 147.395V145.395C57.9835 145.395 55.6536 144.256 53.878 141.952L52.2939 143.173ZM60.9609 147.395C64.5708 147.395 67.4948 145.965 69.6342 143.13L68.0377 141.925C66.2864 144.246 63.9605 145.395 60.9609 145.395V147.395ZM69.6368 143.126C71.7569 140.291 72.7539 136.418 72.7539 131.629H70.7539C70.7539 136.168 69.8056 139.561 68.0351 141.928L69.6368 143.126ZM72.7539 131.629C72.7539 127.298 71.7183 123.69 69.5569 120.892L67.9743 122.115C69.7973 124.474 70.7539 127.616 70.7539 131.629H72.7539ZM69.563 120.9C67.404 118.047 64.483 116.602 60.8906 116.602V118.602C63.8608 118.602 66.1898 119.757 67.9682 122.107L69.563 120.9ZM60.8906 116.602C57.3679 116.602 54.4861 118.024 52.329 120.823L53.9132 122.044C55.6936 119.734 57.9915 118.602 60.8906 118.602V116.602ZM52.329 120.823C50.1747 123.619 49.168 127.524 49.168 132.402H51.168C51.168 127.765 52.13 124.358 53.9132 122.044L52.329 120.823ZM86.8711 121.574L85.9752 121.13L85.9725 121.136L86.8711 121.574ZM92.9883 114.684L92.4638 113.832L92.4603 113.834L92.9883 114.684ZM114.504 117.637L113.756 118.301L113.759 118.304L114.504 117.637ZM117.176 142.387L116.276 141.951L116.274 141.954L117.176 142.387ZM111.094 149.242L110.567 148.392L110.564 148.394L111.094 149.242ZM89.4727 146.324L88.7252 146.989L88.7277 146.991L89.4727 146.324ZM94.1484 142.562L93.3528 143.168L93.3564 143.173L94.1484 142.562ZM109.898 142.527L110.697 143.13L110.699 143.126L109.898 142.527ZM109.828 121.504L109.031 122.107L109.037 122.115L109.828 121.504ZM85.6914 131.629C85.6914 128.035 86.3912 124.837 87.7697 122.013L85.9725 121.136C84.4447 124.265 83.6914 127.769 83.6914 131.629H85.6914ZM87.7669 122.019C89.1681 119.194 91.0859 117.044 93.5162 115.533L92.4603 113.834C89.6876 115.558 87.5272 118.001 85.9753 121.13L87.7669 122.019ZM93.5128 115.535C95.9664 114.023 98.7701 113.258 101.953 113.258V111.258C98.4331 111.258 95.2601 112.109 92.4638 113.832L93.5128 115.535ZM101.953 113.258C106.873 113.258 110.775 114.947 113.756 118.301L115.251 116.972C111.858 113.155 107.393 111.258 101.953 111.258V113.258ZM113.759 118.304C116.769 121.666 118.32 126.178 118.32 131.945H120.32C120.32 125.807 118.661 120.78 115.249 116.97L113.759 118.304ZM118.32 131.945V132.402H120.32V131.945H118.32ZM118.32 132.402C118.32 135.974 117.632 139.15 116.276 141.951L118.076 142.822C119.579 139.717 120.32 136.237 120.32 132.402H118.32ZM116.274 141.954C114.947 144.719 113.046 146.856 110.567 148.392L111.62 150.092C114.438 148.347 116.592 145.913 118.077 142.819L116.274 141.954ZM110.564 148.394C108.114 149.925 105.278 150.703 102.023 150.703V152.703C105.612 152.703 108.823 151.84 111.624 150.09L110.564 148.394ZM102.023 150.703C97.1287 150.703 93.2242 149.015 90.2176 145.657L88.7277 146.991C92.143 150.806 96.6056 152.703 102.023 152.703V150.703ZM90.2201 145.66C87.2306 142.297 85.6914 137.806 85.6914 132.086H83.6914C83.6914 138.178 85.3397 143.18 88.7252 146.989L90.2201 145.66ZM85.6914 132.086V131.629H83.6914V132.086H85.6914ZM90.2305 132.402C90.2305 136.771 91.2386 140.392 93.3528 143.168L94.944 141.957C93.1676 139.624 92.2305 136.471 92.2305 132.402H90.2305ZM93.3564 143.173C95.5182 145.978 98.4383 147.395 102.023 147.395V145.395C99.046 145.395 96.7161 144.256 94.9405 141.952L93.3564 143.173ZM102.023 147.395C105.633 147.395 108.557 145.965 110.697 143.13L109.1 141.925C107.349 144.246 105.023 145.395 102.023 145.395V147.395ZM110.699 143.126C112.819 140.291 113.816 136.418 113.816 131.629H111.816C111.816 136.168 110.868 139.561 109.098 141.928L110.699 143.126ZM113.816 131.629C113.816 127.298 112.781 123.69 110.619 120.892L109.037 122.115C110.86 124.474 111.816 127.616 111.816 131.629H113.816ZM110.626 120.9C108.466 118.047 105.545 116.602 101.953 116.602V118.602C104.923 118.602 107.252 119.757 109.031 122.107L110.626 120.9ZM101.953 116.602C98.4304 116.602 95.5486 118.024 93.3915 120.823L94.9757 122.044C96.7561 119.734 99.054 118.602 101.953 118.602V116.602ZM93.3915 120.823C91.2372 123.619 90.2305 127.524 90.2305 132.402H92.2305C92.2305 127.765 93.1925 124.358 94.9757 122.044L93.3915 120.823ZM130.043 117.602L130.831 118.217L130.833 118.215L130.043 117.602ZM151.488 116.828L150.728 117.477L152.488 119.539V116.828H151.488ZM151.488 97V96H150.488V97H151.488ZM157.992 97H158.992V96H157.992V97ZM157.992 151V152H158.992V151H157.992ZM152.016 151L151.019 151.077L151.09 152H152.016V151ZM151.699 146.922L152.696 146.845L152.503 144.355L150.925 146.29L151.699 146.922ZM130.043 146.289L129.249 146.897L129.252 146.901L130.043 146.289ZM151.488 140.629L152.378 141.085L152.488 140.87V140.629H151.488ZM151.488 123.156H152.488V122.902L152.367 122.679L151.488 123.156ZM126.895 131.664C126.895 125.984 128.239 121.534 130.831 118.217L129.255 116.986C126.316 120.747 124.895 125.672 124.895 131.664H126.895ZM130.833 118.215C133.411 114.894 136.741 113.258 140.906 113.258V111.258C136.118 111.258 132.206 113.184 129.253 116.988L130.833 118.215ZM140.906 113.258C145.103 113.258 148.339 114.68 150.728 117.477L152.249 116.179C149.435 112.883 145.615 111.258 140.906 111.258V113.258ZM152.488 116.828V97H150.488V116.828H152.488ZM151.488 98H157.992V96H151.488V98ZM156.992 97V151H158.992V97H156.992ZM157.992 150H152.016V152H157.992V150ZM153.013 150.923L152.696 146.845L150.702 146.999L151.019 151.077L153.013 150.923ZM150.925 146.29C148.539 149.213 145.22 150.703 140.836 150.703V152.703C145.734 152.703 149.657 151.006 152.474 147.554L150.925 146.29ZM140.836 150.703C136.752 150.703 133.442 149.052 130.834 145.678L129.252 146.901C132.222 150.745 136.107 152.703 140.836 152.703V150.703ZM130.837 145.681C128.238 142.289 126.895 137.811 126.895 132.156H124.895C124.895 138.127 126.317 143.07 129.249 146.897L130.837 145.681ZM126.895 132.156V131.664H124.895V132.156H126.895ZM131.398 132.402C131.398 136.839 132.313 140.449 134.263 143.117L135.878 141.937C134.265 139.73 133.398 136.59 133.398 132.402H131.398ZM134.263 143.117C136.241 145.825 139.009 147.184 142.453 147.184V145.184C139.616 145.184 137.462 144.105 135.878 141.937L134.263 143.117ZM142.453 147.184C144.669 147.184 146.641 146.685 148.329 145.647C150.017 144.609 151.36 143.07 152.378 141.085L150.598 140.173C149.718 141.891 148.606 143.129 147.282 143.943C145.958 144.757 144.362 145.184 142.453 145.184V147.184ZM152.488 140.629V123.156H150.488V140.629H152.488ZM152.367 122.679C151.324 120.756 149.975 119.268 148.303 118.265C146.63 117.261 144.691 116.777 142.523 116.777V118.777C144.387 118.777 145.958 119.19 147.274 119.98C148.59 120.769 149.707 121.97 150.609 123.633L152.367 122.679ZM142.523 116.777C139.034 116.777 136.24 118.147 134.26 120.882L135.88 122.055C137.463 119.869 139.638 118.777 142.523 118.777V116.777ZM134.26 120.882C132.302 123.588 131.398 127.478 131.398 132.402H133.398C133.398 127.67 134.276 124.271 135.88 122.055L134.26 120.882ZM194.801 103.75H195.801V102.75H194.801V103.75ZM194.801 112.961H193.801V113.961H194.801V112.961ZM201.902 112.961H202.902V111.961H201.902V112.961ZM201.902 117.988V118.988H202.902V117.988H201.902ZM194.801 117.988V116.988H193.801V117.988H194.801ZM195.75 145.023L194.976 145.657L194.981 145.663L194.986 145.668L195.75 145.023ZM202.078 145.727H203.078V144.49L201.869 144.749L202.078 145.727ZM202.078 151L202.342 151.964L203.078 151.763V151H202.078ZM188.297 117.988H189.297V116.988H188.297V117.988ZM181.371 117.988H180.371V118.988H181.371V117.988ZM181.371 112.961V111.961H180.371V112.961H181.371ZM188.297 112.961V113.961H189.297V112.961H188.297ZM188.297 103.75V102.75H187.297V103.75H188.297ZM193.801 103.75V112.961H195.801V103.75H193.801ZM194.801 113.961H201.902V111.961H194.801V113.961ZM200.902 112.961V117.988H202.902V112.961H200.902ZM201.902 116.988H194.801V118.988H201.902V116.988ZM193.801 117.988V141.578H195.801V117.988H193.801ZM193.801 141.578C193.801 143.217 194.138 144.632 194.976 145.657L196.524 144.39C196.097 143.868 195.801 142.986 195.801 141.578H193.801ZM194.986 145.668C195.893 146.744 197.329 147.148 198.984 147.148V145.148C197.593 145.148 196.872 144.803 196.514 144.379L194.986 145.668ZM198.984 147.148C199.839 147.148 200.951 146.991 202.288 146.704L201.869 144.749C200.58 145.025 199.629 145.148 198.984 145.148V147.148ZM201.078 145.727V151H203.078V145.727H201.078ZM201.814 150.036C200.181 150.483 198.606 150.703 197.086 150.703V152.703C198.801 152.703 200.554 152.455 202.342 151.964L201.814 150.036ZM197.086 150.703C194.39 150.703 192.515 149.897 191.277 148.423L189.746 149.71C191.461 151.752 193.969 152.703 197.086 152.703V150.703ZM191.277 148.423C190.004 146.907 189.297 144.672 189.297 141.578H187.297C187.297 144.953 188.067 147.71 189.746 149.71L191.277 148.423ZM189.297 141.578V117.988H187.297V141.578H189.297ZM188.297 116.988H181.371V118.988H188.297V116.988ZM182.371 117.988V112.961H180.371V117.988H182.371ZM181.371 113.961H188.297V111.961H181.371V113.961ZM189.297 112.961V103.75H187.297V112.961H189.297ZM188.297 104.75H194.801V102.75H188.297V104.75ZM216.598 151V152H217.598V151H216.598ZM210.094 151H209.094V152H210.094V151ZM210.094 112.961V111.961H209.094V112.961H210.094ZM216.598 112.961H217.598V111.961H216.598V112.961ZM210.516 100.199L209.774 99.5289L209.767 99.5356L209.762 99.5424L210.516 100.199ZM210.516 105.508L209.772 106.177L209.778 106.184L209.785 106.19L210.516 105.508ZM216.598 150H210.094V152H216.598V150ZM211.094 151V112.961H209.094V151H211.094ZM210.094 113.961H216.598V111.961H210.094V113.961ZM215.598 112.961V151H217.598V112.961H215.598ZM210.566 102.871C210.566 102.033 210.811 101.383 211.27 100.856L209.762 99.5424C208.955 100.469 208.566 101.6 208.566 102.871H210.566ZM211.258 100.87C211.673 100.41 212.328 100.109 213.398 100.109V98.1094C211.938 98.1094 210.671 98.535 209.774 99.5289L211.258 100.87ZM213.398 100.109C214.469 100.109 215.124 100.41 215.539 100.87L217.023 99.5289C216.126 98.535 214.859 98.1094 213.398 98.1094V100.109ZM215.539 100.87C216.016 101.397 216.266 102.043 216.266 102.871H218.266C218.266 101.59 217.859 100.454 217.023 99.5289L215.539 100.87ZM216.266 102.871C216.266 103.699 216.016 104.326 215.55 104.825L217.012 106.19C217.859 105.283 218.266 104.152 218.266 102.871H216.266ZM215.55 104.825C215.138 105.267 214.479 105.562 213.398 105.562V107.562C214.849 107.562 216.112 107.154 217.012 106.19L215.55 104.825ZM213.398 105.562C212.318 105.562 211.659 105.267 211.247 104.825L209.785 106.19C210.685 107.154 211.948 107.562 213.398 107.562V105.562ZM211.259 104.839C210.811 104.341 210.566 103.709 210.566 102.871H208.566C208.566 104.142 208.955 105.268 209.772 106.177L211.259 104.839ZM233.156 112.961L234.155 112.919L234.115 111.961H233.156V112.961ZM233.332 117.18L232.333 117.221L232.439 119.774L234.094 117.827L233.332 117.18ZM255.48 118.375L254.576 118.801L255.315 120.37L256.303 118.944L255.48 118.375ZM260.402 113.945L259.919 113.07L259.915 113.072L260.402 113.945ZM280.336 125.512H281.336V125.504L281.336 125.496L280.336 125.512ZM280.336 151V152H281.336V151H280.336ZM273.832 151H272.832V152H273.832V151ZM271.969 119.816L271.231 120.491L271.236 120.497L271.969 119.816ZM259.699 119.957L260.367 120.701L260.373 120.696L259.699 119.957ZM256.922 125.758L255.927 125.653L255.922 125.705V125.758H256.922ZM256.922 151V152H257.922V151H256.922ZM250.383 151H249.383V152H250.383V151ZM233.508 123.227L232.59 122.83L232.508 123.02V123.227H233.508ZM233.508 151V152H234.508V151H233.508ZM227.004 151H226.004V152H227.004V151ZM227.004 112.961V111.961H226.004V112.961H227.004ZM232.157 113.003L232.333 117.221L234.331 117.138L234.155 112.919L232.157 113.003ZM234.094 117.827C236.673 114.794 240.143 113.258 244.617 113.258V111.258C239.622 111.258 235.569 113.003 232.57 116.532L234.094 117.827ZM244.617 113.258C247.153 113.258 249.208 113.744 250.833 114.658C252.447 115.567 253.696 116.933 254.576 118.801L256.385 117.949C255.344 115.739 253.821 114.046 251.814 112.916C249.817 111.791 247.402 111.258 244.617 111.258V113.258ZM256.303 118.944C257.478 117.246 259.002 115.872 260.89 114.819L259.915 113.072C257.771 114.269 256.014 115.847 254.658 117.806L256.303 118.944ZM260.885 114.821C262.751 113.792 264.981 113.258 267.609 113.258V111.258C264.707 111.258 262.132 111.849 259.919 113.07L260.885 114.821ZM267.609 113.258C271.611 113.258 274.455 114.314 276.328 116.264C278.209 118.224 279.268 121.251 279.336 125.528L281.336 125.496C281.263 120.936 280.13 117.337 277.77 114.879C275.4 112.41 271.952 111.258 267.609 111.258V113.258ZM279.336 125.512V151H281.336V125.512H279.336ZM280.336 150H273.832V152H280.336V150ZM274.832 151V125.898H272.832V151H274.832ZM274.832 125.898C274.832 123.048 274.183 120.729 272.701 119.135L271.236 120.497C272.239 121.575 272.832 123.311 272.832 125.898H274.832ZM272.707 119.142C271.188 117.48 268.759 116.777 265.711 116.777V118.777C268.522 118.777 270.265 119.434 271.231 120.491L272.707 119.142ZM265.711 116.777C263.08 116.777 260.826 117.577 259.025 119.218L260.373 120.696C261.76 119.431 263.514 118.777 265.711 118.777V116.777ZM259.031 119.213C257.227 120.832 256.207 123.007 255.927 125.653L257.916 125.863C258.152 123.634 258.984 121.942 260.367 120.701L259.031 119.213ZM255.922 125.758V151H257.922V125.758H255.922ZM256.922 150H250.383V152H256.922V150ZM251.383 151V126.074H249.383V151H251.383ZM251.383 126.074C251.383 123.16 250.67 120.789 249.067 119.152C247.461 117.511 245.128 116.777 242.262 116.777V118.777C244.809 118.777 246.537 119.427 247.638 120.551C248.742 121.68 249.383 123.457 249.383 126.074H251.383ZM242.262 116.777C239.987 116.777 237.997 117.262 236.346 118.291C234.689 119.322 233.443 120.856 232.59 122.83L234.426 123.623C235.143 121.965 236.141 120.774 237.402 119.989C238.669 119.2 240.271 118.777 242.262 118.777V116.777ZM232.508 123.227V151H234.508V123.227H232.508ZM233.508 150H227.004V152H233.508V150ZM228.004 151V112.961H226.004V151H228.004ZM227.004 113.961H233.156V111.961H227.004V113.961ZM293.379 146.641L292.655 147.33L292.657 147.333L293.379 146.641ZM290.672 121.75L289.773 121.311L289.772 121.314L290.672 121.75ZM296.719 114.789L297.261 115.629L297.263 115.628L296.719 114.789ZM320.801 133.844V134.844H321.801V133.844H320.801ZM295.031 133.844V132.844H294.006L294.032 133.869L295.031 133.844ZM298.301 142.949L297.557 143.618L297.564 143.626L298.301 142.949ZM316.336 141.262L316.95 140.473L316.158 139.856L315.545 140.65L316.336 141.262ZM320.309 144.355L321.147 144.901L321.648 144.131L320.923 143.566L320.309 144.355ZM298.547 120.484L299.276 121.169L299.28 121.164L298.547 120.484ZM295.242 128.5L294.25 128.378L294.112 129.5H295.242V128.5ZM314.297 128.5V129.5H315.297V128.5H314.297ZM314.297 128.008H315.297V127.979L315.295 127.951L314.297 128.008ZM311.625 120.344L310.871 121.001L310.875 121.006L311.625 120.344ZM305.965 150.703C301.05 150.703 297.126 149.106 294.101 145.949L292.657 147.333C296.1 150.926 300.567 152.703 305.965 152.703V150.703ZM294.103 145.951C291.081 142.776 289.527 138.507 289.527 133.035H287.527C287.527 138.907 289.208 143.708 292.655 147.33L294.103 145.951ZM289.527 133.035V131.84H287.527V133.035H289.527ZM289.527 131.84C289.527 128.195 290.217 124.984 291.572 122.186L289.772 121.314C288.267 124.422 287.527 127.938 287.527 131.84H289.527ZM291.571 122.189C292.95 119.362 294.848 117.187 297.261 115.629L296.176 113.949C293.433 115.72 291.3 118.184 289.773 121.311L291.571 122.189ZM297.263 115.628C299.707 114.043 302.331 113.258 305.156 113.258V111.258C301.934 111.258 298.934 112.16 296.175 113.95L297.263 115.628ZM305.156 113.258C309.859 113.258 313.402 114.794 315.922 117.788L317.453 116.501C314.489 112.979 310.344 111.258 305.156 111.258V113.258ZM315.922 117.788C318.46 120.803 319.801 125.203 319.801 131.137H321.801C321.801 124.929 320.4 120.002 317.453 116.501L315.922 117.788ZM319.801 131.137V133.844H321.801V131.137H319.801ZM320.801 132.844H295.031V134.844H320.801V132.844ZM294.032 133.869C294.13 137.807 295.281 141.086 297.557 143.618L299.044 142.281C297.149 140.172 296.12 137.381 296.031 133.819L294.032 133.869ZM297.564 143.626C299.871 146.137 302.814 147.395 306.316 147.395V145.395C303.35 145.395 300.949 144.355 299.037 142.273L297.564 143.626ZM306.316 147.395C308.749 147.395 310.879 146.898 312.659 145.85L311.645 144.126C310.238 144.954 308.478 145.395 306.316 145.395V147.395ZM312.659 145.85C314.369 144.844 315.859 143.515 317.127 141.873L315.545 140.65C314.423 142.102 313.123 143.257 311.645 144.126L312.659 145.85ZM315.722 142.051L319.694 145.144L320.923 143.566L316.95 140.473L315.722 142.051ZM319.47 143.81C316.486 148.396 312.038 150.703 305.965 150.703V152.703C312.642 152.703 317.756 150.112 321.147 144.901L319.47 143.81ZM305.156 116.602C302.253 116.602 299.784 117.678 297.813 119.805L299.28 121.164C300.872 119.447 302.809 118.602 305.156 118.602V116.602ZM297.818 119.8C295.85 121.898 294.689 124.792 294.25 128.378L296.235 128.622C296.639 125.317 297.682 122.868 299.276 121.169L297.818 119.8ZM295.242 129.5H314.297V127.5H295.242V129.5ZM315.297 128.5V128.008H313.297V128.5H315.297ZM315.295 127.951C315.1 124.505 314.164 121.708 312.375 119.682L310.875 121.006C312.274 122.589 313.119 124.901 313.298 128.064L315.295 127.951ZM312.379 119.687C310.571 117.613 308.125 116.602 305.156 116.602V118.602C307.625 118.602 309.492 119.418 310.871 121.001L312.379 119.687ZM329.484 144.777L328.743 144.106L328.738 144.112L328.732 144.119L329.484 144.777ZM335.531 144.777L334.79 145.449L334.796 145.455L334.802 145.461L335.531 144.777ZM335.531 150.297L334.813 149.601L334.807 149.608L334.801 149.614L335.531 150.297ZM329.484 150.297L328.742 150.967L328.748 150.974L328.754 150.98L329.484 150.297ZM329.5 147.59C329.5 146.674 329.761 145.98 330.237 145.436L328.732 144.119C327.895 145.075 327.5 146.256 327.5 147.59H329.5ZM330.225 145.449C330.66 144.969 331.359 144.652 332.508 144.652V142.652C330.985 142.652 329.668 143.085 328.743 144.106L330.225 145.449ZM332.508 144.652C333.657 144.652 334.356 144.969 334.79 145.449L336.272 144.106C335.347 143.085 334.031 142.652 332.508 142.652V144.652ZM334.802 145.461C335.314 146.008 335.586 146.693 335.586 147.59H337.586C337.586 146.237 337.155 145.047 336.261 144.093L334.802 145.461ZM335.586 147.59C335.586 148.427 335.323 149.075 334.813 149.601L336.25 150.992C337.146 150.066 337.586 148.909 337.586 147.59H335.586ZM334.801 149.614C334.369 150.076 333.666 150.387 332.508 150.387V152.387C334.022 152.387 335.334 151.971 336.262 150.98L334.801 149.614ZM332.508 150.387C331.35 150.387 330.647 150.076 330.215 149.614L328.754 150.98C329.681 151.971 330.994 152.387 332.508 152.387V150.387ZM330.226 149.627C329.754 149.103 329.5 148.447 329.5 147.59H327.5C327.5 148.889 327.903 150.038 328.742 150.967L330.226 149.627Z" fill="#111111"/>
</svg>
